<?xml version="1.0" encoding="UTF-8"?>
<svg version="1.1" xmlns="http://www.w3.org/2000/svg" width="500" height="500">
<path d="M0 0 C4.25277234 3.84917004 6.77888102 7.76151715 9.4375 12.8125 C10.31525206 14.43492503 11.19560028 16.05594738 12.078125 17.67578125 C12.54798828 18.53896973 13.01785156 19.4021582 13.50195312 20.29150391 C16.14798273 25.07557373 18.92064493 29.78511218 21.6875 34.5 C26.65667667 42.98202269 31.5951031 51.48063397 36.5 60 C41.28454001 68.30823911 46.09573721 76.59998723 50.9375 84.875 C56.35930863 94.14494037 61.70204974 103.45831855 67.01922607 112.78845215 C71.65775244 120.92570022 76.33379692 129.03970831 81.0625 137.125 C91.51013233 154.98870458 101.82566181 172.92733211 112.0770874 190.9041748 C116.67375438 198.96226921 121.313138 206.99400091 126 215 C131.0318069 223.59522672 136.00389072 232.2231213 140.9375 240.875 C147.96603507 253.20025196 155.04240434 265.49722067 162.14111328 277.78222656 C165.88173676 284.25732736 169.61708619 290.73547244 173.35327148 297.21313477 C176.25666649 302.24647469 179.1608759 307.27933776 182.06854248 312.31021118 C183.09345403 314.08362608 184.11806123 315.85721646 185.14257812 317.63085938 C186.42452738 319.84995773 187.70704107 322.06873016 188.99023438 324.28710938 C190.13810861 326.27464409 191.28129141 328.26489839 192.41894531 330.25830078 C193.44706359 332.04115568 194.49749 333.81139353 195.57324219 335.56591797 C196.04149414 336.34725098 196.50974609 337.12858398 196.9921875 337.93359375 C197.40581543 338.60318115 197.81944336 339.27276855 198.24560547 339.96264648 C199.22805054 342.61588406 198.62536428 344.28816392 198 347 C190.26344915 347.09279127 182.5269562 347.16381111 174.78997517 347.20724869 C171.19710407 347.2280997 167.60461445 347.25637049 164.01196289 347.30175781 C160.54303948 347.34530641 157.07448235 347.36915581 153.60530663 347.37950897 C151.64155867 347.3904672 149.67795753 347.42167925 147.71443176 347.45318604 C146.5135643 347.45348816 145.31269684 347.45379028 144.07543945 347.45410156 C142.49325371 347.46742523 142.49325371 347.46742523 140.87910461 347.48101807 C137.26732006 346.87758962 135.62616424 345.49783731 133 343 C131.46118164 340.81542969 131.46118164 340.81542969 130.16015625 338.421875 C129.66217529 337.52122314 129.16419434 336.62057129 128.65112305 335.69262695 C128.12687744 334.72156006 127.60263184 333.75049316 127.0625 332.75 C125.90525664 330.65405773 124.74635049 328.55903283 123.5859375 326.46484375 C122.99264648 325.38960449 122.39935547 324.31436523 121.78808594 323.20654297 C118.99528224 318.19825737 116.09319645 313.25586625 113.1875 308.3125 C108.06648099 299.57457761 103.01338305 290.79992251 98 282 C93.04636446 273.30589744 88.05621496 264.63502541 83 256 C77.96810107 247.40482534 72.99625079 238.77679783 68.0625 230.125 C57.5586604 211.70801912 46.96667836 193.34326402 36.26904297 175.03808594 C31.98732065 167.70658388 27.7382856 160.35668343 23.5 153 C21.63389631 149.76563187 19.76741173 146.53148378 17.90087891 143.29736328 C16.26710088 140.46332705 14.63679642 137.62732473 13.00765991 134.7906189 C11.40519132 132.00379172 9.79574305 129.22099759 8.1875 126.4375 C7.59453125 125.40173828 7.0015625 124.36597656 6.390625 123.29882812 C5.56884766 121.88053711 5.56884766 121.88053711 4.73046875 120.43359375 C4.24989014 119.59884521 3.76931152 118.76409668 3.27416992 117.90405273 C2.13426512 115.86103915 2.13426512 115.86103915 0 115 C-0.28576904 115.58740967 -0.57153809 116.17481934 -0.8659668 116.7800293 C-1.87966589 118.7644353 -2.96228289 120.63254576 -4.14453125 122.51953125 C-4.56782715 123.20088135 -4.99112305 123.88223145 -5.42724609 124.58422852 C-5.88437988 125.31955811 -6.34151367 126.0548877 -6.8125 126.8125 C-14.02067349 138.49995162 -20.75349408 150.46463183 -27.37231445 162.49414062 C-29.60413033 166.54816457 -31.89266786 170.50587871 -34.4375 174.375 C-37.31840435 178.85157767 -39.91809184 183.41208897 -42.43359375 188.1015625 C-47.09547867 196.72779344 -52.0957321 205.16982259 -57.04907227 213.63061523 C-61.80274594 221.75171277 -66.53291522 229.87642722 -71.0625 238.125 C-75.31726614 245.87058424 -79.79032447 253.4767216 -84.30249023 261.07470703 C-87.44351435 266.36430984 -90.56850638 271.6610313 -93.625 277 C-94.21539062 278.03125 -94.80578125 279.0625 -95.4140625 280.125 C-97.02555794 283.04633164 -98.5159853 286.01231477 -100 289 C-92.08988225 289.37247435 -84.18347856 289.6558055 -76.26673317 289.82899475 C-72.58920255 289.91217469 -68.91770641 290.02466345 -65.24365234 290.20703125 C-49.92048851 291.6080897 -49.92048851 291.6080897 -35.77301025 287.58337402 C-32.26317094 283.97934675 -30.4493748 279.79209135 -28.78765869 275.09985352 C-27.62016091 271.98737046 -25.90497229 269.27574366 -24.1640625 266.453125 C-22.98183073 264.38687032 -21.80215308 262.31915224 -20.625 260.25 C-14.22707295 249.07802689 -7.67768977 238.00676601 -1 227 C1.30883789 227.20483398 1.30883789 227.20483398 4 228 C5.63061523 230.02758789 5.63061523 230.02758789 7.05859375 232.72265625 C7.60306152 233.72506348 8.1475293 234.7274707 8.70849609 235.76025391 C9.27906738 236.84999512 9.84963867 237.93973633 10.4375 239.0625 C11.66524363 241.34391654 12.89579188 243.62382563 14.12890625 245.90234375 C14.44315552 246.48721558 14.75740479 247.0720874 15.08117676 247.67468262 C17.29152601 251.76760004 19.62186879 255.77124291 22.02734375 259.75390625 C22.67195557 260.82439209 23.31656738 261.89487793 23.98071289 262.99780273 C25.2203611 265.04428474 26.47047329 267.08447366 27.73217773 269.11743164 C28.29235596 270.05063232 28.85253418 270.98383301 29.4296875 271.9453125 C29.92710449 272.75500488 30.42452148 273.56469727 30.93701172 274.39892578 C32.74848293 278.83149683 32.59971471 282.50202646 30.8293457 286.92407227 C30.28366943 287.87854248 29.73799316 288.8330127 29.17578125 289.81640625 C28.56532959 290.89994385 27.95487793 291.98348145 27.32592773 293.09985352 C26.65523305 294.25432933 25.98408014 295.40853904 25.3125 296.5625 C24.62917182 297.76100069 23.94697444 298.96014677 23.26586914 300.15991211 C21.19959201 303.78639286 19.10337225 307.39494071 17 311 C16.06462402 312.60681641 16.06462402 312.60681641 15.11035156 314.24609375 C11.92507848 319.70258992 8.71534657 325.14380581 5.46044922 330.55908203 C4.43176039 332.2783784 3.41349204 334.00393092 2.40283203 335.73388672 C1.87931152 336.62479004 1.35579102 337.51569336 0.81640625 338.43359375 C0.3479126 339.23724365 -0.12058105 340.04089355 -0.60327148 340.86889648 C-3.74440721 345.66158548 -3.74440721 345.66158548 -7.12337017 346.57230282 C-10.64824159 347.09638053 -14.10863954 347.13485221 -17.66255188 347.12025452 C-18.42636474 347.12110894 -19.19017761 347.12196337 -19.97713631 347.12284368 C-22.53206343 347.12448851 -25.08692465 347.11899344 -27.6418457 347.11352539 C-29.47507221 347.11324328 -31.30829883 347.11340172 -33.14152527 347.1139679 C-38.11628703 347.11425493 -43.09102471 347.10837333 -48.06578088 347.10139394 C-53.26546624 347.09514481 -58.46515216 347.09455536 -63.6648407 347.09336853 C-73.51031842 347.09025982 -83.35578505 347.08205262 -93.20125788 347.07201904 C-104.41034891 347.06084363 -115.61944047 347.05534385 -126.82853568 347.05032361 C-149.8856966 347.03986964 -172.94284768 347.02227909 -196 347 C-196.98123242 342.81244922 -196.98876424 341.14456563 -194.78125 337.39453125 C-194.26908936 336.50741455 -193.75692871 335.62029785 -193.22924805 334.70629883 C-192.37327026 333.27386841 -192.37327026 333.27386841 -191.5 331.8125 C-190.9119458 330.80147217 -190.3238916 329.79044434 -189.71801758 328.7487793 C-188.46187786 326.59083807 -187.19972678 324.43638682 -185.93212891 322.28515625 C-183.43755086 318.04368011 -180.98360196 313.77944537 -178.5300293 309.51416016 C-176.65994943 306.26462691 -174.78342781 303.01887471 -172.90625 299.7734375 C-169.15505541 293.27908695 -165.43606385 286.76669605 -161.72158813 280.25131226 C-156.82167161 271.65675601 -151.89884554 263.0789901 -146.85498047 254.56787109 C-142.93877154 247.93882966 -139.12658339 241.25059642 -135.3125 234.5625 C-124.75097457 216.04511118 -114.10155881 197.58027936 -103.33935547 179.17871094 C-98.50285622 170.89415517 -93.74247358 162.56718948 -88.99285889 154.23269653 C-82.08030869 142.10576599 -75.09028204 130.02407858 -68 118 C-67.23296753 116.64636353 -67.23296753 116.64636353 -66.45043945 115.26538086 C-65 113 -65 113 -63 112 C-61.05955723 111.90871707 -59.1159244 111.88247752 -57.17333984 111.88647461 C-55.95222504 111.88655014 -54.73111023 111.88662567 -53.47299194 111.88670349 C-52.13564005 111.89181048 -50.79828857 111.89702648 -49.4609375 111.90234375 C-48.09616141 111.9042086 -46.73138466 111.90563219 -45.36660767 111.90663147 C-41.77284907 111.91045137 -38.17913083 111.92027717 -34.58538818 111.93133545 C-30.91891018 111.94156089 -27.25242565 111.94613152 -23.5859375 111.95117188 C-16.39060659 111.9618999 -9.19530895 111.97897001 -2 112 C-3.64043361 107.4607056 -5.26685645 103.18870358 -7.6796875 98.99609375 C-8.44611572 97.65393799 -8.44611572 97.65393799 -9.22802734 96.28466797 C-9.77152832 95.34510254 -10.3150293 94.40553711 -10.875 93.4375 C-11.43783691 92.4489502 -12.00067383 91.46040039 -12.58056641 90.44189453 C-15.61017774 85.12518254 -18.68082628 79.83428887 -21.78125 74.55859375 C-22.38340332 73.52226807 -22.98555664 72.48594238 -23.60595703 71.41821289 C-24.76644202 69.42187762 -25.93893256 67.43246299 -27.12451172 65.45092773 C-27.64803223 64.54673096 -28.17155273 63.64253418 -28.7109375 62.7109375 C-29.17806152 61.91993652 -29.64518555 61.12893555 -30.12646484 60.31396484 C-31.57274774 56.48281077 -30.40730921 53.93848992 -28.82714844 50.29760742 C-25.19026247 43.16236624 -21.32736731 36.20478616 -17.25 29.3125 C-16.64526855 28.28318359 -16.04053711 27.25386719 -15.41748047 26.19335938 C-13.61504949 23.12689207 -11.80767894 20.06337561 -10 17 C-8.95525947 15.2229323 -7.91095692 13.44560701 -6.8671875 11.66796875 C-4.58175266 7.77649938 -2.29231152 3.88742229 0 0 Z " fill="#F95656" transform="translate(250,78)"/>
<path d="M0 0 C4.25277234 3.84917004 6.77888102 7.76151715 9.4375 12.8125 C10.31525206 14.43492503 11.19560028 16.05594738 12.078125 17.67578125 C12.54798828 18.53896973 13.01785156 19.4021582 13.50195312 20.29150391 C16.14798273 25.07557373 18.92064493 29.78511218 21.6875 34.5 C26.65667667 42.98202269 31.5951031 51.48063397 36.5 60 C41.28454001 68.30823911 46.09573721 76.59998723 50.9375 84.875 C56.35930863 94.14494037 61.70204974 103.45831855 67.01922607 112.78845215 C71.65775244 120.92570022 76.33379692 129.03970831 81.0625 137.125 C91.51013233 154.98870458 101.82566181 172.92733211 112.0770874 190.9041748 C116.67375438 198.96226921 121.313138 206.99400091 126 215 C131.0318069 223.59522672 136.00389072 232.2231213 140.9375 240.875 C147.96603507 253.20025196 155.04240434 265.49722067 162.14111328 277.78222656 C165.88173676 284.25732736 169.61708619 290.73547244 173.35327148 297.21313477 C176.25666649 302.24647469 179.1608759 307.27933776 182.06854248 312.31021118 C183.09345403 314.08362608 184.11806123 315.85721646 185.14257812 317.63085938 C186.42452738 319.84995773 187.70704107 322.06873016 188.99023438 324.28710938 C190.13810861 326.27464409 191.28129141 328.26489839 192.41894531 330.25830078 C193.44706359 332.04115568 194.49749 333.81139353 195.57324219 335.56591797 C196.04149414 336.34725098 196.50974609 337.12858398 196.9921875 337.93359375 C197.40581543 338.60318115 197.81944336 339.27276855 198.24560547 339.96264648 C199.22805054 342.61588406 198.62536428 344.28816392 198 347 C190.26344915 347.09279127 182.5269562 347.16381111 174.78997517 347.20724869 C171.19710407 347.2280997 167.60461445 347.25637049 164.01196289 347.30175781 C160.54303948 347.34530641 157.07448235 347.36915581 153.60530663 347.37950897 C151.64155867 347.3904672 149.67795753 347.42167925 147.71443176 347.45318604 C146.5135643 347.45348816 145.31269684 347.45379028 144.07543945 347.45410156 C142.49325371 347.46742523 142.49325371 347.46742523 140.87910461 347.48101807 C137.26732006 346.87758962 135.62616424 345.49783731 133 343 C131.46118164 340.81542969 131.46118164 340.81542969 130.16015625 338.421875 C129.66217529 337.52122314 129.16419434 336.62057129 128.65112305 335.69262695 C128.12687744 334.72156006 127.60263184 333.75049316 127.0625 332.75 C125.90525664 330.65405773 124.74635049 328.55903283 123.5859375 326.46484375 C122.99264648 325.38960449 122.39935547 324.31436523 121.78808594 323.20654297 C118.99528224 318.19825737 116.09319645 313.25586625 113.1875 308.3125 C108.06648099 299.57457761 103.01338305 290.79992251 98 282 C93.04636446 273.30589744 88.05621496 264.63502541 83 256 C77.96810107 247.40482534 72.99625079 238.77679783 68.0625 230.125 C57.5586604 211.70801912 46.96667836 193.34326402 36.26904297 175.03808594 C31.98732065 167.70658388 27.7382856 160.35668343 23.5 153 C21.63389631 149.76563187 19.76741173 146.53148378 17.90087891 143.29736328 C16.26710088 140.46332705 14.63679642 137.62732473 13.00765991 134.7906189 C11.40519132 132.00379172 9.79574305 129.22099759 8.1875 126.4375 C7.29804688 124.88385742 7.29804688 124.88385742 6.390625 123.29882812 C5.56884766 121.88053711 5.56884766 121.88053711 4.73046875 120.43359375 C4.24989014 119.59884521 3.76931152 118.76409668 3.27416992 117.90405273 C2.13426512 115.86103915 2.13426512 115.86103915 0 115 C0 114.01 0 113.02 0 112 C-0.66 112 -1.32 112 -2 112 C-2.37382812 110.89785156 -2.74765625 109.79570312 -3.1328125 108.66015625 C-5.15960618 103.26916886 -7.99748872 98.41193471 -10.875 93.4375 C-11.43783691 92.4489502 -12.00067383 91.46040039 -12.58056641 90.44189453 C-15.61017774 85.12518254 -18.68082628 79.83428887 -21.78125 74.55859375 C-22.38340332 73.52226807 -22.98555664 72.48594238 -23.60595703 71.41821289 C-24.76644202 69.42187762 -25.93893256 67.43246299 -27.12451172 65.45092773 C-27.64803223 64.54673096 -28.17155273 63.64253418 -28.7109375 62.7109375 C-29.17806152 61.91993652 -29.64518555 61.12893555 -30.12646484 60.31396484 C-31.57274774 56.48281077 -30.40730921 53.93848992 -28.82714844 50.29760742 C-25.19026247 43.16236624 -21.32736731 36.20478616 -17.25 29.3125 C-16.64526855 28.28318359 -16.04053711 27.25386719 -15.41748047 26.19335938 C-13.61504949 23.12689207 -11.80767894 20.06337561 -10 17 C-8.95525947 15.2229323 -7.91095692 13.44560701 -6.8671875 11.66796875 C-4.58175266 7.77649938 -2.29231152 3.88742229 0 0 Z " fill="#06BB60" transform="translate(250,78)"/>
<path d="M0 0 C4.25277234 3.84917004 6.77888102 7.76151715 9.4375 12.8125 C10.31525206 14.43492503 11.19560028 16.05594738 12.078125 17.67578125 C12.54798828 18.53896973 13.01785156 19.4021582 13.50195312 20.29150391 C16.14798273 25.07557373 18.92064493 29.78511218 21.6875 34.5 C26.65667667 42.98202269 31.5951031 51.48063397 36.5 60 C41.28454001 68.30823911 46.09573721 76.59998723 50.9375 84.875 C56.35930863 94.14494037 61.70204974 103.45831855 67.01922607 112.78845215 C71.65775244 120.92570022 76.33379692 129.03970831 81.0625 137.125 C91.51013233 154.98870458 101.82566181 172.92733211 112.0770874 190.9041748 C116.67375438 198.96226921 121.313138 206.99400091 126 215 C131.0318069 223.59522672 136.00389072 232.2231213 140.9375 240.875 C147.96603507 253.20025196 155.04240434 265.49722067 162.14111328 277.78222656 C165.88173676 284.25732736 169.61708619 290.73547244 173.35327148 297.21313477 C176.25666649 302.24647469 179.1608759 307.27933776 182.06854248 312.31021118 C183.09345403 314.08362608 184.11806123 315.85721646 185.14257812 317.63085938 C186.42452738 319.84995773 187.70704107 322.06873016 188.99023438 324.28710938 C190.1378685 326.27422834 191.28226669 328.263221 192.42285156 330.25439453 C193.45026467 332.04298397 194.48819232 333.82558745 195.53808594 335.60107422 C196.22692871 336.78660889 196.22692871 336.78660889 196.9296875 337.99609375 C197.33171387 338.67728271 197.73374023 339.35847168 198.14794922 340.06030273 C199 342 199 342 199 346 C194.57069915 344.44216605 190.79658022 342.09289829 186.875 339.5625 C182.30562236 336.64020485 177.71680683 333.80736641 172.97265625 331.17578125 C172.13428223 330.707771 171.2959082 330.23976074 170.43212891 329.75756836 C168.81516163 328.86141591 167.1914407 327.9773009 165.56005859 327.10766602 C156.41050429 322.01033678 151.43283591 314.65298755 146.5 305.625 C145.45527101 303.75603842 144.40965689 301.88757142 143.36328125 300.01953125 C142.81752441 299.03936035 142.27176758 298.05918945 141.70947266 297.04931641 C138.75249407 291.77472879 135.71659363 286.54589318 132.6875 281.3125 C131.40869124 279.09775032 130.13004672 276.88290579 128.8515625 274.66796875 C126.94402474 271.36520062 125.03617932 268.06261079 123.12792969 264.76025391 C115.69195869 251.89120773 108.28506675 239.00648091 100.92263794 226.09527588 C96.32605777 218.03736788 91.6867584 210.00582214 87 202 C81.9681931 193.40477328 76.99610928 184.7768787 72.0625 176.125 C65.03396493 163.79974804 57.95759566 151.50277933 50.85888672 139.21777344 C47.11021966 132.72874904 43.36691333 126.2366305 39.62255859 119.74511719 C36.51181661 114.35251686 33.39986673 108.96062178 30.28515625 103.5703125 C25.02957823 94.47207958 19.77766297 85.37203316 14.5703125 76.24609375 C14.20282394 75.60216675 13.83533539 74.95823975 13.45671082 74.2947998 C11.66995088 71.16320745 9.88477471 68.03072542 8.10180664 64.89697266 C7.46364014 63.77726074 6.82547363 62.65754883 6.16796875 61.50390625 C5.32141724 60.01612671 5.32141724 60.01612671 4.45776367 58.49829102 C3.36661445 56.62829772 2.20095879 54.80143818 1 53 C0.27409668 53.09087891 -0.45180664 53.18175781 -1.19970703 53.27539062 C-4.50768047 53.6873688 -7.81632024 54.09373512 -11.125 54.5 C-12.26710937 54.64308594 -13.40921875 54.78617188 -14.5859375 54.93359375 C-16.24882812 55.13662109 -16.24882812 55.13662109 -17.9453125 55.34375 C-18.96125488 55.46943359 -19.97719727 55.59511719 -21.02392578 55.72460938 C-24.0340821 56.00315378 -26.97883394 56.04726727 -30 56 C-29.41758999 52.302678 -28.40830751 49.55965712 -26.5625 46.3125 C-26.02109375 45.34957031 -25.4796875 44.38664062 -24.921875 43.39453125 C-24.28765625 42.27433594 -23.6534375 41.15414062 -23 40 C-22.25354225 38.65065992 -21.50885252 37.30034076 -20.765625 35.94921875 C-16.26150463 27.77118858 -11.67521764 19.64400297 -7 11.5625 C-6.53118408 10.75167969 -6.06236816 9.94085938 -5.5793457 9.10546875 C-3.78323129 6.01265539 -1.98494071 2.97741106 0 0 Z " fill="#7CD758" transform="translate(250,78)"/>
<path d="M0 0 C2.37133789 0.14233398 2.37133789 0.14233398 5 1 C6.63061523 3.02758789 6.63061523 3.02758789 8.05859375 5.72265625 C8.60306152 6.72506348 9.1475293 7.7274707 9.70849609 8.76025391 C10.27906738 9.84999512 10.84963867 10.93973633 11.4375 12.0625 C12.66524363 14.34391654 13.89579188 16.62382563 15.12890625 18.90234375 C15.44315552 19.48721558 15.75740479 20.0720874 16.08117676 20.67468262 C18.29152601 24.76760004 20.62186879 28.77124291 23.02734375 32.75390625 C23.67195557 33.82439209 24.31656738 34.89487793 24.98071289 35.99780273 C26.2203611 38.04428474 27.47047329 40.08447366 28.73217773 42.11743164 C29.29235596 43.05063232 29.85253418 43.98383301 30.4296875 44.9453125 C30.92710449 45.75500488 31.42452148 46.56469727 31.93701172 47.39892578 C33.74848293 51.83149683 33.59971471 55.50202646 31.8293457 59.92407227 C31.28366943 60.87854248 30.73799316 61.8330127 30.17578125 62.81640625 C29.56532959 63.89994385 28.95487793 64.98348145 28.32592773 66.09985352 C27.65523305 67.25432933 26.98408014 68.40853904 26.3125 69.5625 C25.62917182 70.76100069 24.94697444 71.96014677 24.26586914 73.15991211 C22.19959201 76.78639286 20.10337225 80.39494071 18 84 C17.37641602 85.07121094 16.75283203 86.14242187 16.11035156 87.24609375 C12.92507848 92.70258992 9.71534657 98.14380581 6.46044922 103.55908203 C5.43176039 105.2783784 4.41349204 107.00393092 3.40283203 108.73388672 C2.87931152 109.62479004 2.35579102 110.51569336 1.81640625 111.43359375 C1.3479126 112.23724365 0.87941895 113.04089355 0.39672852 113.86889648 C-1.99647513 117.52040402 -1.99647513 117.52040402 -4 119 C-6.58032624 119.28818467 -8.9179086 119.39195778 -11.49797058 119.36076355 C-12.65337726 119.36460846 -12.65337726 119.36460846 -13.83212548 119.36853105 C-16.42109077 119.37348456 -19.00947684 119.35695053 -21.59838867 119.34057617 C-23.45102423 119.33973024 -25.3036608 119.34020438 -27.15629578 119.34190369 C-32.1932352 119.34276638 -37.22996142 119.32509636 -42.26685119 119.30418181 C-47.52793158 119.28546057 -52.78901656 119.28366817 -58.05012512 119.28010559 C-68.01612568 119.27077172 -77.98202782 119.24613979 -87.94798499 119.21605712 C-99.29244397 119.18255484 -110.63690759 119.16603761 -121.98140371 119.15097082 C-145.32099043 119.11959141 -168.66048971 119.06680485 -192 119 C-190.72665909 115.17997727 -189.39451449 114.71658347 -186.00390625 112.63671875 C-184.96943359 111.99669922 -183.93496094 111.35667969 -182.86914062 110.69726562 C-181.77794922 110.03404297 -180.68675781 109.37082031 -179.5625 108.6875 C-178.50611328 108.03587891 -177.44972656 107.38425781 -176.36132812 106.71289062 C-173.24804489 104.79658135 -170.12539775 102.89647192 -167 101 C-166.0394873 100.4117041 -165.07897461 99.8234082 -164.08935547 99.21728516 C-163.2026416 98.67765137 -162.31592773 98.13801758 -161.40234375 97.58203125 C-160.62238037 97.10612549 -159.84241699 96.63021973 -159.03881836 96.13989258 C-155.44949908 94.13312312 -152.60211301 93.8731703 -148.5655365 93.86628723 C-147.43680618 93.86202225 -146.30807587 93.85775726 -145.1451416 93.85336304 C-143.28653503 93.85404282 -143.28653503 93.85404282 -141.39038086 93.85473633 C-140.08617691 93.85137772 -138.78197296 93.8480191 -137.43824768 93.84455872 C-133.85988808 93.83572025 -130.28155239 93.83338073 -126.70318294 93.83274293 C-123.71833911 93.8317939 -120.73350087 93.82811586 -117.74865919 93.82457083 C-110.70995937 93.81642764 -103.67127235 93.81398656 -96.63256836 93.81469727 C-89.36334217 93.81529874 -82.09419002 93.80473273 -74.82498258 93.7889536 C-68.58884548 93.77589762 -62.35273265 93.77051251 -56.11658198 93.77115268 C-52.38970084 93.77140814 -48.66288555 93.76853005 -44.93601799 93.75797462 C-40.78403491 93.7465359 -36.63221901 93.75102847 -32.48022461 93.75708008 C-30.6185817 93.74865082 -30.6185817 93.74865082 -28.71932983 93.74005127 C-27.0304641 93.746343 -27.0304641 93.746343 -25.30747986 93.75276184 C-24.32505782 93.75221707 -23.34263578 93.75167231 -22.33044338 93.75111103 C-20 94 -20 94 -18 96 C-18 95.34 -18 94.68 -18 94 C-17.67619874 92.66431979 -17.34342449 91.33076989 -17 90 C-17 89.67 -17 89.34 -17 89 C-18.98 89.99 -18.98 89.99 -21 91 C-21.28198242 90.46109131 -21.56396484 89.92218262 -21.85449219 89.36694336 C-23.15164958 86.88975519 -24.45081084 84.41362315 -25.75 81.9375 C-26.1934375 81.08994141 -26.636875 80.24238281 -27.09375 79.36914062 C-27.53203125 78.53447266 -27.9703125 77.69980469 -28.421875 76.83984375 C-28.85177734 76.00952637 -29.28167969 75.17920898 -29.72460938 74.32373047 C-30.93070889 72.03174395 -30.93070889 72.03174395 -32.29101562 70.13330078 C-34.47799149 66.94932122 -35.32656833 64.65892818 -34.73046875 60.90234375 C-32.80110459 54.2458266 -28.89338532 48.43345932 -25.3125 42.5625 C-24.55200747 41.29542237 -23.79291219 40.02750516 -23.03515625 38.75878906 C-21.86736521 36.80385795 -20.69874054 34.8494891 -19.52554321 32.89779663 C-15.42303863 26.06903581 -11.45754072 19.16343709 -7.5 12.25 C-6.26188511 10.08770019 -5.02243853 7.92616197 -3.78125 5.765625 C-3.0087793 4.41645996 -3.0087793 4.41645996 -2.22070312 3.04003906 C-1 1 -1 1 0 0 Z " fill="#F85657" transform="translate(249,305)"/>
<path d="M0 0 C-0.87903631 7.32530259 -2.78496686 12.94710267 -6.484375 19.32421875 C-6.82245178 19.91112991 -7.16052856 20.49804108 -7.5088501 21.10273743 C-8.58413503 22.96732825 -9.66670521 24.82755351 -10.75 26.6875 C-12.16354546 29.12770211 -13.57407437 31.56964028 -14.984375 34.01171875 C-15.32847412 34.60600677 -15.67257324 35.2002948 -16.02709961 35.81259155 C-18.17332443 39.52951971 -20.2560311 43.2750928 -22.296875 47.05078125 C-24.23447535 50.63297416 -26.24947889 54.1021544 -28.5 57.5 C-31.36535233 61.93283172 -33.93943131 66.45187064 -36.43359375 71.1015625 C-41.09547867 79.72779344 -46.0957321 88.16982259 -51.04907227 96.63061523 C-55.80274594 104.75171277 -60.53291522 112.87642722 -65.0625 121.125 C-69.31773769 128.87144268 -73.79023804 136.4791121 -78.3046875 144.0769043 C-85.96654234 156.44932647 -85.96654234 156.44932647 -92.43359375 169.4296875 C-95.63789917 174.99803786 -102.0023946 177.33823373 -107.5 180.1875 C-109.94162562 181.48713196 -112.37667817 182.79890593 -114.8125 184.109375 C-115.72509583 184.5966935 -115.72509583 184.5966935 -116.65612793 185.09385681 C-123.25892038 188.63498808 -129.64003849 192.52729107 -135.99414062 196.49487305 C-136.74888672 196.95933838 -137.50363281 197.42380371 -138.28125 197.90234375 C-138.93158203 198.30960693 -139.58191406 198.71687012 -140.25195312 199.13647461 C-142 200 -142 200 -145 200 C-144.348728 196.79464871 -143.2050583 194.32667737 -141.5859375 191.4921875 C-141.08030273 190.60192871 -140.57466797 189.71166992 -140.05371094 188.79443359 C-139.49973633 187.83102051 -138.94576172 186.86760742 -138.375 185.875 C-137.50536621 184.35060303 -137.50536621 184.35060303 -136.61816406 182.79541016 C-134.7509702 179.52707322 -132.87614871 176.26320353 -131 173 C-130.1042627 171.43765625 -130.1042627 171.43765625 -129.19042969 169.84375 C-121.61160672 156.62727397 -113.94003527 143.46695891 -106.22198486 130.33154297 C-100.66105067 120.86532277 -95.17603548 111.35841508 -89.74609375 101.81640625 C-86.64341285 96.36569159 -83.50052977 90.93866522 -80.35400391 85.51318359 C-76.39237468 78.68138005 -72.44519296 71.84130635 -68.5 65 C-67.21876159 62.77994123 -65.93751175 60.55988905 -64.65625 58.33984375 C-61.89542672 53.55523325 -59.14150341 48.76672859 -56.39331055 43.97485352 C-55.0449093 41.64025519 -53.67419373 39.31994318 -52.30078125 37 C-50.90038133 34.62126901 -49.69469656 32.33209758 -48.54296875 29.8125 C-43.28073269 19.13637843 -31.15808346 15.00935217 -21 10 C-19.04809762 9.0092275 -17.09754413 8.01579247 -15.1484375 7.01953125 C-1.34299623 0 -1.34299623 0 0 0 Z " fill="#FA0303" transform="translate(244,195)"/>
<path d="M0 0 C1.68659225 -0.01940392 1.68659225 -0.01940392 3.40725708 -0.03919983 C5.25879395 -0.05265945 5.25879395 -0.05265945 7.1477356 -0.06639099 C8.44712067 -0.07938736 9.74650574 -0.09238373 11.08526611 -0.10577393 C23.0522002 -0.22153889 35.01995911 -0.27828036 46.98734856 -0.32254124 C55.83345049 -0.35580933 64.67853106 -0.41543043 73.5241946 -0.51005226 C79.74507491 -0.57435018 85.96567651 -0.60807235 92.18687642 -0.61929077 C95.90262243 -0.6268551 99.61713347 -0.64806345 103.33251572 -0.70231819 C107.47729621 -0.76213224 111.61972053 -0.75881196 115.7649231 -0.74998474 C116.99523254 -0.7771759 118.22554199 -0.80436707 119.49313354 -0.8323822 C127.62201634 -0.74287749 127.62201634 -0.74287749 130.43546963 1.93411541 C131.7301124 3.97428122 132.69014266 5.93483796 133.58572388 8.17408752 C134.2756543 9.3428241 134.2756543 9.3428241 134.97952271 10.53517151 C136.12129654 12.55942771 137.26250621 14.58392519 138.39822388 16.61158752 C138.8049231 17.33023987 139.21162231 18.04889221 139.63064575 18.7893219 C142.58572388 24.04886431 142.58572388 24.04886431 142.58572388 25.17408752 C81.20572388 25.17408752 19.82572388 25.17408752 -43.41427612 25.17408752 C-42.14093521 21.35406479 -40.80879061 20.89067099 -37.41818237 18.81080627 C-36.38370972 18.17078674 -35.34923706 17.53076721 -34.28341675 16.87135315 C-32.64662964 15.87651917 -32.64662964 15.87651917 -30.97677612 14.86158752 C-29.9203894 14.20996643 -28.86400269 13.55834534 -27.77560425 12.88697815 C-24.66232101 10.97066888 -21.53967387 9.07055945 -18.41427612 7.17408752 C-17.45376343 6.58579163 -16.49325073 5.99749573 -15.50363159 5.39137268 C-14.61691772 4.85173889 -13.73020386 4.3121051 -12.81661987 3.75611877 C-12.03665649 3.28021301 -11.25669312 2.80430725 -10.45309448 2.3139801 C-6.88281362 0.31785493 -4.01612659 0.0388473 0 0 Z " fill="#F30302" transform="translate(100.41427612304688,398.82591247558594)"/>
<path d="M0 0 C0.66 0 1.32 0 2 0 C3.72280674 10.01900184 4.48843979 19.83355759 4.59033203 29.98535156 C4.61339731 31.57523158 4.65434767 33.16495509 4.71337891 34.75390625 C5.1858191 47.57049605 2.53934506 56.05759536 -4 67 C-4.60328125 68.08700195 -5.2065625 69.17400391 -5.828125 70.29394531 C-7.44432148 73.20440538 -9.11589631 76.07334107 -10.8125 78.9375 C-11.37130859 79.90623047 -11.93011719 80.87496094 -12.50585938 81.87304688 C-13.04662109 82.79021484 -13.58738281 83.70738281 -14.14453125 84.65234375 C-14.62253174 85.46695068 -15.10053223 86.28155762 -15.59301758 87.12084961 C-17 89 -17 89 -20 90 C-20.28198242 89.46109131 -20.56396484 88.92218262 -20.85449219 88.36694336 C-22.15164958 85.88975519 -23.45081084 83.41362315 -24.75 80.9375 C-25.1934375 80.08994141 -25.636875 79.24238281 -26.09375 78.36914062 C-26.53203125 77.53447266 -26.9703125 76.69980469 -27.421875 75.83984375 C-27.85177734 75.00952637 -28.28167969 74.17920898 -28.72460938 73.32373047 C-29.93070889 71.03174395 -29.93070889 71.03174395 -31.29101562 69.13330078 C-33.47799149 65.94932122 -34.32656833 63.65892818 -33.73046875 59.90234375 C-31.80107591 53.24572766 -27.89317135 47.43366722 -24.3125 41.5625 C-23.55272326 40.29616445 -22.79436049 39.02897957 -22.03735352 37.76098633 C-20.8703971 35.80679924 -19.70254081 33.8532161 -18.53007507 31.90232849 C-14.41175898 25.04756645 -10.41992404 18.12178549 -6.4375 11.1875 C-5.18623596 9.01430101 -3.93493765 6.84112175 -2.68359375 4.66796875 C-1.78890634 3.11206896 -0.89430898 1.55611734 0 0 Z " fill="#F60405" transform="translate(248,306)"/>
<path d="M0 0 C0.66 0.33 1.32 0.66 2 1 C1.67 17.83 1.34 34.66 1 52 C-2.99912969 53.99956484 -7.85369368 54.00018175 -12.25 54.5625 C-13.28769531 54.70107422 -14.32539063 54.83964844 -15.39453125 54.98242188 C-20.29022658 55.61704905 -25.05097386 56.19625448 -30 56 C-29.41758999 52.302678 -28.40830751 49.55965712 -26.5625 46.3125 C-26.02109375 45.34957031 -25.4796875 44.38664062 -24.921875 43.39453125 C-24.28765625 42.27433594 -23.6534375 41.15414062 -23 40 C-22.25354225 38.65065992 -21.50885252 37.30034076 -20.765625 35.94921875 C-16.26150463 27.77118858 -11.67521764 19.64400297 -7 11.5625 C-6.53118408 10.75167969 -6.06236816 9.94085938 -5.5793457 9.10546875 C-3.78323129 6.01265539 -1.98494071 2.97741106 0 0 Z " fill="#BBF876" transform="translate(250,78)"/>
<path d="M0 0 C1.45169732 2.90339465 0.72348441 4.90874842 0 8 C-0.66 8.33 -1.32 8.66 -2 9 C-2.92866164 10.48867276 -3.79705336 12.01554706 -4.625 13.5625 C-5.07101563 14.38878906 -5.51703125 15.21507812 -5.9765625 16.06640625 C-6.31429687 16.70449219 -6.65203125 17.34257812 -7 18 C-7.66 18 -8.32 18 -9 18 C-9.33 19.98 -9.66 21.96 -10 24 C-10.66 24 -11.32 24 -12 24 C-12.33 25.98 -12.66 27.96 -13 30 C-13.99 30 -14.98 30 -16 30 C-15.95875 30.7425 -15.9175 31.485 -15.875 32.25 C-16.00624975 35.13749456 -16.59742154 36.52486153 -18 39 C-18.33 39.99 -18.66 40.98 -19 42 C-19.66 42 -20.32 42 -21 42 C-20.83628906 42.55816406 -20.67257813 43.11632812 -20.50390625 43.69140625 C-19.58513848 47.90064464 -19.66168792 51.89184799 -21 56 C-22.95158881 57.81728593 -24.79481407 58.90033826 -27.1875 60.0625 C-29.17892157 60.86702161 -29.17892157 60.86702161 -30 63 C30.39 63 90.78 63 153 63 C153 63.33 153 63.66 153 64 C91.62 64 30.24 64 -33 64 C-34.12485112 58.37574442 -34.12485112 58.37574442 -31.78125 54.39453125 C-31.26828369 53.50596436 -30.75531738 52.61739746 -30.22680664 51.7019043 C-29.65696045 50.74840088 -29.08711426 49.79489746 -28.5 48.8125 C-27.91919678 47.81452393 -27.33839355 46.81654785 -26.73999023 45.78833008 C-25.49102116 43.64366086 -24.2361615 41.50241352 -22.97607422 39.36425781 C-20.96448632 35.93953811 -18.97914576 32.50043131 -17.00390625 29.0546875 C-11.41833865 19.3193903 -5.81009218 9.60351322 0 0 Z " fill="#CD4B4C" transform="translate(87,361)"/>
<path d="M0 0 C1.12728516 -0.0071553 2.25457031 -0.01431061 3.41601562 -0.02168274 C4.65351562 -0.02437164 5.89101562 -0.02706055 7.16601562 -0.02983093 C9.11991211 -0.03968773 9.11991211 -0.03968773 11.11328125 -0.04974365 C15.43293022 -0.07076084 19.75257948 -0.08114021 24.07226562 -0.09111023 C25.55900084 -0.09515792 27.04573587 -0.09927485 28.5324707 -0.10346031 C35.51367603 -0.12250266 42.49487081 -0.13673867 49.47609711 -0.14507228 C57.54033278 -0.15485754 65.60429492 -0.18121432 73.66843414 -0.22157317 C79.89949023 -0.25169091 86.13046767 -0.2665368 92.36159515 -0.26985329 C96.08469279 -0.27220776 99.80749786 -0.2812197 103.53051758 -0.30631447 C107.68002702 -0.33383398 111.82892088 -0.32977748 115.97851562 -0.32279968 C117.21601563 -0.33560974 118.45351562 -0.3484198 119.72851562 -0.36161804 C121.41944336 -0.35120232 121.41944336 -0.35120232 123.14453125 -0.34057617 C124.12603149 -0.34296453 125.10753174 -0.34535288 126.11877441 -0.34781361 C128.57226562 0.14717102 128.57226562 0.14717102 130.41149902 2.05265522 C131.57226562 4.14717102 131.57226562 4.14717102 131.57226562 6.14717102 C129.59226563 5.65217102 129.59226563 5.65217102 127.57226562 5.14717102 C127.90226563 4.15717102 128.23226562 3.16717102 128.57226562 2.14717102 C83.69226563 2.47717102 38.81226563 2.80717102 -7.42773438 3.14717102 C-7.42773438 4.13717102 -7.42773438 5.12717102 -7.42773438 6.14717102 C-9.41341146 6.63545227 -11.39908854 7.12373352 -13.38476562 7.61201477 C-15.08456639 8.05727807 -16.76075392 8.59151087 -18.42773438 9.14717102 C-18.42773438 8.48717102 -18.42773438 7.82717102 -18.42773438 7.14717102 C-16.34570312 5.67451477 -16.34570312 5.67451477 -13.61523438 4.08467102 C-12.72191406 3.55744446 -11.82859375 3.0302179 -10.90820312 2.48701477 C-7.10504463 0.43271026 -4.25914621 0.01854445 0 0 Z " fill="#E70809" transform="translate(100.427734375,398.8528289794922)"/>
<path d="M0 0 C4.07589165 1.35863055 4.53454517 3.19251884 6.6171875 6.90625 C6.95622101 7.50497925 7.29525452 8.1037085 7.64456177 8.72058105 C8.73005099 10.64231633 9.80260155 12.57093481 10.875 14.5 C11.58900798 15.76869989 12.30384318 17.03693461 13.01953125 18.3046875 C14.40014241 20.75315312 15.77156014 23.20640863 17.13574219 25.6640625 C18.27956822 27.71084601 19.43833594 29.74947266 20.62207031 31.7734375 C21.07936523 32.55976563 21.53666016 33.34609375 22.0078125 34.15625 C22.59393311 35.14334961 22.59393311 35.14334961 23.19189453 36.15039062 C24 38 24 38 24 42 C19.20785493 40.33684377 15.1385727 37.75344343 10.875 35.0625 C10.15957031 34.61970703 9.44414062 34.17691406 8.70703125 33.72070312 C8.01738281 33.28822266 7.32773437 32.85574219 6.6171875 32.41015625 C5.99440918 32.01965088 5.37163086 31.62914551 4.72998047 31.22680664 C2.94988561 29.96446164 1.49572358 28.58429748 0 27 C0.7734375 27.2165625 0.7734375 27.2165625 1.5625 27.4375 C8.29931248 29.06177204 8.29931248 29.06177204 15 28 C13.87811159 24.91480689 12.5383537 22.13194351 10.875 19.3125 C9 16 9 16 9 14 C8.34 14 7.68 14 7 14 C6.67 12.35 6.34 10.7 6 9 C5.01 8.67 4.02 8.34 3 8 C2.67 6.35 2.34 4.7 2 3 C1.34 3 0.68 3 0 3 C0 2.01 0 1.02 0 0 Z " fill="#7CD56F" transform="translate(425,382)"/>
<path d="M0 0 C2.9118185 3.47981271 5.27402563 6.99658495 7.50390625 10.9453125 C7.82403183 11.50904572 8.14415741 12.07277893 8.47398376 12.65359497 C9.50742487 14.47519938 10.53492826 16.30007947 11.5625 18.125 C12.63202583 20.01311312 13.70307821 21.90035518 14.7741394 23.78759766 C15.4892803 25.04804442 16.20390116 26.30878638 16.91799927 27.56982422 C20.07844069 33.14938589 23.28034136 38.70439965 26.5 44.25 C26.96220947 45.04680176 27.42441895 45.84360352 27.90063477 46.66455078 C28.93301492 48.44346444 29.96637272 50.22181069 31 52 C30.34 52.66 29.68 53.32 29 54 C28.71125 53.195625 28.4225 52.39125 28.125 51.5625 C27.26737432 48.8673532 27.26737432 48.8673532 25 48 C23.30617813 44.40909763 21.78089545 40.90447725 21 37 C20.01 37 19.02 37 18 37 C18 36.01 18 35.02 18 34 C17.34 34 16.68 34 16 34 C15.01 30.37 14.02 26.74 13 23 C11.35 22.67 9.7 22.34 8 22 C7.67 19.36 7.34 16.72 7 14 C6.34 14 5.68 14 5 14 C4.67 12.02 4.34 10.04 4 8 C2.68 7.67 1.36 7.34 0 7 C0 4.69 0 2.38 0 0 Z " fill="#81BF65" transform="translate(252,80)"/>
<path d="M0 0 C0.66 0.99 1.32 1.98 2 3 C1.01 3.33 0.02 3.66 -1 4 C-1.67801034 6.90073181 -1.67801034 6.90073181 -2 10 C-1.34 10.66 -0.68 11.32 0 12 C4.80667508 10.20842111 9.05925844 7.72835157 13.4765625 5.14453125 C16 4 16 4 19 5 C15.51628516 6.98160104 12.02908326 8.95690367 8.53857422 10.92651367 C7.35238451 11.59700392 6.16715049 12.26918792 4.98291016 12.94311523 C3.27760822 13.91317574 1.56853148 14.87659082 -0.140625 15.83984375 C-1.68024902 16.71177368 -1.68024902 16.71177368 -3.25097656 17.60131836 C-5.56423521 18.77828628 -7.46718891 19.53105903 -10 20 C-9.37666027 17.04703576 -8.43098208 14.72453208 -6.93359375 12.109375 C-6.53076172 11.40039062 -6.12792969 10.69140625 -5.71289062 9.9609375 C-5.29201172 9.23132813 -4.87113281 8.50171875 -4.4375 7.75 C-4.01275391 7.00492187 -3.58800781 6.25984375 -3.15039062 5.4921875 C-2.10453958 3.65901039 -1.05283808 1.82917323 0 0 Z " fill="#EF0A0C" transform="translate(109,375)"/>
<path d="M0 0 C0.66 0.33 1.32 0.66 2 1 C-1.28804981 3.91227269 -3.59885603 5.49701212 -8 6 C-8 6.66 -8 7.32 -8 8 C-9.175625 8.0928125 -9.175625 8.0928125 -10.375 8.1875 C-11.24125 8.455625 -12.1075 8.72375 -13 9 C-14.08695466 11.30450734 -14.08695466 11.30450734 -15 14 C-17.65787874 19.90318719 -20.62849903 25.04776792 -24.65625 30.11328125 C-25.99752758 31.99652854 -26.80774191 33.72081429 -27.625 35.875 C-29.14283847 39.3246329 -29.70955638 39.61667064 -33 41 C-29.9878865 34.54773583 -26.54594038 28.38222837 -22.9375 22.25 C-22.5142041 21.52949463 -22.0909082 20.80898926 -21.65478516 20.06665039 C-20.83096457 18.67643308 -19.9992873 17.29083645 -19.15917969 15.91040039 C-18.12682511 14.20901569 -17.12923028 12.48664968 -16.13671875 10.76171875 C-13.46476917 7.3082117 -10.67501704 5.60354008 -6.875 3.5625 C-6.24207031 3.19962891 -5.60914063 2.83675781 -4.95703125 2.46289062 C-3.34392238 1.56728984 -1.67468006 0.77438213 0 0 Z " fill="#EF0B0D" transform="translate(215,209)"/>
<path d="M0 0 C1.45169732 2.90339465 0.72348441 4.90874842 0 8 C-0.99 8.495 -0.99 8.495 -2 9 C-2.92866164 10.48867276 -3.79705336 12.01554706 -4.625 13.5625 C-5.07101563 14.38878906 -5.51703125 15.21507812 -5.9765625 16.06640625 C-6.31429687 16.70449219 -6.65203125 17.34257812 -7 18 C-7.66 18 -8.32 18 -9 18 C-9.33 19.98 -9.66 21.96 -10 24 C-10.66 24 -11.32 24 -12 24 C-12.33 25.98 -12.66 27.96 -13 30 C-13.99 30 -14.98 30 -16 30 C-15.9175 30.721875 -15.835 31.44375 -15.75 32.1875 C-16.07743148 35.87110419 -17.46093936 37.38626111 -20 40 C-20.66 40 -21.32 40 -22 40 C-20.53169509 34.86891274 -18.24329688 30.70905424 -15.5 26.1875 C-14.60659683 24.69281233 -13.71337333 23.19801725 -12.8203125 21.703125 C-12.35915039 20.93548828 -11.89798828 20.16785156 -11.42285156 19.37695312 C-9.04912947 15.4115176 -6.71390271 11.42353518 -4.375 7.4375 C-3.52882284 5.99859381 -2.68248528 4.55978193 -1.8359375 3.12109375 C-1.23007813 2.09113281 -0.62421875 1.06117188 0 0 Z " fill="#D76063" transform="translate(87,361)"/>
<path d="M0 0 C1.80126953 0.19116211 1.80126953 0.19116211 4 1 C5.60888672 3.11938477 5.60888672 3.11938477 7.1796875 5.94140625 C7.77257568 6.9895752 8.36546387 8.03774414 8.97631836 9.11767578 C9.6028833 10.25446777 10.22944824 11.39125977 10.875 12.5625 C11.53056552 13.72980078 12.18756545 14.89629707 12.84594727 16.06201172 C14.21160606 18.48135252 15.57182323 20.90364063 16.92919922 23.32763672 C20.19230725 29.13579581 23.56904138 34.87749656 26.9375 40.625 C28.11347313 42.63790875 29.28927292 44.65091878 30.46484375 46.6640625 C31.30980052 48.10943072 32.15481244 49.55476672 33 51 C32.01 51.495 32.01 51.495 31 52 C31 51.34 31 50.68 31 50 C29.515 49.505 29.515 49.505 28 49 C27.28548547 47.41433562 26.58482606 45.82114337 25.95068359 44.20166016 C23.55293492 38.64878457 20.17366113 33.50948075 17.11914062 28.29882812 C16.59126953 27.38939453 16.06339844 26.47996094 15.51953125 25.54296875 C15.03589111 24.71821045 14.55225098 23.89345215 14.05395508 23.04370117 C13 21 13 21 13 19 C12.01 18.67 11.02 18.34 10 18 C6.94333061 14.94333061 5.96951792 11.25535857 4.74609375 7.21875 C3.37883295 2.79690351 3.37883295 2.79690351 0 0 Z " fill="#7FBB66" transform="translate(372,292)"/>
<path d="M0 0 C0.495 0.99 0.495 0.99 1 2 C0.34 3.65 -0.32 5.3 -1 7 C-23.44 7 -45.88 7 -69 7 C-66 4 -66 4 -63.2677002 3.66615295 C-62.16422241 3.68487961 -61.06074463 3.70360626 -59.92382812 3.72290039 C-58.04673157 3.74260643 -58.04673157 3.74260643 -56.13171387 3.76271057 C-55.46361191 3.77668947 -54.79550995 3.79066837 -54.10716248 3.80507088 C-52.01410599 3.84800794 -49.92165765 3.87132005 -47.82824707 3.88926697 C-42.63033255 3.93736435 -37.43295748 4.01419842 -32.23553467 4.09979248 C-27.84213707 4.17213085 -23.44915374 4.22896049 -19.05528259 4.26269341 C-16.9923755 4.28490191 -14.93078284 4.33038081 -12.86828613 4.37623596 C-10.99118958 4.39121376 -10.99118958 4.39121376 -9.07617188 4.40649414 C-7.97269409 4.4244252 -6.86921631 4.44235626 -5.7322998 4.46083069 C-2.86002074 4.26190157 -2.86002074 4.26190157 -1.12023926 1.97459412 C-0.7505603 1.32297806 -0.38088135 0.671362 0 0 Z " fill="#DC7372" transform="translate(215,363)"/>
<path d="M0 0 C0.66 0.33 1.32 0.66 2 1 C-4.80791919 17.3356453 -12.6643547 25.19208081 -29 32 C-29.33 31.01 -29.66 30.02 -30 29 C-27.69 28.34 -25.38 27.68 -23 27 C-23 26.34 -23 25.68 -23 25 C-21.02 24.67 -19.04 24.34 -17 24 C-17 23.34 -17 22.68 -17 22 C-16.01 22 -15.02 22 -14 22 C-14 21.34 -14 20.68 -14 20 C-13.01 20 -12.02 20 -11 20 C-11 18.68 -11 17.36 -11 16 C-10.01 15.67 -9.02 15.34 -8 15 C-7.67 13.35 -7.34 11.7 -7 10 C-6.34 10 -5.68 10 -5 10 C-4.34 8.02 -3.68 6.04 -3 4 C-2.34 4 -1.68 4 -1 4 C-0.67 2.68 -0.34 1.36 0 0 Z " fill="#EA1112" transform="translate(158,347)"/>
<path d="M0 0 C0.66 0.33 1.32 0.66 2 1 C1.67 4.96 1.34 8.92 1 13 C0.01 13.33 -0.98 13.66 -2 14 C-2 14.66 -2 15.32 -2 16 C-3.65 16 -5.3 16 -7 16 C-7 16.66 -7 17.32 -7 18 C-7.66 18 -8.32 18 -9 18 C-9 18.66 -9 19.32 -9 20 C-9.66 19.67 -10.32 19.34 -11 19 C-7.37 12.73 -3.74 6.46 0 0 Z " fill="#BCF778" transform="translate(250,78)"/>
<path d="M0 0 C0.66 0 1.32 0 2 0 C2.268125 0.598125 2.53625 1.19625 2.8125 1.8125 C3.87102051 4.04254963 3.87102051 4.04254963 5.625 5.5 C7 7 7 7 7 11 C7.66 11 8.32 11 9 11 C9.44730469 11.90621094 9.89460938 12.81242188 10.35546875 13.74609375 C10.96573162 14.97676799 11.57643888 16.20722192 12.1875 17.4375 C12.50267578 18.07333008 12.81785156 18.70916016 13.14257812 19.36425781 C15.35044217 23.78670354 17.70120159 28.09074765 20.25 32.328125 C20.4975 32.87984375 20.745 33.4315625 21 34 C20.67 34.66 20.34 35.32 20 36 C14.9149931 27.60032193 9.89029297 19.16587294 4.9375 10.6875 C4.44854248 9.85758545 3.95958496 9.0276709 3.45581055 8.17260742 C3.0050415 7.39763916 2.55427246 6.6226709 2.08984375 5.82421875 C1.68628662 5.13416748 1.28272949 4.44411621 0.86694336 3.7331543 C0 2 0 2 0 0 Z " fill="#23A769" transform="translate(259,204)"/>
<path d="M0 0 C0.66 0.33 1.32 0.66 2 1 C1.39148357 4.407692 0.06700371 6.2715551 -2 9 C-2.67349161 10.66392045 -3.3409159 12.33032028 -4 14 C-4.66 14.66 -5.32 15.32 -6 16 C-6.70710678 17.64991582 -7.37943989 19.31562256 -8 21 C-8.66 21 -9.32 21 -10 21 C-10.99 23.475 -10.99 23.475 -12 26 C-12.99 26 -13.98 26 -15 26 C-10.05 17.42 -5.1 8.84 0 0 Z " fill="#F1090B" transform="translate(149,306)"/>
<path d="M0 0 C0.66 0.33 1.32 0.66 2 1 C-0.07471787 4.79393311 -2.15617845 8.5840614 -4.24389648 12.37084961 C-4.95278209 13.65889329 -5.65983331 14.94794834 -6.36499023 16.23803711 C-7.38041292 18.09499403 -8.40243345 19.94818264 -9.42578125 21.80078125 C-10.03848877 22.91622314 -10.65119629 24.03166504 -11.2824707 25.1809082 C-12.71032568 27.52453883 -13.95001845 29.2134699 -16 31 C-15.67 28.36 -15.34 25.72 -15 23 C-14.01 23 -13.02 23 -12 23 C-11.67 20.69 -11.34 18.38 -11 16 C-10.01 16 -9.02 16 -8 16 C-8 14.02 -8 12.04 -8 10 C-6.68 9.67 -5.36 9.34 -4 9 C-3.67 7.35 -3.34 5.7 -3 4 C-2.34 4 -1.68 4 -1 4 C-0.67 2.68 -0.34 1.36 0 0 Z " fill="#DE2526" transform="translate(237,210)"/>
<path d="M0 0 C4.102424 1.36747467 4.58588384 3.27607472 6.6875 7.01171875 C7.03127686 7.61756302 7.37505371 8.22340729 7.72924805 8.84761047 C8.82814816 10.7895048 9.91397637 12.73838098 11 14.6875 C11.730963 15.98157643 12.46272509 17.27520184 13.1953125 18.56835938 C16.25410439 23.98795011 19.25391028 29.41329171 22 35 C21.34 35 20.68 35 20 35 C20 34.34 20 33.68 20 33 C19.34 33 18.68 33 18 33 C17.60167969 32.19175781 17.20335937 31.38351562 16.79296875 30.55078125 C16.26316406 29.48214844 15.73335938 28.41351563 15.1875 27.3125 C14.66542969 26.25675781 14.14335937 25.20101563 13.60546875 24.11328125 C12.05710232 21.01630338 12.05710232 21.01630338 10.30078125 18.23046875 C9 16 9 16 9 14 C8.34 14 7.68 14 7 14 C6.67 12.35 6.34 10.7 6 9 C5.01 8.67 4.02 8.34 3 8 C2.67 6.35 2.34 4.7 2 3 C1.34 3 0.68 3 0 3 C0 2.01 0 1.02 0 0 Z " fill="#81BA69" transform="translate(425,382)"/>
<path d="M0 0 C1.65 0 3.3 0 5 0 C2.99839031 5.26797595 0.26697379 9.95421018 -2.5625 14.8125 C-3.06974609 15.69615234 -3.57699219 16.57980469 -4.09960938 17.49023438 C-4.58365234 18.32490234 -5.06769531 19.15957031 -5.56640625 20.01953125 C-6.00927979 20.78370361 -6.45215332 21.54787598 -6.90844727 22.33520508 C-7.26865967 22.8845874 -7.62887207 23.43396973 -8 24 C-8.33 24 -8.66 24 -9 24 C-9.33 22.02 -9.66 20.04 -10 18 C-9.34 18 -8.68 18 -8 18 C-8 17.34 -8 16.68 -8 16 C-7.01 16 -6.02 16 -5 16 C-4.67 13.36 -4.34 10.72 -4 8 C-3.01 8 -2.02 8 -1 8 C-0.67 5.36 -0.34 2.72 0 0 Z " fill="#E22121" transform="translate(188,290)"/>
<path d="M0 0 C2.28955078 0.18383789 2.28955078 0.18383789 5 1 C6.77685547 3.19311523 6.77685547 3.19311523 8.3671875 6.05859375 C8.94210937 7.08404297 9.51703125 8.10949219 10.109375 9.16601562 C10.98335938 10.78540039 10.98335938 10.78540039 11.875 12.4375 C12.78378906 14.05108398 12.78378906 14.05108398 13.7109375 15.69726562 C16.94638069 21.55415314 16.94638069 21.55415314 18 24 C17.67 24.66 17.34 25.32 17 26 C14 22.25 14 22.25 14 20 C13.34 20 12.68 20 12 20 C11.67 18.02 11.34 16.04 11 14 C10.34 14 9.68 14 9 14 C7 11 7 11 7 7 C6.01 7.33 5.02 7.66 4 8 C2.68 5.36 1.36 2.72 0 0 Z " fill="#CB5F62" transform="translate(249,305)"/>
<path d="M0 0 C0.66 0 1.32 0 2 0 C2.433125 0.886875 2.86625 1.77375 3.3125 2.6875 C4.92003881 5.9510585 4.92003881 5.9510585 6.6875 8.75 C8 11 8 11 8 13 C8.66 13 9.32 13 10 13 C10.33 14.32 10.66 15.64 11 17 C11.66 17 12.32 17 13 17 C13.53229326 18.26607607 14.05044544 19.53810412 14.5625 20.8125 C14.85253906 21.52019531 15.14257812 22.22789062 15.44140625 22.95703125 C16 25 16 25 15 28 C12.67937122 24.08809567 10.36992382 20.16970538 8.0625 16.25 C7.40314453 15.13882812 6.74378906 14.02765625 6.06445312 12.8828125 C5.43603516 11.81289063 4.80761719 10.74296875 4.16015625 9.640625 C3.57886963 8.65610352 2.99758301 7.67158203 2.39868164 6.65722656 C1.1965778 4.37346007 0.46252831 2.51908073 0 0 Z " fill="#6CDC6D" transform="translate(359,316)"/>
<path d="M0 0 C3 1 3 1 4.28125 3.1796875 C4.6834375 4.06914062 5.085625 4.95859375 5.5 5.875 C7.01919328 9.21527753 8.37384717 11.46712582 11 14 C11.71942318 15.66775374 12.43443026 17.33799275 13.1015625 19.02734375 C14.44169678 21.9698125 16.26602128 24.55462828 18.109375 27.203125 C19 29 19 29 18 32 C15.93169008 28.54511107 13.87145717 25.08546955 11.8125 21.625 C11.23435547 20.65949219 10.65621094 19.69398438 10.06054688 18.69921875 C6.4303372 12.58734032 3.07754428 6.40839886 0 0 Z " fill="#29A769" transform="translate(298,272)"/>
<path d="M0 0 C1.38308641 2.76617283 0.90563946 4.07408791 0 7 C-1.28965176 8.37562854 -2.62689293 9.70766393 -4 11 C-6.52564843 14.66694612 -6.52564843 14.66694612 -7 19 C-8.17148276 21.44233235 -9.59736658 23.67688841 -11 26 C-11.99 26 -12.98 26 -14 26 C-12.40193652 19.91117584 -9.1388717 14.9335245 -5.875 9.625 C-5.31167969 8.69816406 -4.74835938 7.77132813 -4.16796875 6.81640625 C-2.78393957 4.54096845 -1.39451078 2.2690237 0 0 Z " fill="#CB6062" transform="translate(132,283)"/>
<path d="M0 0 C0.33 0.66 0.66 1.32 1 2 C0.00252701 3.69570409 -0.99880424 5.38936386 -2.02734375 7.06640625 C-3.23024523 9.18550113 -3.23024523 9.18550113 -3.4375 12.625 C-4.15932283 16.95593699 -5.72136323 18.16845006 -9 21 C-9.928125 21.928125 -10.85625 22.85625 -11.8125 23.8125 C-12.534375 24.534375 -13.25625 25.25625 -14 26 C-12.40193652 19.91117584 -9.1388717 14.9335245 -5.875 9.625 C-5.31167969 8.69816406 -4.74835938 7.77132812 -4.16796875 6.81640625 C-2.78393957 4.54096845 -1.39451078 2.2690237 0 0 Z " fill="#D05C60" transform="translate(162,231)"/>
<path d="M0 0 C0.7734375 0.2165625 0.7734375 0.2165625 1.5625 0.4375 C6.59637396 1.59916322 10.94932043 2.37745807 16 1 C15.67 3.64 15.34 6.28 15 9 C11.32305352 7.62859834 8.04681411 5.96304199 4.6875 3.9375 C3.80449219 3.41027344 2.92148437 2.88304687 2.01171875 2.33984375 C1.34785156 1.89769531 0.68398438 1.45554687 0 1 C0 0.67 0 0.34 0 0 Z " fill="#71DB65" transform="translate(425,409)"/>
<path d="M0 0 C0.33 0 0.66 0 1 0 C1.09945752 5.12282759 1.17174409 10.24508354 1.21972656 15.36865234 C1.23974522 17.10866089 1.26696886 18.84860299 1.30175781 20.58837891 C1.35070952 23.10075346 1.37306587 25.61223275 1.390625 28.125 C1.41127014 28.89303955 1.43191528 29.6610791 1.45318604 30.45239258 C1.45556173 36.27253975 -0.10722903 39.95516758 -3 45 C-3.33 43.68 -3.66 42.36 -4 41 C-3.34 41 -2.68 41 -2 41 C-2 39.02 -2 37.04 -2 35 C-1.34 35 -0.68 35 0 35 C0 23.45 0 11.9 0 0 Z " fill="#EA0C0D" transform="translate(251,320)"/>
<path d="M0 0 C0.66 0 1.32 0 2 0 C2.93619813 3.15506142 3.1057123 5.96586502 3.0625 9.25 C3.05347656 10.14203125 3.04445312 11.0340625 3.03515625 11.953125 C3.02355469 12.62859375 3.01195312 13.3040625 3 14 C1.5393715 11.35261084 1 10.10551666 1 7 C-2.12474627 8.63473516 -2.12474627 8.63473516 -2.6875 11.125 C-2.790625 11.74375 -2.89375 12.3625 -3 13 C-4.32 13.33 -5.64 13.66 -7 14 C-5.23570801 9.02790438 -2.6060834 4.56561939 0 0 Z " fill="#E01317" transform="translate(248,306)"/>
<path d="M0 0 C-2.45931297 2.45931297 -3.61449846 2.42327693 -7.015625 2.8515625 C-8.52189453 3.04492188 -8.52189453 3.04492188 -10.05859375 3.2421875 C-11.11175781 3.36851562 -12.16492188 3.49484375 -13.25 3.625 C-14.80654297 3.82609375 -14.80654297 3.82609375 -16.39453125 4.03125 C-21.28660394 4.64354007 -26.05890757 5.18742075 -31 5 C-22.08268792 -0.12745445 -10.00525559 -0.50305754 0 0 Z " fill="#A6FA92" transform="translate(251,129)"/>
<path d="M0 0 C0.66 0 1.32 0 2 0 C1.37666027 2.95296424 0.43098208 5.27546792 -1.06640625 7.890625 C-1.46923828 8.59960938 -1.87207031 9.30859375 -2.28710938 10.0390625 C-2.70798828 10.76867187 -3.12886719 11.49828125 -3.5625 12.25 C-3.98724609 12.99507813 -4.41199219 13.74015625 -4.84960938 14.5078125 C-5.89546042 16.34098961 -6.94716192 18.17082677 -8 20 C-8.66 18.68 -9.32 17.36 -10 16 C-9.34 15.67 -8.68 15.34 -8 15 C-7.34227572 11.97065509 -7.34227572 11.97065509 -7 9 C-6.01 9 -5.02 9 -4 9 C-4 8.01 -4 7.02 -4 6 C-3.34 6 -2.68 6 -2 6 C-2 4.68 -2 3.36 -2 2 C-1.34 2 -0.68 2 0 2 C0 1.34 0 0.68 0 0 Z " fill="#DD2429" transform="translate(209,258)"/>
<path d="M0 0 C3.71304183 3.3116319 5.88899839 6.9477304 8.25 11.25 C8.61351562 11.8996875 8.97703125 12.549375 9.3515625 13.21875 C10.24033459 14.80918426 11.12099936 16.40414448 12 18 C11.34 18.66 10.68 19.32 10 20 C9.67 19.01 9.34 18.02 9 17 C7.35 16.67 5.7 16.34 4 16 C4 14.68 4 13.36 4 12 C3.68848712 9.66365343 3.35840222 7.32961443 3 5 C2.01 5 1.02 5 0 5 C0 3.35 0 1.7 0 0 Z " fill="#84C368" transform="translate(340,233)"/>
<path d="M0 0 C4.12357938 4.85993284 8 9.44005979 8 16 C6.35 16 4.7 16 3 16 C2.83211627 14.37512529 2.66573213 12.75009558 2.5 11.125 C2.4071875 10.22007812 2.314375 9.31515625 2.21875 8.3828125 C2 6 2 6 2 4 C1.34 4 0.68 4 0 4 C0 2.68 0 1.36 0 0 Z " fill="#EB0908" transform="translate(233,407)"/>
<path d="M0 0 C0.66 0 1.32 0 2 0 C4.04169485 2.90548882 5 4.40142046 5 8 C5.99 8.33 6.98 8.66 8 9 C8 10.32 8 11.64 8 13 C8.66 13 9.32 13 10 13 C13.10096154 18.45769231 13.10096154 18.45769231 12.58984375 21.203125 C12.39519531 21.79609375 12.20054687 22.3890625 12 23 C9.99304709 19.54565686 7.99563221 16.0858937 6 12.625 C5.42765625 11.64015625 4.8553125 10.6553125 4.265625 9.640625 C3.72421875 8.69960938 3.1828125 7.75859375 2.625 6.7890625 C2.12226563 5.91975098 1.61953125 5.05043945 1.1015625 4.15478516 C0 2 0 2 0 0 Z " fill="#6BDD6D" transform="translate(375,344)"/>
<path d="M0 0 C1.31767252 2.63534505 0.75847597 3.54582527 -0.125 6.3125 C-1.82365242 11.17362052 -4.28582554 14.64291277 -9 17 C-7.68925635 12.53817564 -5.92933989 9.00381243 -3.375 5.125 C-2.74335937 4.15820312 -2.11171875 3.19140625 -1.4609375 2.1953125 C-0.73777344 1.10863281 -0.73777344 1.10863281 0 0 Z " fill="#DB5E62" transform="translate(101,337)"/>
<path d="M0 0 C0.90492188 0.2165625 0.90492188 0.2165625 1.828125 0.4375 C2.62734375 0.623125 3.4265625 0.80875 4.25 1 C5.03890625 1.185625 5.8278125 1.37125 6.640625 1.5625 C9.25556002 2.12154828 9.25556002 2.12154828 13 2 C13.28875 2.763125 13.5775 3.52625 13.875 4.3125 C14.96269013 7.15029308 14.96269013 7.15029308 17 10 C13.25912846 8.58010715 9.76931806 6.90233408 6.25 5 C5.28578125 4.484375 4.3215625 3.96875 3.328125 3.4375 C1 2 1 2 0 0 Z " fill="#74DB62" transform="translate(408,399)"/>
<path d="M0 0 C2.45647318 2.25465767 4.05012526 4.55845486 5.69921875 7.44921875 C6.18583984 8.29677734 6.67246094 9.14433594 7.17382812 10.01757812 C7.67333984 10.89865234 8.17285156 11.77972656 8.6875 12.6875 C9.19861328 13.58017578 9.70972656 14.47285156 10.23632812 15.39257812 C11.49518858 17.59264265 12.74955596 19.79514447 14 22 C13.01 22 12.02 22 11 22 C7 15.25 7 15.25 7 13 C6.01 12.67 5.02 12.34 4 12 C3.64587656 10.67203709 3.31478446 9.33783393 3 8 C2.484375 7.525625 1.96875 7.05125 1.4375 6.5625 C0 5 0 5 -0.1875 2.3125 C-0.125625 1.549375 -0.06375 0.78625 0 0 Z " fill="#81BC69" transform="translate(353,255)"/>
<path d="M0 0 C1.8046875 0.06640625 1.8046875 0.06640625 4 1 C5.2344361 3.33597836 6.20554 5.48317424 7.125 7.9375 C8.91103589 12.85420672 8.91103589 12.85420672 12 17 C11.625 19.125 11.625 19.125 11 21 C9.15966024 17.87907566 7.32893744 14.75261783 5.5 11.625 C4.97535156 10.73554688 4.45070313 9.84609375 3.91015625 8.9296875 C3.41386719 8.07890625 2.91757812 7.228125 2.40625 6.3515625 C1.94541016 5.56604004 1.48457031 4.78051758 1.00976562 3.97119141 C0 2 0 2 0 0 Z " fill="#6DDD6E" transform="translate(312,235)"/>
<path d="M0 0 C0.99 0 1.98 0 3 0 C3.350625 0.9075 3.70125 1.815 4.0625 2.75 C6.48537267 8.45433615 9.82032537 13.69473465 13 19 C12.01 19 11.02 19 10 19 C8.32992313 16.02273264 6.66451428 13.0428803 5 10.0625 C4.28457031 8.78729492 4.28457031 8.78729492 3.5546875 7.48632812 C3.10351562 6.67744141 2.65234375 5.86855469 2.1875 5.03515625 C1.76855469 4.2862915 1.34960938 3.53742676 0.91796875 2.76586914 C0 1 0 1 0 0 Z " fill="#29A76B" transform="translate(328,324)"/>
<path d="M0 0 C4.75 0.75 4.75 0.75 7 3 C7.4140625 5.6015625 7.4140625 5.6015625 7.625 8.625 C7.69976562 9.62789062 7.77453125 10.63078125 7.8515625 11.6640625 C7.92503906 12.82035156 7.92503906 12.82035156 8 14 C0 4.57142857 0 4.57142857 0 0 Z " fill="#73DC67" transform="translate(303,219)"/>
<path d="M0 0 C2 3.75 2 3.75 2 6 C2.66 6.33 3.32 6.66 4 7 C-1.75 11 -1.75 11 -4 11 C-3.48964169 6.6109185 -2.47785723 3.66291938 0 0 Z " fill="#E36063" transform="translate(57,413)"/>
<path d="M0 0 C1.29567138 2.59134277 0.79191642 3.65563632 0.125 6.4375 C-0.05804688 7.21996094 -0.24109375 8.00242187 -0.4296875 8.80859375 C-0.88502576 10.55821542 -1.42829125 12.28487376 -2 14 C-1.505 14.99 -1.01 15.98 -0.5 17 C-0.005 17.99 0.49 18.98 1 20 C0.67 20.99 0.34 21.98 0 23 C-5.00609992 15.89402595 -5.00609992 15.89402595 -4.9921875 11.57421875 C-4.07724902 7.25367594 -2.57331308 3.62603207 0 0 Z " fill="#E12B2D" transform="translate(219,356)"/>
<path d="M0 0 C0.46174018 4.57617505 -0.78841108 6.6809077 -3.5 10.3125 C-4.1496875 11.19550781 -4.799375 12.07851562 -5.46875 12.98828125 C-5.9740625 13.65214844 -6.479375 14.31601563 -7 15 C-8.43119748 10.70640757 -6.96266953 7.94917715 -5 4 C-1.6 0 -1.6 0 0 0 Z " fill="#BF3937" transform="translate(250,190)"/>
<path d="M0 0 C0.66 0 1.32 0 2 0 C1.43726296 3.9602619 0.26476935 6.52967327 -2 9.8125 C-2.53625 10.60269531 -3.0725 11.39289063 -3.625 12.20703125 C-4.07875 12.79871094 -4.5325 13.39039063 -5 14 C-5.33 14 -5.66 14 -6 14 C-6 11.69 -6 9.38 -6 7 C-4.68 6.67 -3.36 6.34 -2 6 C-2 5.01 -2 4.02 -2 3 C-1.34 3 -0.68 3 0 3 C0 2.01 0 1.02 0 0 Z " fill="#DB2326" transform="translate(217,244)"/>
<path d="M0 0 C3.28834617 2.79042625 5.12735689 6.47328176 7.1875 10.1875 C7.55552734 10.84169922 7.92355469 11.49589844 8.30273438 12.16992188 C9.2062466 13.77746961 10.1037241 15.38840651 11 17 C10.34 17.33 9.68 17.66 9 18 C8.731875 17.195625 8.46375 16.39125 8.1875 15.5625 C7.795625 14.716875 7.40375 13.87125 7 13 C6.01 12.67 5.02 12.34 4 12 C1.84362154 10.3353373 1.09499565 9.41986625 0.48828125 6.73828125 C0.43027344 5.93777344 0.37226563 5.13726562 0.3125 4.3125 C0.24675781 3.50425781 0.18101562 2.69601563 0.11328125 1.86328125 C0.07589844 1.24839844 0.03851563 0.63351563 0 0 Z " fill="#82BC68" transform="translate(312,184)"/>
<path d="M0 0 C1.875 0.2421875 1.875 0.2421875 4 1 C5.125 2.8203125 5.125 2.8203125 6 5.125 C7.24018428 8.2279312 8.54787402 11.03704481 10.3125 13.875 C10.869375 14.90625 11.42625 15.9375 12 17 C11.67 17.99 11.34 18.98 11 20 C9.16318536 16.85618694 7.3311356 13.70962371 5.5 10.5625 C4.97535156 9.66466797 4.45070313 8.76683594 3.91015625 7.84179688 C3.16572266 6.56079102 3.16572266 6.56079102 2.40625 5.25390625 C1.94541016 4.46314697 1.48457031 3.6723877 1.00976562 2.85766602 C0 1 0 1 0 0 Z " fill="#65DF70" transform="translate(266,156)"/>
<path d="M0 0 C4.42679007 1.47559669 4.91432696 3.90057368 7 8 C7 8.66 7 9.32 7 10 C4 12 4 12 2 13 C2.2475 12.319375 2.495 11.63875 2.75 10.9375 C3.1173664 6.6209448 1.32651284 4.59551985 -1 1 C-0.67 0.67 -0.34 0.34 0 0 Z " fill="#83CB63" transform="translate(298,162)"/>
<path d="M0 0 C1.1875 2.5625 1.1875 2.5625 2 5 C1.443125 4.484375 0.88625 3.96875 0.3125 3.4375 C-2.69220931 1.56970773 -3.61423649 2.29949721 -7 3 C-8.94128253 2.91878575 -10.88084231 2.77195686 -12.8125 2.5625 C-13.78832031 2.46066406 -14.76414063 2.35882813 -15.76953125 2.25390625 C-16.87361328 2.12822266 -16.87361328 2.12822266 -18 2 C-18 1.67 -18 1.34 -18 1 C-15.56348622 0.63737003 -13.12623023 0.28461036 -10.6875 -0.0625 C-9.99720703 -0.16626953 -9.30691406 -0.27003906 -8.59570312 -0.37695312 C-5.30415164 -0.83808836 -3.19783876 -1.06594625 0 0 Z " fill="#1FB65E" transform="translate(252,131)"/>
<path d="M0 0 C0.33 0.66 0.66 1.32 1 2 C-0.24282012 4.45038293 -1.52882339 6.773325 -2.9375 9.125 C-3.32357422 9.78371094 -3.70964844 10.44242187 -4.10742188 11.12109375 C-5.06446578 12.751613 -6.03132815 14.37636184 -7 16 C-7.33 16 -7.66 16 -8 16 C-8 14.02 -8 12.04 -8 10 C-7.34 10 -6.68 10 -6 10 C-5.7525 9.0925 -5.505 8.185 -5.25 7.25 C-3.96018658 3.89648511 -2.68028958 2.32291764 0 0 Z " fill="#C93A3D" transform="translate(174,321)"/>
<path d="M0 0 C4.5565527 3.71274665 6.57400393 8.79007402 9 14 C7.35 13.67 5.7 13.34 4 13 C3 10 3 10 4 7 C2.68 6.34 1.36 5.68 0 5 C0 3.35 0 1.7 0 0 Z " fill="#82C367" transform="translate(408,351)"/>
<path d="M0 0 C0.33 0 0.66 0 1 0 C0.72405803 6.48463627 -1.78610069 11.07074377 -6 16 C-6.66 16 -7.32 16 -8 16 C-6.44584521 10.0942118 -3.40465533 5.02261107 0 0 Z " fill="#D12726" transform="translate(240,320)"/>
<path d="M0 0 C2.39348617 2.13818098 2.956356 2.76238264 3.5625 6.0625 C2.7743477 11.57956611 0.08332592 15.43924708 -3 20 C-3.33 18.68 -3.66 17.36 -4 16 C-3.34 16 -2.68 16 -2 16 C-1.87625 15.21625 -1.7525 14.4325 -1.625 13.625 C-1 11 -1 11 1 9 C1.02308597 6.77871445 1.02308597 6.77871445 0.625 4.375 C0.51414062 3.55773437 0.40328125 2.74046875 0.2890625 1.8984375 C0.19367188 1.27195312 0.09828125 0.64546875 0 0 Z " fill="#D46267" transform="translate(279,352)"/>
<path d="M0 0 C0.66 0.33 1.32 0.66 2 1 C2 1.66 2 2.32 2 3 C1.1028125 3.2784375 1.1028125 3.2784375 0.1875 3.5625 C-3.01760109 5.66870929 -3.59053825 8.5069861 -5 12 C-6.6875 13.9375 -6.6875 13.9375 -8 15 C-8.33 14.34 -8.66 13.68 -9 13 C-7.63671875 10.21484375 -7.63671875 10.21484375 -5.6875 6.9375 C-4.73423828 5.31134766 -4.73423828 5.31134766 -3.76171875 3.65234375 C-2 1 -2 1 0 0 Z " fill="#D95F64" transform="translate(187,190)"/>
<path d="M0 0 C3 1 3 1 4.02734375 2.63671875 C4.32769531 3.31347656 4.62804687 3.99023438 4.9375 4.6875 C6.20805273 7.43543963 7.52993108 9.86607783 9.3125 12.3125 C9.869375 13.199375 10.42625 14.08625 11 15 C10.67 15.99 10.34 16.98 10 18 C9.59007812 17.28972656 9.18015625 16.57945312 8.7578125 15.84765625 C8.21898437 14.92855469 7.68015625 14.00945312 7.125 13.0625 C6.32449219 11.68771484 6.32449219 11.68771484 5.5078125 10.28515625 C4.20287437 7.89299704 4.20287437 7.89299704 2 7 C2 6.01 2 5.02 2 4 C1.34 4 0.68 4 0 4 C0 2.68 0 1.36 0 0 Z " fill="#389D68" transform="translate(248,186)"/>
<path d="M0 0 C0.66 0 1.32 0 2 0 C2 0.99 2 1.98 2 3 C2.66 3 3.32 3 4 3 C4.98414433 4.91411557 5.96213349 6.8313967 6.9375 8.75 C7.48277344 9.81734375 8.02804687 10.8846875 8.58984375 11.984375 C9.71216275 14.38445885 10.50501659 16.41856752 11 19 C8.03073619 15.44608026 5.57681464 11.81482005 3.25 7.8125 C2.63640625 6.76707031 2.0228125 5.72164063 1.390625 4.64453125 C0 2 0 2 0 0 Z " fill="#299E65" transform="translate(357,374)"/>
<path d="M0 0 C1 2 1 2 0.25 5.4375 C-0.90896944 8.74056291 -1.48896009 9.81648703 -4 12 C-4.33 12.99 -4.66 13.98 -5 15 C-5.99 15 -6.98 15 -8 15 C-6.62712658 11.30123909 -4.93644547 8.0485524 -2.875 4.6875 C-2.33617187 3.80449219 -1.79734375 2.92148437 -1.2421875 2.01171875 C-0.83226562 1.34785156 -0.42234375 0.68398438 0 0 Z " fill="#D23B3A" transform="translate(228,341)"/>
<path d="M0 0 C7.59 0 15.18 0 23 0 C22.34 1.32 21.68 2.64 21 4 C20.01 3.67 19.02 3.34 18 3 C18 2.67 18 2.34 18 2 C12.06 1.67 6.12 1.34 0 1 C0 0.67 0 0.34 0 0 Z " fill="#EE5F60" transform="translate(224,191)"/>
<path d="M0 0 C0.66 0.33 1.32 0.66 2 1 C-0.97 6.61 -3.94 12.22 -7 18 C-8.09658936 14.71023192 -7.79953138 13.28696233 -7 10 C-6.34 10 -5.68 10 -5 10 C-4.34 8.02 -3.68 6.04 -3 4 C-2.34 4 -1.68 4 -1 4 C-0.67 2.68 -0.34 1.36 0 0 Z " fill="#D93033" transform="translate(158,347)"/>
<path d="M0 0 C1.125 3.75 1.125 3.75 0 6 C-0.66 6 -1.32 6 -2 6 C-2.268125 6.70125 -2.53625 7.4025 -2.8125 8.125 C-4.0681449 11.1649824 -5.50235123 14.0727774 -7 17 C-7.66 17 -8.32 17 -9 17 C-7.51481201 12.95698825 -5.57122002 9.38853744 -3.375 5.6875 C-2.74335938 4.61886719 -2.11171875 3.55023438 -1.4609375 2.44921875 C-0.97882813 1.64097656 -0.49671875 0.83273437 0 0 Z " fill="#EC0D0E" transform="translate(133,334)"/>
<path d="M0 0 C-1.04874998 2.62187494 -1.64931313 3.79371361 -4.125 5.25 C-4.74375 5.4975 -5.3625 5.745 -6 6 C-6.66 4.35 -7.32 2.7 -8 1 C-5.29120665 -0.35439668 -2.99066732 -0.06501451 0 0 Z " fill="#E86264" transform="translate(249,418)"/>
<path d="M0 0 C0 0.99 0 1.98 0 3 C-4.95 5.475 -4.95 5.475 -10 8 C-10.33 6.68 -10.66 5.36 -11 4 C-10.34 4 -9.68 4 -9 4 C-8.67 3.34 -8.34 2.68 -8 2 C-6.15234375 1.3671875 -6.15234375 1.3671875 -3.9375 0.875 C-3.20402344 0.70742187 -2.47054687 0.53984375 -1.71484375 0.3671875 C-1.14894531 0.24601563 -0.58304688 0.12484375 0 0 Z " fill="#FD4E4C" transform="translate(212,209)"/>
<path d="M0 0 C0.66 0.33 1.32 0.66 2 1 C-0.64 5.62 -3.28 10.24 -6 15 C-7 11 -7 11 -5.8125 8.625 C-4.9153125 7.325625 -4.9153125 7.325625 -4 6 C-3.278125 4.906875 -2.55625 3.81375 -1.8125 2.6875 C-1.214375 1.800625 -0.61625 0.91375 0 0 Z " fill="#D36166" transform="translate(272,375)"/>
<path d="M0 0 C1.12377697 3.30435084 0.89554742 5.0506862 -0.4375 8.25 C-0.72496094 8.95640625 -1.01242188 9.6628125 -1.30859375 10.390625 C-1.53675781 10.92171875 -1.76492187 11.4528125 -2 12 C-3.32 12 -4.64 12 -6 12 C-4.43358249 7.69235185 -2.31663844 3.93828536 0 0 Z " fill="#D96064" transform="translate(64,401)"/>
<path d="M0 0 C0.66 0 1.32 0 2 0 C3.21875 1.6796875 3.21875 1.6796875 4.5 3.875 C5.89818809 6.25362486 7.03792084 8.03792084 9 10 C8.34 11.32 7.68 12.64 7 14 C5.82807953 12.04480616 4.6626071 10.0857461 3.5 8.125 C2.8503125 7.03445313 2.200625 5.94390625 1.53125 4.8203125 C0 2 0 2 0 0 Z " fill="#27A769" transform="translate(349,360)"/>
<path d="M0 0 C0.66 0.33 1.32 0.66 2 1 C0.53181332 4.10742423 -1.20025 6.90471739 -3.125 9.75 C-3.93324219 10.94882812 -3.93324219 10.94882812 -4.7578125 12.171875 C-5.16773438 12.77515625 -5.57765625 13.3784375 -6 14 C-6.33 13.34 -6.66 12.68 -7 12 C-5.56640625 9.1796875 -5.56640625 9.1796875 -3.5625 5.875 C-2.57443359 4.23144531 -2.57443359 4.23144531 -1.56640625 2.5546875 C-1.04949219 1.71164062 -0.53257812 0.86859375 0 0 Z " fill="#F10B0E" transform="translate(163,282)"/>
<path d="M0 0 C0.66 0.99 1.32 1.98 2 3 C-0.63886654 7.2026393 -3.36440339 10.56638098 -7 14 C-5.23570801 9.02790438 -2.6060834 4.56561939 0 0 Z " fill="#F1080C" transform="translate(171,268)"/>
<path d="M0 0 C0 3 0 3 -1.375 4.5625 C-1.91125 5.036875 -2.4475 5.51125 -3 6 C-3.66 6.66 -4.32 7.32 -5 8 C-5.99 8 -6.98 8 -8 8 C-9.67099977 8.31088368 -11.33871537 8.64080332 -13 9 C-8.91266859 5.55131413 -4.56194093 2.76206846 0 0 Z " fill="#E80D0D" transform="translate(80,407)"/>
<path d="M0 0 C0.66 0 1.32 0 2 0 C4.29648649 2.5614657 5 3.47967572 5 7 C5.66 7 6.32 7 7 7 C8.25664978 9.90600261 9 11.79604584 9 15 C4.95808535 10.50898372 2.56325559 5.41015011 0 0 Z " fill="#29AA6D" transform="translate(340,345)"/>
<path d="M0 0 C0.99 0 1.98 0 3 0 C3 0.66 3 1.32 3 2 C3.99 2 4.98 2 6 2 C6 3.98 6 5.96 6 8 C5.01 8.495 5.01 8.495 4 9 C0 2.25 0 2.25 0 0 Z " fill="#71DB67" transform="translate(398,384)"/>
<path d="M0 0 C0.66 0.66 1.32 1.32 2 2 C1.02526874 3.66926454 0.04510211 5.33535642 -0.9375 7 C-1.48277344 7.928125 -2.02804688 8.85625 -2.58984375 9.8125 C-3.05519531 10.534375 -3.52054688 11.25625 -4 12 C-4.33 12 -4.66 12 -5 12 C-5 10.35 -5 8.7 -5 7 C-4.34 7 -3.68 7 -3 7 C-2.67 5.35 -2.34 3.7 -2 2 C-1.34 2 -0.68 2 0 2 C0 1.34 0 0.68 0 0 Z " fill="#EA0D10" transform="translate(238,378)"/>
<path d="M0 0 C0.66 0 1.32 0 2 0 C6 5.41176471 6 5.41176471 6 8 C6.66 8 7.32 8 8 8 C8.33 9.65 8.66 11.3 9 13 C6 12 6 12 4.39453125 9.27734375 C3.87246094 8.17519531 3.35039062 7.07304687 2.8125 5.9375 C2.28269531 4.83277344 1.75289063 3.72804688 1.20703125 2.58984375 C0.80871094 1.73519531 0.41039062 0.88054687 0 0 Z " fill="#28AB6C" transform="translate(317,305)"/>
<path d="M0 0 C0.33 0.99 0.66 1.98 1 3 C1.66 3.33 2.32 3.66 3 4 C1.8553125 4.5878125 1.8553125 4.5878125 0.6875 5.1875 C-2.24716071 7.16668978 -3.40126898 8.8866817 -5 12 C-5.33 11.34 -5.66 10.68 -6 10 C-4.78515625 7.6171875 -4.78515625 7.6171875 -3.0625 4.875 C-2.21365234 3.50988281 -2.21365234 3.50988281 -1.34765625 2.1171875 C-0.90292969 1.41851562 -0.45820313 0.71984375 0 0 Z " fill="#D46064" transform="translate(139,271)"/>
<path d="M0 0 C0.66 0.33 1.32 0.66 2 1 C1.05065487 2.67180274 0.09026687 4.33733936 -0.875 6 C-1.40867188 6.928125 -1.94234375 7.85625 -2.4921875 8.8125 C-2.98976562 9.534375 -3.48734375 10.25625 -4 11 C-4.66 11 -5.32 11 -6 11 C-5.39305845 7.84669446 -4.3583335 5.81111133 -2.4375 3.25 C-1.98246094 2.63640625 -1.52742187 2.0228125 -1.05859375 1.390625 C-0.70925781 0.93171875 -0.35992187 0.4728125 0 0 Z " fill="#FE4C4C" transform="translate(177,255)"/>
<path d="M0 0 C1 4 1 4 -0.3125 6.75 C-0.869375 7.4925 -1.42625 8.235 -2 9 C-2.66 9 -3.32 9 -4 9 C-4 9.66 -4 10.32 -4 11 C-4.66 10.67 -5.32 10.34 -6 10 C-4.02 6.7 -2.04 3.4 0 0 Z " fill="#EF0A0C" transform="translate(119,358)"/>
<path d="M0 0 C1 3 1 3 -0.14453125 5.48046875 C-0.97017578 6.82044922 -0.97017578 6.82044922 -1.8125 8.1875 C-2.35519531 9.08855469 -2.89789063 9.98960937 -3.45703125 10.91796875 C-3.96621094 11.60503906 -4.47539062 12.29210937 -5 13 C-5.66 13 -6.32 13 -7 13 C-5.54331217 10.03216871 -3.98767914 7.13584687 -2.375 4.25 C-1.92898437 3.45078125 -1.48296875 2.6515625 -1.0234375 1.828125 C-0.68570313 1.22484375 -0.34796875 0.6215625 0 0 Z " fill="#FE4F4C" transform="translate(135,327)"/>
<path d="M0 0 C2.475 0.495 2.475 0.495 5 1 C5.33 2.98 5.66 4.96 6 7 C5.01 7.495 5.01 7.495 4 8 C2.68 5.36 1.36 2.72 0 0 Z " fill="#DF605F" transform="translate(249,305)"/>
<path d="M0 0 C2.25245881 2.68841859 3.88213958 4.64641875 5 8 C4.01 8 3.02 8 2 8 C2 7.34 2 6.68 2 6 C0.35 5.67 -1.3 5.34 -3 5 C-3 4.34 -3 3.68 -3 3 C-2.01 3 -1.02 3 0 3 C0 2.01 0 1.02 0 0 Z " fill="#78BE5D" transform="translate(347,244)"/>
<path d="M0 0 C3.09592835 3.5087188 4.74194623 6.49197399 6 11 C3 10 3 10 1.3125 7.75 C-0.06511203 4.8635748 -0.26985151 3.14826764 0 0 Z " fill="#81C064" transform="translate(329,213)"/>
<path d="M0 0 C0.66 0 1.32 0 2 0 C6 6.625 6 6.625 6 10 C5.01 9.67 4.02 9.34 3 9 C2.05078125 6.93359375 2.05078125 6.93359375 1.3125 4.4375 C1.06113281 3.61121094 0.80976563 2.78492188 0.55078125 1.93359375 C0.36902344 1.29550781 0.18726563 0.65742188 0 0 Z " fill="#82C165" transform="translate(419,371)"/>
<path d="M0 0 C0.33 0 0.66 0 1 0 C1 1.65 1 3.3 1 5 C0.01 5.33 -0.98 5.66 -2 6 C-2 6.99 -2 7.98 -2 9 C-2.66 9 -3.32 9 -4 9 C-4 9.66 -4 10.32 -4 11 C-4.66 10.67 -5.32 10.34 -6 10 C-5.02526874 8.33073546 -4.04510211 6.66464358 -3.0625 5 C-2.24458984 3.6078125 -2.24458984 3.6078125 -1.41015625 2.1875 C-0.71212891 1.1046875 -0.71212891 1.1046875 0 0 Z " fill="#D15E61" transform="translate(169,219)"/>
<path d="M0 0 C1.231394 2.46278801 1.07159196 4.2795055 1 7 C0.01 7 -0.98 7 -2 7 C-2 7.66 -2 8.32 -2 9 C-2.66 9 -3.32 9 -4 9 C-4 9.66 -4 10.32 -4 11 C-4.66 10.67 -5.32 10.34 -6 10 C-4.02 6.7 -2.04 3.4 0 0 Z " fill="#B0D97D" transform="translate(245,87)"/>
<path d="M0 0 C8.35010941 2.3107221 8.35010941 2.3107221 11.0625 5.1875 C11.371875 5.785625 11.68125 6.38375 12 7 C7.39104317 5.68315519 3.85859765 3.84801255 0 1 C0 0.67 0 0.34 0 0 Z " fill="#6CDD6F" transform="translate(408,399)"/>
<path d="M0 0 C0.66 0.33 1.32 0.66 2 1 C1.0409375 2.1446875 1.0409375 2.1446875 0.0625 3.3125 C-2.14232781 5.88246713 -2.14232781 5.88246713 -3 9 C-3.99 9 -4.98 9 -6 9 C-5.34 7.02 -4.68 5.04 -4 3 C-3.01 3 -2.02 3 -1 3 C-0.67 2.01 -0.34 1.02 0 0 Z " fill="#DB5B5F" transform="translate(124,300)"/>
<path d="M0 0 C0.33 0.66 0.66 1.32 1 2 C-0.41519715 4.0343459 -1.54982123 4.90410393 -3.98046875 5.421875 C-5.98176954 5.66273952 -7.9909944 5.83532741 -10 6 C-8.75 4.4375 -8.75 4.4375 -7 3 C-4.8125 3.3125 -4.8125 3.3125 -3 4 C-3 3.01 -3 2.02 -3 1 C-2.01 0.67 -1.02 0.34 0 0 Z " fill="#FE5F5C" transform="translate(102,394)"/>
<path d="M0 0 C0.99 0.33 1.98 0.66 3 1 C3 1.99 3 2.98 3 4 C3.66 4 4.32 4 5 4 C5 4.66 5 5.32 5 6 C5.99 6.33 6.98 6.66 8 7 C6.02 7.99 6.02 7.99 4 9 C2.68 6.03 1.36 3.06 0 0 Z " fill="#EA1012" transform="translate(224,387)"/>
<path d="M0 0 C0.97533063 2.63339271 1.019574 3.92348347 0.3125 6.6875 C-1 9 -1 9 -3.125 9.8125 C-3.74375 9.874375 -4.3625 9.93625 -5 10 C-3.66511872 6.40608886 -2.03977277 3.24509304 0 0 Z " fill="#CB2B29" transform="translate(246,310)"/>
<path d="M0 0 C2.5654594 2.5654594 2.54046087 4.47686668 3 8 C1.68 8 0.36 8 -1 8 C-0.67 5.36 -0.34 2.72 0 0 Z " fill="#7ED757" transform="translate(441,410)"/>
<path d="M0 0 C-0.28127421 1.48117801 -0.57533732 2.95993249 -0.875 4.4375 C-1.03742188 5.26121094 -1.19984375 6.08492187 -1.3671875 6.93359375 C-1.68042969 7.95646484 -1.68042969 7.95646484 -2 9 C-2.99 9.495 -2.99 9.495 -4 10 C-4 7.03 -4 4.06 -4 1 C-2 0 -2 0 0 0 Z " fill="#EF0F12" transform="translate(223,234)"/>
<path d="M0 0 C4.42857143 5.14285714 4.42857143 5.14285714 5 9 C4.01 8.67 3.02 8.34 2 8 C2 7.01 2 6.02 2 5 C1.34 5 0.68 5 0 5 C0 3.35 0 1.7 0 0 Z " fill="#11B85A" transform="translate(277,176)"/>
<path d="M0 0 C0.99 0.33 1.98 0.66 3 1 C2.34 2.32 1.68 3.64 1 5 C0.34 5 -0.32 5 -1 5 C-1.33 5.99 -1.66 6.98 -2 8 C-2.66 7.67 -3.32 7.34 -4 7 C-2.68 4.69 -1.36 2.38 0 0 Z " fill="#ADD978" transform="translate(237,100)"/>
<path d="M0 0 C0 3.69418201 -1.28179295 5.77836178 -3 9 C-3.33 9 -3.66 9 -4 9 C-4.125 3.25 -4.125 3.25 -3 1 C-2.01 0.67 -1.02 0.34 0 0 Z " fill="#DF2729" transform="translate(197,281)"/>
<path d="M0 0 C3.31038651 1.65519326 3.78867011 4.65442221 5 8 C4.67 8.99 4.34 9.98 4 11 C2.35 7.7 0.7 4.4 -1 1 C-0.67 0.67 -0.34 0.34 0 0 Z " fill="#23A967" transform="translate(281,240)"/>
<path d="M0 0 C0.99 0.33 1.98 0.66 3 1 C3 1.66 3 2.32 3 3 C-0.465 4.485 -0.465 4.485 -4 6 C-4.33 5.01 -4.66 4.02 -5 3 C-3.35 2.67 -1.7 2.34 0 2 C0 1.34 0 0.68 0 0 Z " fill="#FE4E4D" transform="translate(222,202)"/>
<path d="M0 0 C0.66 0.33 1.32 0.66 2 1 C2 2.65 2 4.3 2 6 C0.35 6 -1.3 6 -3 6 C-2.01 4.02 -1.02 2.04 0 0 Z " fill="#B2DB89" transform="translate(250,78)"/>
<path d="M0 0 C0.33 0.66 0.66 1.32 1 2 C0.22265625 3.7265625 0.22265625 3.7265625 -0.9375 5.625 C-1.618125 6.73875 -2.29875 7.8525 -3 9 C-3.66 8.67 -4.32 8.34 -5 8 C-4.64950425 4.75791433 -4.43778819 3.38472296 -1.9375 1.1875 C-1.298125 0.795625 -0.65875 0.40375 0 0 Z " fill="#FD4D4B" transform="translate(127,342)"/>
<path d="M0 0 C1.875 0.25 1.875 0.25 4 1 C5.25 3.0625 5.25 3.0625 6 5 C5.01 5.495 5.01 5.495 4 6 C3.67 5.34 3.34 4.68 3 4 C1.68 4 0.36 4 -1 4 C-0.67 2.68 -0.34 1.36 0 0 Z " fill="#7FC75F" transform="translate(323,207)"/>
<path d="M0 0 C1.32 0 2.64 0 4 0 C4 1.65 4 3.3 4 5 C2.68 4.67 1.36 4.34 0 4 C0 2.66666667 0 1.33333333 0 0 Z " fill="#F3494B" transform="translate(95,393)"/>
<path d="M0 0 C2.96865509 2.54456151 4.3619751 5.48994665 6 9 C2.96101874 7.98700625 1.87860833 7.5048111 0 5 C-0.1875 2.3125 -0.1875 2.3125 0 0 Z " fill="#7CB461" transform="translate(353,255)"/>
<path d="M0 0 C2.72426311 2.35277269 3.8141763 4.62496331 5 8 C4.01 8.33 3.02 8.66 2 9 C2 7.35 2 5.7 2 4 C1.34 4 0.68 4 0 4 C0 2.68 0 1.36 0 0 Z " fill="#13B959" transform="translate(290,199)"/>
<path d="M0 0 C1.875 0.125 1.875 0.125 4 1 C5.25 4.0625 5.25 4.0625 6 7 C3 6 3 6 1.3125 2.9375 C0.879375 1.968125 0.44625 0.99875 0 0 Z " fill="#6EDD69" transform="translate(266,156)"/>
<path d="M0 0 C2.97 0.495 2.97 0.495 6 1 C6.33 2.32 6.66 3.64 7 5 C4.0625 4.1875 4.0625 4.1875 1 3 C0.67 2.01 0.34 1.02 0 0 Z " fill="#19B468" transform="translate(382,418)"/>
<path d="M0 0 C0.33 0.66 0.66 1.32 1 2 C0.22265625 3.7265625 0.22265625 3.7265625 -0.9375 5.625 C-1.618125 6.73875 -2.29875 7.8525 -3 9 C-3.33 9 -3.66 9 -4 9 C-4 7.02 -4 5.04 -4 3 C-3.01 3 -2.02 3 -1 3 C-0.67 2.01 -0.34 1.02 0 0 Z " fill="#DB6465" transform="translate(257,402)"/>
<path d="M0 0 C0.66 0.99 1.32 1.98 2 3 C1.01 3.33 0.02 3.66 -1 4 C-1.33 5.65 -1.66 7.3 -2 9 C-2.66 9 -3.32 9 -4 9 C-2.94124926 5.59687262 -1.99097846 2.98646769 0 0 Z " fill="#F00E0F" transform="translate(109,375)"/>
<path d="M0 0 C1.0625 1.8125 1.0625 1.8125 2 4 C1.67 4.99 1.34 5.98 1 7 C0.01 7 -0.98 7 -2 7 C-2 5.35 -2 3.7 -2 2 C-1.34 2 -0.68 2 0 2 C0 1.34 0 0.68 0 0 Z " fill="#E2575C" transform="translate(274,368)"/>
<path d="M0 0 C0.66 0 1.32 0 2 0 C0.7508258 3.45925163 -0.67527795 6.14693203 -3 9 C-3.25532751 5.93606987 -3.21861333 4.36766788 -1.625 1.6875 C-0.820625 0.8521875 -0.820625 0.8521875 0 0 Z " fill="#FD4A49" transform="translate(146,308)"/>
<path d="M0 0 C1.65 0 3.3 0 5 0 C3.92598892 2.91517292 3.22189824 4.77810176 1 7 C0.67 4.69 0.34 2.38 0 0 Z " fill="#DA2E2F" transform="translate(188,290)"/>
<path d="M0 0 C0.66 0 1.32 0 2 0 C1.40072174 3.35595828 0.15377564 5.37801226 -2 8 C-2 6.02 -2 4.04 -2 2 C-1.34 2 -0.68 2 0 2 C0 1.34 0 0.68 0 0 Z " fill="#CD2B2D" transform="translate(209,258)"/>
<path d="M0 0 C0.66 0.33 1.32 0.66 2 1 C2 1.66 2 2.32 2 3 C1.401875 3.268125 0.80375 3.53625 0.1875 3.8125 C-1.97224808 4.98493467 -3.35790256 6.19369282 -5 8 C-3.8141763 4.62496331 -2.72426311 2.35277269 0 0 Z " fill="#CA6568" transform="translate(187,190)"/>
</svg>
