<?xml version="1.0" encoding="UTF-8"?>
<svg version="1.1" xmlns="http://www.w3.org/2000/svg" width="500" height="500">
<path d="M0 0 C0.66 0 1.32 0 2 0 C3.62518029 2.84406551 5.25035209 5.68813586 6.87548828 8.53222656 C8.31117641 11.04470171 9.74707343 13.55705734 11.18310547 16.06933594 C14.83637162 22.46097792 18.48761763 28.85375107 22.1328125 35.25 C28.9585828 47.22342428 35.82494668 59.17116824 42.78393555 71.06787109 C48.9381924 81.59138012 55.02388179 92.15411703 61.10888672 102.71777344 C64.23680149 108.14659944 67.36860767 113.57317941 70.5 119 C71.74089474 121.15103629 72.98178014 123.30207797 74.22265625 125.453125 C76.47849753 129.36332836 78.73468212 133.27333258 80.99214172 137.18260193 C81.98911109 138.90977805 82.98491617 140.63762605 83.98071289 142.36547852 C85.26897339 144.59369502 86.56357783 146.81825769 87.86499023 149.03881836 C90.48832497 153.53016449 93.05912617 157.97572682 95.2265625 162.70703125 C96.83658921 166.15601815 98.35383631 169.20359625 101 172 C104.59888342 173.04556089 107.60282555 173.12717114 111.34375 173.03125 C121.82880252 172.94163417 130.73265973 178.01471895 139 184 C140.60875 185.1446875 140.60875 185.1446875 142.25 186.3125 C153.66084409 197.46400672 158.87925582 211.47657516 159.11328125 227.20703125 C159.14245254 232.13959101 159.08771917 237.06823316 159 242 C159.93457031 242.28101563 160.86914062 242.56203125 161.83203125 242.8515625 C166.90188118 244.68946124 170.05501509 248.58252263 173 253 C174.3372446 257.01173379 173.91979458 260.766924 173.75390625 264.93359375 C173.12726826 289.03027953 174.68316402 305.46463324 189.01953125 325.21630859 C191.82933275 329.16568689 194.17411159 333.31667503 196.5 337.5625 C196.86673828 338.19446289 197.23347656 338.82642578 197.61132812 339.47753906 C199.18833218 342.22867436 200 343.76734403 200 347 C171.99012024 347.04127294 143.98027565 347.000811 115.97092628 346.81609344 C109.84852308 346.77611541 103.72627916 346.74410346 97.60375977 346.72900391 C91.56100956 346.7138656 85.51864893 346.6795574 79.47607231 346.63169098 C77.20240075 346.61694514 74.92867413 346.60896293 72.65495491 346.60811615 C69.50399535 346.6057507 66.35413818 346.57873578 63.20336914 346.54589844 C61.82359894 346.55344398 61.82359894 346.55344398 60.41595459 346.56114197 C53.53353969 346.45023433 48.27676273 344.77069899 42.9765625 340.2890625 C42.30753906 339.46535156 42.30753906 339.46535156 41.625 338.625 C41.16351563 338.08101563 40.70203125 337.53703125 40.2265625 336.9765625 C37.26862721 332.2099534 36.74641327 327.53595431 36.7253418 322.02001953 C36.72023087 321.34924377 36.71511993 320.67846802 36.70985413 319.98736572 C36.69603603 317.78575538 36.69690911 315.58446087 36.69921875 313.3828125 C36.69532722 311.8411345 36.69099161 310.29945756 36.68623352 308.75778198 C36.67878781 305.53168253 36.67905035 302.30569255 36.68432617 299.07958984 C36.69011528 294.96181089 36.6731956 290.84448255 36.6499815 286.72677803 C36.63519089 283.54386816 36.63437973 280.36106544 36.63749123 277.17812729 C36.63698058 275.66079695 36.63179133 274.14346021 36.62167931 272.62616348 C36.51538359 254.4454204 36.51538359 254.4454204 42.75 247.125 C43.19859375 246.57070313 43.6471875 246.01640625 44.109375 245.4453125 C46.82568811 243.36879215 49.71370504 242.80210517 53 242 C52.98952637 241.28980713 52.97905273 240.57961426 52.96826172 239.84790039 C52.92632514 236.58613721 52.90055514 233.32443104 52.875 230.0625 C52.85824219 228.94552734 52.84148437 227.82855469 52.82421875 226.67773438 C52.79450409 221.61138459 52.82015855 217.12038102 54.2890625 212.25 C55.42569761 207.76115938 54.23516704 205.25080268 51.97753906 201.31982422 C51.48995117 200.53365723 51.00236328 199.74749023 50.5 198.9375 C49.99952148 198.08172363 49.49904297 197.22594727 48.98339844 196.34423828 C47.90329077 194.5028898 46.81140154 192.66841114 45.70898438 190.84033203 C44.00113303 188.0018831 42.33128392 185.14434714 40.671875 182.27734375 C38.35205789 178.27135865 36.01975619 174.27314883 33.67578125 170.28125 C29.26211195 162.75475751 24.91721786 155.18898975 20.5690918 147.62451172 C17.4686355 142.24158839 14.34338685 136.87584354 11.1640625 131.5390625 C10.55763916 130.52086426 9.95121582 129.50266602 9.32641602 128.45361328 C8.17469031 126.52509044 7.01909656 124.59887089 5.85913086 122.67529297 C5.35003174 121.82338379 4.84093262 120.97147461 4.31640625 120.09375 C3.86724854 119.34802734 3.41809082 118.60230469 2.95532227 117.83398438 C2 116 2 116 2 114 C-0.81784037 116.5083512 -2.45723723 119.29922938 -4.30078125 122.57421875 C-4.94080078 123.70408203 -5.58082031 124.83394531 -6.24023438 125.99804688 C-6.57756592 126.59866943 -6.91489746 127.19929199 -7.26245117 127.81811523 C-9.05714011 131.01317062 -10.86774975 134.19920137 -12.67578125 137.38671875 C-13.22529953 138.35712601 -13.22529953 138.35712601 -13.78591919 139.34713745 C-17.13858954 145.26203235 -20.56011988 151.13542511 -24 157 C-29.05700509 165.63456335 -34.04607536 174.30607046 -39 183 C-44.53985933 192.72124506 -50.13374932 202.40894868 -55.78344727 212.06689453 C-61.92905044 222.57611088 -68.00613649 233.12448664 -74.08251953 243.67382812 C-76.04066327 247.07053685 -78.00226927 250.46522458 -79.96484375 253.859375 C-80.61976807 254.99262207 -81.27469238 256.12586914 -81.94946289 257.29345703 C-83.17844256 259.41982403 -84.40803472 261.54583722 -85.63842773 263.67138672 C-90.49451214 272.07780992 -95.23933825 280.53660133 -100 289 C-79.21 289 -58.42 289 -37 289 C-34.64875 284.875 -32.2975 280.75 -29.875 276.5 C-22.8652696 264.21980105 -15.79790856 251.97462607 -8.62451172 239.7890625 C-7.43782027 237.75167701 -6.27015761 235.70317418 -5.11376953 233.6484375 C-4.48970215 232.54757812 -3.86563477 231.44671875 -3.22265625 230.3125 C-2.37006226 228.79076172 -2.37006226 228.79076172 -1.50024414 227.23828125 C-1.00516357 226.49964844 -0.51008301 225.76101563 0 225 C0.66 225 1.32 225 2 225 C2.41137207 225.72251953 2.82274414 226.44503906 3.24658203 227.18945312 C4.84350021 229.9928038 6.44154459 232.79550911 8.04025269 235.59783936 C8.76244774 236.86424581 9.48423034 238.13088757 10.20559692 239.39776611 C14.13305653 246.29433371 18.0840403 253.17290812 22.14453125 259.9921875 C22.78438965 261.07048828 23.42424805 262.14878906 24.08349609 263.25976562 C25.29596494 265.29704537 26.51604912 267.32981709 27.74462891 269.35742188 C28.2916748 270.27845703 28.8387207 271.19949219 29.40234375 272.1484375 C29.88179443 272.94427246 30.36124512 273.74010742 30.85522461 274.56005859 C32.19775252 277.42148404 32.73757388 279.85300289 33 283 C31.80566054 285.59639013 30.60449886 287.74996391 29.0625 290.125 C28.132591 291.6271607 27.20573293 293.13121258 26.28125 294.63671875 C25.76175781 295.47638184 25.24226562 296.31604492 24.70703125 297.18115234 C21.73083283 302.09579579 18.92607573 307.10893258 16.09796143 312.10964966 C11.05028955 321.02006248 5.96048876 329.90824085 0.6875 338.6875 C0.24994385 339.4292749 -0.1876123 340.1710498 -0.63842773 340.93530273 C-3.64723415 345.88241138 -3.64723415 345.88241138 -7 347 C-9.54659927 347.09348084 -12.06537063 347.13035419 -14.61186218 347.12025452 C-15.39438396 347.12110894 -16.17690573 347.12196337 -16.98314029 347.12284368 C-19.61337635 347.12449488 -22.24354908 347.11898298 -24.8737793 347.11352539 C-26.75597126 347.11324342 -28.63816333 347.11340146 -30.52035522 347.1139679 C-35.63779255 347.11425547 -40.75520657 347.10836522 -45.87263846 347.10139394 C-51.21781023 347.09515371 -56.5629825 347.09455607 -61.90815735 347.09336853 C-72.03348766 347.0902572 -82.15880721 347.08204646 -92.28413278 347.07201904 C-103.80997919 347.06085178 -115.3358261 347.05534591 -126.86167657 347.05032361 C-150.57445702 347.03986369 -174.28722791 347.02226806 -198 347 C-197.2175587 342.51225919 -195.59097166 339.0917379 -193.3125 335.1875 C-192.91877197 334.50010742 -192.52504395 333.81271484 -192.11938477 333.10449219 C-190.75538667 330.73092273 -189.37912655 328.36480998 -188 326 C-187.49243164 325.12875488 -186.98486328 324.25750977 -186.46191406 323.35986328 C-184.19348957 319.4688756 -181.92284193 315.5792058 -179.64770508 311.69213867 C-175.04691888 303.82383539 -170.51175024 295.91950811 -166 288 C-160.48754443 278.32508471 -154.91575293 268.68717624 -149.2890625 259.078125 C-144.80833854 251.4142623 -140.39493248 243.71321165 -136 236 C-130.48736165 226.32518781 -124.91575433 216.68717863 -119.2890625 207.078125 C-114.4628766 198.8233817 -109.71725116 190.52393872 -104.98352051 182.21603394 C-99.71977088 172.98038749 -94.39304732 163.78325279 -89.02099609 154.61010742 C-84.70683335 147.23589902 -80.45423725 139.82828731 -76.25683594 132.38696289 C-75.38072348 130.84229699 -74.48800758 129.30689725 -73.57675171 127.78269958 C-71.92544319 124.95905301 -71.92544319 124.95905301 -70.4850769 121.71069336 C-65.91895598 112.68763492 -65.91895598 112.68763492 -60.81192017 110.85758972 C-56.90817556 110.49554769 -53.12345384 110.53370389 -49.21875 110.73046875 C-47.79537399 110.75475421 -46.37188836 110.77324099 -44.94836426 110.78620911 C-41.22336151 110.83556371 -37.50508182 110.96293797 -33.78271484 111.10736084 C-29.97586052 111.24100789 -26.16790513 111.29985621 -22.359375 111.36523438 C-14.90320299 111.50414511 -7.4525475 111.72559822 0 112 C-12.70402394 89.70542692 -12.70402394 89.70542692 -25.65673828 67.5546875 C-26.20056152 66.63042969 -26.74438477 65.70617187 -27.3046875 64.75390625 C-27.77890137 63.95283447 -28.25311523 63.1517627 -28.74169922 62.32641602 C-31.29881137 57.59868576 -31.29881137 57.59868576 -32 55 C-31.13232422 52.5625 -31.13232422 52.5625 -29.5546875 50 C-28.97783203 49.0404541 -28.40097656 48.0809082 -27.80664062 47.09228516 C-27.16919922 46.07183105 -26.53175781 45.05137695 -25.875 44 C-24.56923126 41.84179965 -23.26456443 39.68293226 -21.9609375 37.5234375 C-20.96465332 35.89100098 -20.96465332 35.89100098 -19.94824219 34.22558594 C-17.03999993 29.41058635 -14.26743329 24.52184677 -11.5 19.625 C-9.67804201 16.41000199 -7.84459481 13.20206071 -6 10 C-5.47019531 9.06897461 -4.94039062 8.13794922 -4.39453125 7.17871094 C-3.59595703 5.80247559 -3.59595703 5.80247559 -2.78125 4.3984375 C-2.05518555 3.13652588 -2.05518555 3.13652588 -1.31445312 1.84912109 C-0.88068359 1.23891113 -0.44691406 0.62870117 0 0 Z M115 196 C116.4123029 199.75261736 118.12130119 203.18013771 120.08203125 206.67578125 C120.68466797 207.75150391 121.28730469 208.82722656 121.90820312 209.93554688 C122.53662109 211.04994141 123.16503906 212.16433594 123.8125 213.3125 C124.42931641 214.41529297 125.04613281 215.51808594 125.68164062 216.65429688 C128.98174991 222.52856154 132.29161775 228.37230716 136 234 C136.33 234 136.66 234 137 234 C137.54764097 222.59081314 137.16133929 213.73210624 129.625 204.625 C125.38755067 200.14308244 121.29256461 196.74030172 115 196 Z " fill="#FBAB33" transform="translate(249,77)"/>
<path d="M0 0 C0.99 1.485 0.99 1.485 2 3 C1.57307861 3.38003174 1.14615723 3.76006348 0.70629883 4.15161133 C-1.40885045 6.44289695 -2.77040081 8.85555316 -4.30078125 11.57421875 C-5.26081055 13.26901367 -5.26081055 13.26901367 -6.24023438 14.99804688 C-6.57756592 15.59866943 -6.91489746 16.19929199 -7.26245117 16.81811523 C-9.05714011 20.01317062 -10.86774975 23.19920137 -12.67578125 26.38671875 C-13.22529953 27.35712601 -13.22529953 27.35712601 -13.78591919 28.34713745 C-17.13858954 34.26203235 -20.56011988 40.13542511 -24 46 C-29.05700509 54.63456335 -34.04607536 63.30607046 -39 72 C-44.53985933 81.72124506 -50.13374932 91.40894868 -55.78344727 101.06689453 C-61.92905044 111.57611088 -68.00613649 122.12448664 -74.08251953 132.67382812 C-76.04066327 136.07053685 -78.00226927 139.46522458 -79.96484375 142.859375 C-80.61976807 143.99262207 -81.27469238 145.12586914 -81.94946289 146.29345703 C-83.17844256 148.41982403 -84.40803472 150.54583722 -85.63842773 152.67138672 C-90.49451214 161.07780992 -95.23933825 169.53660133 -100 178 C-79.21 178 -58.42 178 -37 178 C-34.64875 173.875 -32.2975 169.75 -29.875 165.5 C-22.8652696 153.21980105 -15.79790856 140.97462607 -8.62451172 128.7890625 C-7.43782027 126.75167701 -6.27015761 124.70317418 -5.11376953 122.6484375 C-4.48970215 121.54757812 -3.86563477 120.44671875 -3.22265625 119.3125 C-2.37006226 117.79076172 -2.37006226 117.79076172 -1.50024414 116.23828125 C-1.00516357 115.49964844 -0.51008301 114.76101563 0 114 C0.66 114 1.32 114 2 114 C2.61705811 115.0837793 2.61705811 115.0837793 3.24658203 116.18945312 C4.84350021 118.9928038 6.44154459 121.79550911 8.04025269 124.59783936 C8.76244774 125.86424581 9.48423034 127.13088757 10.20559692 128.39776611 C14.13305653 135.29433371 18.0840403 142.17290812 22.14453125 148.9921875 C22.78438965 150.07048828 23.42424805 151.14878906 24.08349609 152.25976562 C25.29596494 154.29704537 26.51604912 156.32981709 27.74462891 158.35742188 C28.2916748 159.27845703 28.8387207 160.19949219 29.40234375 161.1484375 C29.88179443 161.94427246 30.36124512 162.74010742 30.85522461 163.56005859 C32.19775252 166.42148404 32.73757388 168.85300289 33 172 C31.80566054 174.59639013 30.60449886 176.74996391 29.0625 179.125 C28.132591 180.6271607 27.20573293 182.13121258 26.28125 183.63671875 C25.76175781 184.47638184 25.24226562 185.31604492 24.70703125 186.18115234 C21.73083283 191.09579579 18.92607573 196.10893258 16.09796143 201.10964966 C11.05028955 210.02006248 5.96048876 218.90824085 0.6875 227.6875 C0.24994385 228.4292749 -0.1876123 229.1710498 -0.63842773 229.93530273 C-3.64723415 234.88241138 -3.64723415 234.88241138 -7 236 C-9.54659927 236.09348084 -12.06537063 236.13035419 -14.61186218 236.12025452 C-15.39438396 236.12110894 -16.17690573 236.12196337 -16.98314029 236.12284368 C-19.61337635 236.12449488 -22.24354908 236.11898298 -24.8737793 236.11352539 C-26.75597126 236.11324342 -28.63816333 236.11340146 -30.52035522 236.1139679 C-35.63779255 236.11425547 -40.75520657 236.10836522 -45.87263846 236.10139394 C-51.21781023 236.09515371 -56.5629825 236.09455607 -61.90815735 236.09336853 C-72.03348766 236.0902572 -82.15880721 236.08204646 -92.28413278 236.07201904 C-103.80997919 236.06085178 -115.3358261 236.05534591 -126.86167657 236.05032361 C-150.57445702 236.03986369 -174.28722791 236.02226806 -198 236 C-197.2175587 231.51225919 -195.59097166 228.0917379 -193.3125 224.1875 C-192.91877197 223.50010742 -192.52504395 222.81271484 -192.11938477 222.10449219 C-190.75538667 219.73092273 -189.37912655 217.36480998 -188 215 C-187.49243164 214.12875488 -186.98486328 213.25750977 -186.46191406 212.35986328 C-184.19348957 208.4688756 -181.92284193 204.5792058 -179.64770508 200.69213867 C-175.04691888 192.82383539 -170.51175024 184.91950811 -166 177 C-160.48754443 167.32508471 -154.91575293 157.68717624 -149.2890625 148.078125 C-144.80833854 140.4142623 -140.39493248 132.71321165 -136 125 C-130.48736165 115.32518781 -124.91575433 105.68717863 -119.2890625 96.078125 C-114.4628766 87.8233817 -109.71725116 79.52393872 -104.98352051 71.21603394 C-99.71977088 61.98038749 -94.39304732 52.78325279 -89.02099609 43.61010742 C-84.70683335 36.23589902 -80.45423725 28.82828731 -76.25683594 21.38696289 C-75.38056619 19.84201967 -74.48792792 18.30621394 -73.57702637 16.78143311 C-71.92693893 13.95990343 -71.92693893 13.95990343 -70.48260498 10.72209167 C-65.91235021 1.72402799 -65.91235021 1.72402799 -60.82565308 -0.201828 C-56.94833341 -0.6499286 -53.18005721 -0.70188945 -49.2890625 -0.59375 C-47.87036092 -0.59956758 -46.45167214 -0.61068316 -45.03305054 -0.62683105 C-42.07460742 -0.6477339 -39.1205983 -0.62736097 -36.16259766 -0.57275391 C-32.36828081 -0.50286775 -28.57821376 -0.50271318 -24.7834568 -0.52880096 C-21.16023782 -0.55163287 -17.53730702 -0.54399525 -13.9140625 -0.53125 C-13.22284931 -0.53062057 -12.53163612 -0.52999115 -11.81947708 -0.52934265 C-9.87121012 -0.52125591 -7.92309005 -0.48877063 -5.97509766 -0.45507812 C-4.86671539 -0.44029419 -3.75833313 -0.42551025 -2.61636353 -0.41027832 C-1.75296356 -0.27488647 -0.8895636 -0.13949463 0 0 Z " fill="#FC3232" transform="translate(249,188)"/>
<path d="M0 0 C0.66 0 1.32 0 2 0 C3.62518029 2.84406551 5.25035209 5.68813586 6.87548828 8.53222656 C8.31117641 11.04470171 9.74707343 13.55705734 11.18310547 16.06933594 C14.83637162 22.46097792 18.48761763 28.85375107 22.1328125 35.25 C28.9585828 47.22342428 35.82494668 59.17116824 42.78393555 71.06787109 C48.9381924 81.59138012 55.02388179 92.15411703 61.10888672 102.71777344 C64.23680149 108.14659944 67.36860767 113.57317941 70.5 119 C71.74089474 121.15103629 72.98178014 123.30207797 74.22265625 125.453125 C76.81301183 129.94316478 79.40426847 134.43268348 81.99609375 138.921875 C85.12959221 144.34960383 88.26107913 149.77848732 91.390625 155.20849609 C92.40296318 156.96442369 93.4158973 158.72000799 94.4296875 160.47509766 C95.60096113 162.50308696 96.76973124 164.53249124 97.9375 166.5625 C98.54464844 167.61566406 99.15179688 168.66882813 99.77734375 169.75390625 C101 172 101 172 101 173 C97.04 173.33 93.08 173.66 89 174 C89 174.66 89 175.32 89 176 C88.02160156 176.34611328 88.02160156 176.34611328 87.0234375 176.69921875 C81.39703636 178.79874602 77.4474948 180.99725468 73 185 C72.34 185 71.68 185 71 185 C71 185.66 71 186.32 71 187 C69.3563186 188.68933922 67.6857124 190.35259924 66 192 C61.68913052 196.7280504 58.95625501 202.3732613 56 208 C53.60010881 204.94452437 51.64915458 201.77716816 49.734375 198.3984375 C49.09943115 197.28194824 48.4644873 196.16545898 47.81030273 195.01513672 C47.47505585 194.42279236 47.13980896 193.830448 46.79440308 193.22015381 C44.99995386 190.04988854 43.19638519 186.88481047 41.39453125 183.71875 C41.02614639 183.07082489 40.65776154 182.42289978 40.2782135 181.75534058 C36.6902317 175.44710745 33.06800688 169.15884772 29.4375 162.875 C28.83010986 161.8228833 28.22271973 160.7707666 27.59692383 159.68676758 C24.72112773 154.70648936 21.84277327 149.72769836 18.96177673 144.75042725 C17.94355813 142.99093725 16.92590854 141.23111943 15.90844727 139.47119141 C14.63926595 137.27618217 13.36900563 135.08179629 12.09741211 132.88818359 C9.31839054 128.0805805 6.58056937 123.25883008 3.9375 118.375 C1.1057353 113.15047127 -1.88986128 108.03835561 -4.9375 102.9375 C-10.67614312 93.28599241 -16.30525764 83.57490032 -21.88647461 73.83178711 C-22.48081299 72.79675049 -23.07515137 71.76171387 -23.6875 70.6953125 C-24.52667969 69.22433105 -24.52667969 69.22433105 -25.3828125 67.72363281 C-26.84998727 65.25264825 -28.42842579 62.91636638 -30.0625 60.5546875 C-32.06413109 57.36433096 -32.06413109 57.36433096 -31.546875 54.42578125 C-31.03640625 53.62527344 -30.5259375 52.82476562 -30 52 C-29.44828125 50.96230469 -28.8965625 49.92460938 -28.328125 48.85546875 C-27.63915224 47.6307036 -26.9461545 46.40819736 -26.25 45.1875 C-25.86730957 44.51170898 -25.48461914 43.83591797 -25.09033203 43.13964844 C-19.72547619 33.70468593 -14.24035551 24.33729073 -8.73730469 14.98242188 C-7.50272722 12.86302919 -6.28648803 10.73290743 -5.08300781 8.59570312 C-4.46006836 7.49677734 -3.83712891 6.39785156 -3.1953125 5.265625 C-2.63086426 4.25790039 -2.06641602 3.25017578 -1.48486328 2.21191406 C-0.9948584 1.48198242 -0.50485352 0.75205078 0 0 Z " fill="#7CD757" transform="translate(249,77)"/>
<path d="M0 0 C0.99 1.485 0.99 1.485 2 3 C1.31035156 3.23074219 0.62070313 3.46148437 -0.08984375 3.69921875 C-7.51493013 6.27610058 -14.10647453 9.46468109 -20.6875 13.75 C-23.4416406 15.23872465 -25.90829951 15.64049994 -29 16 C-29 16.66 -29 17.32 -29 18 C-30.0725 18.53625 -31.145 19.0725 -32.25 19.625 C-32.97445312 19.99496094 -33.69890625 20.36492187 -34.4453125 20.74609375 C-36.2707445 21.64206267 -38.12377363 22.48266518 -39.9921875 23.28515625 C-48.90960502 27.27686808 -52.69733072 31.62710501 -56.5 40.5 C-58.13092843 44.30549967 -60.22967327 47.38283462 -62.5703125 50.77734375 C-64.47546378 53.7391773 -65.74264611 56.71690927 -67 60 C-67.66 60 -68.32 60 -69 60 C-69.24878906 60.85722656 -69.49757812 61.71445313 -69.75390625 62.59765625 C-71.09361218 66.25559939 -72.8289992 69.16677157 -74.9375 72.4375 C-77.7944463 76.87511191 -80.01914046 81.13358985 -82 86 C-82.33 86.66 -82.66 87.32 -83 88 C-83.66 88 -84.32 88 -85 88 C-85.4021875 89.299375 -85.4021875 89.299375 -85.8125 90.625 C-86.97111987 93.91791964 -88.38209839 96.91127875 -90 100 C-90.66 100 -91.32 100 -92 100 C-92.226875 100.845625 -92.45375 101.69125 -92.6875 102.5625 C-93.99450008 105.98559544 -95.53151069 108.25034759 -97.69921875 111.140625 C-100.45743893 115.0833061 -102.409212 119.4573869 -104.125 123.9375 C-105 126 -105 126 -107 127 C-108.06011943 128.96879323 -109.04276983 130.97918076 -110 133 C-112.78530549 138.86903656 -115.77926986 144.29976541 -119.4609375 149.65234375 C-122.26796521 153.93412967 -124.59751777 158.48307156 -127 163 C-129.51776971 167.69675694 -132.10909129 172.22741883 -135.125 176.625 C-137.62828824 180.2960593 -139.41270693 183.85540142 -141 188 C-141.66 188 -142.32 188 -143 188 C-143.15855469 188.65226563 -143.31710938 189.30453125 -143.48046875 189.9765625 C-145.0773426 195.95822257 -146.79859496 199.49117508 -151 204 C-151.74837679 205.11231345 -152.4783911 206.23725064 -153.1875 207.375 C-153.785625 208.24125 -154.38375 209.1075 -155 210 C-155.66 210 -156.32 210 -157 210 C-157 210.66 -157 211.32 -157 212 C-158.62249941 212.83819158 -160.24808497 213.6704116 -161.875 214.5 C-162.77992188 214.9640625 -163.68484375 215.428125 -164.6171875 215.90625 C-167 217 -167 217 -169 217 C-169 217.66 -169 218.32 -169 219 C-170.62249941 219.83819158 -172.24808497 220.6704116 -173.875 221.5 C-174.77992188 221.9640625 -175.68484375 222.428125 -176.6171875 222.90625 C-179 224 -179 224 -181 224 C-181 224.66 -181 225.32 -181 226 C-183.12232979 227.17176518 -185.24757791 228.33754785 -187.375 229.5 C-187.97828125 229.83386719 -188.5815625 230.16773438 -189.203125 230.51171875 C-193.7734375 233 -193.7734375 233 -196 233 C-196 233.66 -196 234.32 -196 235 C-196.66 235 -197.32 235 -198 235 C-196.7423893 230.89102713 -195.22023808 227.34593014 -193.05078125 223.640625 C-192.16132813 222.11115234 -192.16132813 222.11115234 -191.25390625 220.55078125 C-190.29291016 218.91689453 -190.29291016 218.91689453 -189.3125 217.25 C-188.63743361 216.09279028 -187.96296538 214.93523143 -187.2890625 213.77734375 C-185.88984195 211.37429418 -184.48807065 208.9727608 -183.08447266 206.57226562 C-179.86550635 201.06213188 -176.68480155 195.52992383 -173.5 190 C-172.25017876 187.83323021 -171.0001782 185.66656385 -169.75 183.5 C-169.13125 182.4275 -168.5125 181.355 -167.875 180.25 C-132.25 118.5 -132.25 118.5 -130.37426758 115.2487793 C-129.1266526 113.08621417 -127.87909384 110.92361661 -126.6315918 108.76098633 C-123.47056551 103.28129629 -120.30850691 97.80220642 -117.14453125 92.32421875 C-111.3869182 82.3535219 -105.6376723 72.37866415 -99.9375 62.375 C-95.09385137 53.87598292 -90.17406767 45.4229685 -85.23266602 36.98046875 C-80.73022225 29.27880489 -76.29214812 21.54207619 -71.90625 13.7734375 C-71.44992188 12.9690625 -70.99359375 12.1646875 -70.5234375 11.3359375 C-70.13075684 10.64032715 -69.73807617 9.9447168 -69.33349609 9.22802734 C-68.89344238 8.49277832 -68.45338867 7.7575293 -68 7 C-67.37496582 5.40901489 -67.37496582 5.40901489 -66.73730469 3.78588867 C-62.77000376 -0.25182725 -59.34509609 0.21713683 -53.84030151 0.09080505 C-52.45343085 0.08940301 -51.06655868 0.08910895 -49.6796875 0.08984375 C-48.25526967 0.0709689 -46.8308793 0.04990577 -45.40652466 0.02674866 C-42.42564708 -0.01547132 -39.44552001 -0.03773693 -36.46435547 -0.04467773 C-32.63902392 -0.05425992 -28.81549588 -0.10340122 -24.99070549 -0.16611576 C-22.05176308 -0.21169855 -19.1128361 -0.24155506 -16.17364883 -0.26608086 C-14.76297336 -0.27878009 -13.35232641 -0.2952048 -11.94173813 -0.31538582 C-9.97414969 -0.34016108 -8.00631815 -0.34262695 -6.03857422 -0.34399414 C-4.35790359 -0.35348839 -4.35790359 -0.35348839 -2.64328003 -0.36317444 C-1.77099762 -0.24332687 -0.89871521 -0.12347931 0 0 Z " fill="#FC5656" transform="translate(249,188)"/>
<path d="M0 0 C2.54683649 -0.35950243 4.02506316 -0.39934934 6.421875 0.55078125 C9.00884197 3.48717267 10.59146831 6.86177308 12.30810547 10.35839844 C14.61887156 14.90699105 17.20935602 19.30633365 19.734375 23.73828125 C20.87254512 25.75642623 22.01056664 27.77465502 23.1484375 29.79296875 C25.91677143 34.68138643 28.74213298 39.53237118 31.609375 44.36328125 C34.89254908 49.89663233 38.06995244 55.47638021 41.171875 61.11328125 C45.67908543 69.29872785 50.36989381 77.37000869 55.09521484 85.43115234 C59.55053592 93.03682283 63.93044065 100.68256396 68.27783203 108.3503418 C71.71946839 114.39460573 75.32113123 120.30938541 79.09375 126.15234375 C80.421875 128.55078125 80.421875 128.55078125 80.421875 131.55078125 C78.771875 132.21078125 77.121875 132.87078125 75.421875 133.55078125 C75.421875 134.21078125 75.421875 134.87078125 75.421875 135.55078125 C73.7781936 137.24012047 72.1075874 138.90338049 70.421875 140.55078125 C66.11100552 145.27883165 63.37813001 150.92404255 60.421875 156.55078125 C58.02198381 153.49530562 56.07102958 150.32794941 54.15625 146.94921875 C53.52130615 145.83272949 52.8863623 144.71624023 52.23217773 143.56591797 C51.89693085 142.97357361 51.56168396 142.38122925 51.21627808 141.77093506 C49.42182886 138.60066979 47.61826019 135.43559172 45.81640625 132.26953125 C45.44802139 131.62160614 45.07963654 130.97368103 44.7000885 130.30612183 C41.1121067 123.9978887 37.48988188 117.70962897 33.859375 111.42578125 C33.25198486 110.37366455 32.64459473 109.32154785 32.01879883 108.23754883 C29.14300273 103.25727061 26.26464827 98.27847961 23.38365173 93.3012085 C22.36543313 91.5417185 21.34778354 89.78190068 20.33032227 88.02197266 C19.06114095 85.82696342 17.79088063 83.63257754 16.51928711 81.43896484 C13.74026554 76.63136175 11.00244437 71.80961133 8.359375 66.92578125 C5.5276103 61.70125252 2.53201372 56.58913686 -0.515625 51.48828125 C-6.25426812 41.83677366 -11.88338264 32.12568157 -17.46459961 22.38256836 C-18.05893799 21.34753174 -18.65327637 20.31249512 -19.265625 19.24609375 C-19.82636719 18.26930664 -20.38710937 17.29251953 -20.96484375 16.28613281 C-22.44092192 13.7834119 -23.98951931 11.35011093 -25.578125 8.91796875 C-26.568125 7.25121094 -26.568125 7.25121094 -27.578125 5.55078125 C-27.248125 4.89078125 -26.918125 4.23078125 -26.578125 3.55078125 C-24.53125 3.20703125 -24.53125 3.20703125 -21.828125 3.05078125 C-17.48012351 2.74020971 -13.25193868 2.21149343 -8.953125 1.48828125 C-7.32117188 1.25044922 -7.32117188 1.25044922 -5.65625 1.0078125 C-3.76190605 0.7265457 -1.87284892 0.40010863 0 0 Z " fill="#02BE61" transform="translate(244.578125,128.44921875)"/>
<path d="M0 0 C1.96200096 -0.00065712 1.96200096 -0.00065712 3.96363831 -0.00132751 C7.53348308 -0.00218499 11.10302281 0.01540016 14.67279696 0.03639436 C18.40970212 0.0552028 22.14661499 0.05691487 25.88356018 0.06047058 C32.95242126 0.06977885 40.02114244 0.09437602 47.08994204 0.12451905 C55.14071739 0.1581011 63.19149957 0.17455861 71.24232757 0.18960536 C87.79648049 0.22092676 104.35049287 0.27366339 120.90454102 0.34057617 C120.90454102 1.00057617 120.90454102 1.66057617 120.90454102 2.34057617 C121.56454102 2.34057617 122.22454102 2.34057617 122.90454102 2.34057617 C123.23454102 4.32057617 123.56454102 6.30057617 123.90454102 8.34057617 C124.56454102 8.34057617 125.22454102 8.34057617 125.90454102 8.34057617 C127.24554151 10.77413287 128.57748958 13.21192918 129.90454102 15.65307617 C130.28610352 16.34336914 130.66766602 17.03366211 131.06079102 17.74487305 C133.90454102 23.00073242 133.90454102 23.00073242 133.90454102 26.34057617 C70.87454102 26.34057617 7.84454102 26.34057617 -57.09545898 26.34057617 C-56.43545898 26.01057617 -55.77545898 25.68057617 -55.09545898 25.34057617 C-55.09545898 24.68057617 -55.09545898 24.02057617 -55.09545898 23.34057617 C-52.9731292 22.16881099 -50.84788107 21.00302833 -48.72045898 19.84057617 C-48.11717773 19.50670898 -47.51389648 19.1728418 -46.89233398 18.82885742 C-42.32202148 16.34057617 -42.32202148 16.34057617 -40.09545898 16.34057617 C-40.09545898 15.68057617 -40.09545898 15.02057617 -40.09545898 14.34057617 C-38.47295958 13.5023846 -36.84737402 12.67016457 -35.22045898 11.84057617 C-34.31553711 11.37651367 -33.41061523 10.91245117 -32.47827148 10.43432617 C-30.09545898 9.34057617 -30.09545898 9.34057617 -28.09545898 9.34057617 C-28.09545898 8.68057617 -28.09545898 8.02057617 -28.09545898 7.34057617 C-22.52905273 4.50854492 -22.52905273 4.50854492 -20.09545898 3.34057617 C-19.16035995 2.8285112 -18.22526093 2.31644623 -17.26182556 1.78886414 C-11.74404448 -0.54289112 -5.88781601 -0.05172122 0 0 Z " fill="#F73130" transform="translate(108.095458984375,397.659423828125)"/>
<path d="M0 0 C3.8526049 2.10868906 7.44410578 4.42565013 11 7 C12.0725 7.763125 13.145 8.52625 14.25 9.3125 C22.13705062 17.02029947 29.67513364 28.60796834 30.11352539 39.93261719 C30.10567017 41.5979248 30.10567017 41.5979248 30.09765625 43.296875 C30.09282227 45.10478516 30.09282227 45.10478516 30.08789062 46.94921875 C30.07532227 48.83060547 30.07532227 48.83060547 30.0625 50.75 C30.05798828 52.01972656 30.05347656 53.28945313 30.04882812 54.59765625 C30.03704566 57.73179095 30.01911036 60.86590142 30 64 C23.4 64 16.8 64 10 64 C9.896875 61.23625 9.79375 58.4725 9.6875 55.625 C9.13123856 44.5552981 7.32380673 34.53114466 -0.66796875 26.27734375 C-6.51382586 21.02510569 -11.83449109 18.46084734 -19.8125 18.625 C-20.87307617 18.6391394 -20.87307617 18.6391394 -21.95507812 18.65356445 C-27.47502793 18.81259882 -32.05900393 19.55425645 -37 22 C-37.69480469 22.32871094 -38.38960938 22.65742188 -39.10546875 22.99609375 C-45.61581783 26.52609541 -49.2020051 31.88583805 -52.125 38.57421875 C-53.37964741 43.48638742 -53.46855584 48.32315749 -53.625 53.375 C-53.66367187 54.39722656 -53.70234375 55.41945313 -53.7421875 56.47265625 C-53.83597566 58.98148965 -53.91905546 61.49071938 -54 64 C-64.395 64.495 -64.395 64.495 -75 65 C-75.57077405 44.65824694 -75.15545194 29.22311213 -61.75 12.875 C-60.38875 11.451875 -60.38875 11.451875 -59 10 C-58.34 10 -57.68 10 -57 10 C-57 9.34 -57 8.68 -57 8 C-51.89174105 3.3455204 -46.04876939 -1 -39 -1 C-39 -1.66 -39 -2.32 -39 -3 C-27.53971945 -6.82009352 -10.81317484 -5.17217594 0 0 Z " fill="#A7B6BD" transform="translate(377,254)"/>
<path d="M0 0 C1.9216523 0.0001133 1.9216523 0.0001133 3.88212585 0.00022888 C5.28054849 0.00533552 6.67897073 0.01055152 8.07739258 0.01586914 C9.50800019 0.0177345 10.93860844 0.01915785 12.36921692 0.02015686 C16.13229133 0.02397272 19.89532708 0.03379507 23.65838623 0.04486084 C27.49922157 0.05509496 31.34006316 0.05965877 35.1809082 0.06469727 C42.71543103 0.07541817 50.24992201 0.09248343 57.78442383 0.11352539 C58.27942383 2.09352539 58.27942383 2.09352539 58.78442383 4.11352539 C59.44442383 4.11352539 60.10442383 4.11352539 60.78442383 4.11352539 C61.18274414 4.92176758 61.58106445 5.73000977 61.99145508 6.56274414 C62.52125977 7.63137695 63.05106445 8.70000977 63.59692383 9.80102539 C64.11899414 10.85676758 64.64106445 11.91250977 65.17895508 13.00024414 C66.61391867 15.78288643 68.15253832 18.44357938 69.78442383 21.11352539 C72.78442383 26.66908095 72.78442383 26.66908095 72.78442383 30.11352539 C29.88442383 30.11352539 -13.01557617 30.11352539 -57.21557617 30.11352539 C-53.72143606 26.61938528 -50.57940972 24.38643368 -46.34057617 22.05102539 C-45.74116211 21.71264648 -45.14174805 21.37426758 -44.52416992 21.02563477 C-40.80752742 18.94157384 -37.02802699 17.01428883 -33.21557617 15.11352539 C-32.30807617 14.55665039 -31.40057617 13.99977539 -30.46557617 13.42602539 C-28.21557617 12.11352539 -28.21557617 12.11352539 -26.21557617 12.11352539 C-26.21557617 11.45352539 -26.21557617 10.79352539 -26.21557617 10.11352539 C-23.44674421 8.63058957 -20.67517888 7.15283678 -17.90307617 5.67602539 C-17.11739258 5.25514648 -16.33170898 4.83426758 -15.5222168 4.40063477 C-14.76489258 3.99780273 -14.00756836 3.5949707 -13.22729492 3.17993164 C-12.18255005 2.62221069 -12.18255005 2.62221069 -11.11669922 2.05322266 C-7.27494368 0.15429919 -4.23200224 -0.00831435 0 0 Z " fill="#FC5656" transform="translate(154.215576171875,366.886474609375)"/>
<path d="M0 0 C0.66 0 1.32 0 2 0 C2.41137207 0.72251953 2.82274414 1.44503906 3.24658203 2.18945312 C4.84350021 4.9928038 6.44154459 7.79550911 8.04025269 10.59783936 C8.76244774 11.86424581 9.48423034 13.13088757 10.20559692 14.39776611 C14.13305653 21.29433371 18.0840403 28.17290812 22.14453125 34.9921875 C22.78438965 36.07048828 23.42424805 37.14878906 24.08349609 38.25976562 C25.29596494 40.29704537 26.51604912 42.32981709 27.74462891 44.35742188 C28.2916748 45.27845703 28.8387207 46.19949219 29.40234375 47.1484375 C29.88179443 47.94427246 30.36124512 48.74010742 30.85522461 49.56005859 C32.19775252 52.42148404 32.73757388 54.85300289 33 58 C31.80566054 60.59639013 30.60449886 62.74996391 29.0625 65.125 C28.132591 66.6271607 27.20573293 68.13121258 26.28125 69.63671875 C25.76175781 70.47638184 25.24226563 71.31604492 24.70703125 72.18115234 C21.73078826 77.09586939 18.926081 82.10911408 16.09796143 87.10992432 C11.04113452 96.03515674 5.94701831 104.94258748 0.6875 113.75 C0.24994385 114.50015381 -0.1876123 115.25030762 -0.63842773 116.02319336 C-1.86328125 118.046875 -1.86328125 118.046875 -4 121 C-4.99 121 -5.98 121 -7 121 C-8.33838733 118.54429825 -9.67086232 116.08570084 -11 113.625 C-11.57234375 112.57699219 -11.57234375 112.57699219 -12.15625 111.5078125 C-15 106.2265625 -15 106.2265625 -15 104 C-15.66 104 -16.32 104 -17 104 C-19.07104141 98.56351629 -20.01860516 94.4315715 -17.71484375 88.93212891 C-17.12832031 87.87429199 -16.54179687 86.81645508 -15.9375 85.7265625 C-15.30585938 84.57285156 -14.67421875 83.41914063 -14.0234375 82.23046875 C-13.34923043 81.02849317 -12.67474779 79.82667212 -12 78.625 C-11.32436732 77.40037528 -10.64987586 76.17512019 -9.9765625 74.94921875 C-8.32882667 71.95975518 -6.66972896 68.97721808 -5 66 C-4.34 66 -3.68 66 -3 66 C-2.34 64.02 -1.68 62.04 -1 60 C-0.34 60 0.32 60 1 60 C2.49767992 54.86829873 2.19059707 49.67951028 2.1875 44.375 C2.18814453 43.23885254 2.18878906 42.10270508 2.18945312 40.93212891 C2.11480159 28.57220932 1.14399509 16.30098976 0 4 C-0.99 4.99 -1.98 5.98 -3 7 C-1.125 1.125 -1.125 1.125 0 0 Z " fill="#FA5656" transform="translate(249,302)"/>
<path d="M0 0 C0.74056641 0.00451172 1.48113281 0.00902344 2.24414062 0.01367188 C4.05862899 0.02537825 5.87307534 0.04331102 7.6875 0.0625 C7.78571045 0.59697754 7.8839209 1.13145508 7.98510742 1.68212891 C8.89796617 4.77575867 10.35477654 7.33083558 11.92578125 10.1484375 C12.4088398 11.01754257 12.4088398 11.01754257 12.9016571 11.90420532 C13.58285305 13.1274798 14.2663197 14.34949223 14.9519043 15.5703125 C15.99100414 17.42147384 17.02243321 19.27674258 18.05273438 21.1328125 C21.09058961 26.57789095 24.17723496 31.90805215 27.6875 37.0625 C28.0175 34.0925 28.3475 31.1225 28.6875 28.0625 C29.0175 28.0625 29.3475 28.0625 29.6875 28.0625 C29.6875 34.0025 29.6875 39.9425 29.6875 46.0625 C8.5675 46.0625 -12.5525 46.0625 -34.3125 46.0625 C-34.3125 18.178227 -34.3125 18.178227 -24.99609375 7.5625 C-22.95639551 5.74522825 -20.8840318 4.6496115 -18.4375 3.4375 C-17.59445312 3.01210938 -16.75140625 2.58671875 -15.8828125 2.1484375 C-10.63724146 -0.0677764 -5.62698936 -0.06537164 0 0 Z " fill="#7DD657" transform="translate(357.3125,271.9375)"/>
<path d="M0 0 C4.46182532 2.23091266 7.19041843 6.99356395 9.984375 10.9921875 C12.53909698 8.50843002 14.86548242 6.16093826 16.921875 3.2421875 C18.984375 0.9921875 18.984375 0.9921875 21.921875 -0.0703125 C24.984375 -0.0078125 24.984375 -0.0078125 27.859375 1.6171875 C29.984375 3.9921875 29.984375 3.9921875 30.39453125 6.32421875 C29.8281313 10.00851558 28.14596786 11.43126616 25.546875 14.0546875 C22.34950683 17.25987341 22.34950683 17.25987341 19.96484375 21.05078125 C19.79064574 23.15760744 19.79064574 23.15760744 21.53125 24.9921875 C22.25828125 25.6521875 22.9853125 26.3121875 23.734375 26.9921875 C30.83007731 33.52635941 30.83007731 33.52635941 31.359375 38.5546875 C30.984375 41.9921875 30.984375 41.9921875 29.859375 43.9296875 C27.00435186 45.54753395 25.23230308 45.43331235 21.984375 44.9921875 C19.73933219 43.02264602 17.9882589 41.25910177 16.109375 38.9921875 C15.36300781 38.13367188 15.36300781 38.13367188 14.6015625 37.2578125 C13.38059362 35.84900225 12.18036308 34.42226577 10.984375 32.9921875 C8.66257445 35.29017471 6.355543 37.57772993 4.17578125 40.01171875 C-0.20782725 44.83684178 -0.20782725 44.83684178 -4.265625 45.6171875 C-7.015625 44.9921875 -7.015625 44.9921875 -8.890625 43.9296875 C-10.7121675 40.79258653 -10.43316717 38.56693449 -10.015625 34.9921875 C-8.34301196 32.3429796 -6.24544565 30.24182015 -4.015625 28.0546875 C-3.44328125 27.46623047 -2.8709375 26.87777344 -2.28125 26.27148438 C-0.87478388 24.8298566 0.55278284 23.40886724 1.984375 21.9921875 C1.56462402 21.50645264 1.14487305 21.02071777 0.71240234 20.52026367 C-0.33567323 19.30374119 -1.37718001 18.08154544 -2.4140625 16.85546875 C-3.69677068 15.36314729 -5.03528162 13.91886474 -6.390625 12.4921875 C-8.57847985 9.12625697 -8.52583107 6.92806287 -8.015625 2.9921875 C-6.22774281 -0.37323779 -3.66817795 -0.64271494 0 0 Z " fill="#FDFBF3" transform="translate(344.015625,352.0078125)"/>
<path d="M0 0 C1.84851563 -0.05607422 1.84851563 -0.05607422 3.734375 -0.11328125 C7.82803601 0.38250658 9.40274981 1.38615952 12.25 4.3125 C13.26587978 7.36013934 13.44804406 9.65968967 13.56640625 12.85546875 C13.60830078 13.92861328 13.65019531 15.00175781 13.69335938 16.10742188 C13.73267578 17.22697266 13.77199219 18.34652344 13.8125 19.5 C13.85568359 20.63115234 13.89886719 21.76230469 13.94335938 22.92773438 C14.04949099 25.72253354 14.15154385 28.51742162 14.25 31.3125 C15.219375 31.786875 16.18875 32.26125 17.1875 32.75 C20.25 34.3125 20.25 34.3125 21.25 35.3125 C21.29063832 36.97867115 21.292721 38.64638095 21.25 40.3125 C18.94 40.9725 16.63 41.6325 14.25 42.3125 C14.23541748 43.01334717 14.22083496 43.71419434 14.20581055 44.4362793 C14.13114513 47.62473009 14.03454525 50.81215513 13.9375 54 C13.91494141 55.10279297 13.89238281 56.20558594 13.86914062 57.34179688 C13.83369141 58.40849609 13.79824219 59.47519531 13.76171875 60.57421875 C13.73553467 61.55350342 13.70935059 62.53278809 13.68237305 63.54174805 C13.17687008 66.78113439 12.17636192 68.67536423 10.25 71.3125 C6.5132157 73.80368953 4.50548181 73.5190226 0.0625 73.4375 C-1.20980469 73.41945313 -2.48210937 73.40140625 -3.79296875 73.3828125 C-4.76878906 73.35960937 -5.74460937 73.33640625 -6.75 73.3125 C-7.375 70.9375 -7.375 70.9375 -7.75 68.3125 C-5.1845406 65.7470406 -3.27313332 65.77203913 0.25 65.3125 C0.25616333 64.31452393 0.25616333 64.31452393 0.26245117 63.29638672 C0.2955042 60.25921023 0.36616034 57.22400863 0.4375 54.1875 C0.44330078 53.14078125 0.44910156 52.0940625 0.45507812 51.015625 C0.70368304 42.28683036 0.70368304 42.28683036 3.80078125 38.5703125 C4.60902344 37.82523437 5.41726563 37.08015625 6.25 36.3125 C5.03763672 35.44044922 5.03763672 35.44044922 3.80078125 34.55078125 C-0.28004522 30.46995478 0.46730527 24.9212478 0.4375 19.5 C0.41236328 18.42556641 0.38722656 17.35113281 0.36132812 16.24414062 C0.30256705 13.59989229 0.26620624 10.95729512 0.25 8.3125 C-2.06 7.6525 -4.37 6.9925 -6.75 6.3125 C-7.13218767 4.65635343 -7.46395102 2.98792976 -7.75 1.3125 C-5.82815673 -0.60934327 -2.55710692 0.05039941 0 0 Z " fill="#FDFAF2" transform="translate(382.75,336.6875)"/>
<path d="M0 0 C1.28132813 0.00902344 2.56265625 0.01804687 3.8828125 0.02734375 C4.87023437 0.03894531 5.85765625 0.05054688 6.875 0.0625 C8 4.8125 8 4.8125 6.875 7.0625 C4.55343403 7.46979228 2.2181213 7.80688677 -0.125 8.0625 C-0.13116333 9.06047607 -0.13116333 9.06047607 -0.13745117 10.07861328 C-0.1705042 13.11578977 -0.24116034 16.15099137 -0.3125 19.1875 C-0.31830078 20.23421875 -0.32410156 21.2809375 -0.33007812 22.359375 C-0.57868304 31.08816964 -0.57868304 31.08816964 -3.67578125 34.8046875 C-4.88814453 35.92230469 -4.88814453 35.92230469 -6.125 37.0625 C-5.485625 37.495625 -4.84625 37.92875 -4.1875 38.375 C-2.125 40.0625 -2.125 40.0625 -1.125 43.0625 C-0.97722064 44.76117188 -0.87752934 46.46427489 -0.80859375 48.16796875 C-0.76669922 49.15087891 -0.72480469 50.13378906 -0.68164062 51.14648438 C-0.64232422 52.17064453 -0.60300781 53.19480469 -0.5625 54.25 C-0.51931641 55.28576172 -0.47613281 56.32152344 -0.43164062 57.38867188 C-0.32555634 59.9464819 -0.22349854 62.50438845 -0.125 65.0625 C2.185 65.7225 4.495 66.3825 6.875 67.0625 C7.25718767 68.71864657 7.58895102 70.38707024 7.875 72.0625 C5.89032837 74.04717163 2.26207719 73.38194275 -0.4375 73.4375 C-1.45360352 73.49357422 -1.45360352 73.49357422 -2.49023438 73.55078125 C-5.88981983 73.610598 -7.80888569 73.29553299 -10.5625 71.265625 C-12.92613705 66.42016905 -12.76306855 61.76291514 -12.8125 56.4375 C-12.85457287 54.36190527 -12.89999363 52.28637493 -12.94921875 50.2109375 C-12.96601685 48.83687744 -12.96601685 48.83687744 -12.9831543 47.43505859 C-13.03118571 44.91219742 -13.03118571 44.91219742 -14.125 42.0625 C-16.59630918 40.90728498 -16.59630918 40.90728498 -19.125 40.0625 C-20.125 39.0625 -20.125 39.0625 -20.1875 36.5 C-20.166875 35.695625 -20.14625 34.89125 -20.125 34.0625 C-18.145 33.0725 -16.165 32.0825 -14.125 31.0625 C-14.1156543 30.36688965 -14.10630859 29.6712793 -14.09667969 28.95458984 C-14.04276454 25.781525 -13.95915827 22.6099009 -13.875 19.4375 C-13.85373047 17.79587891 -13.85373047 17.79587891 -13.83203125 16.12109375 C-13.64281832 9.87706694 -13.40112827 5.77267136 -9.125 1.0625 C-6.12186252 -0.43906874 -3.33432478 -0.03031204 0 0 Z " fill="#FDFBF2" transform="translate(326.125,336.9375)"/>
<path d="M0 0 C0.29132813 0.52859619 0.58265625 1.05719238 0.8828125 1.60180664 C3.20164289 5.7942046 5.54659044 9.96933292 7.9375 14.12109375 C8.69160156 15.43110352 8.69160156 15.43110352 9.4609375 16.76757812 C10.4852895 18.54459486 11.51132652 20.32064136 12.5390625 22.09570312 C13.04179687 22.97033203 13.54453125 23.84496094 14.0625 24.74609375 C14.50722656 25.51622803 14.95195312 26.2863623 15.41015625 27.07983398 C17.72186202 31.32588939 19.83791906 35.67583811 22 40 C10.12 40 -1.76 40 -14 40 C-14.0825 36.555625 -14.165 33.11125 -14.25 29.5625 C-14.28641602 28.49588135 -14.32283203 27.4292627 -14.36035156 26.33032227 C-14.47550323 16.29262596 -10.84250387 8.81100464 -4.4375 1.125 C-3 0 -3 0 0 0 Z " fill="#03BE61" transform="translate(337,278)"/>
<path d="M0 0 C0.33 0 0.66 0 1 0 C1.02526787 7.10244999 1.04283201 14.20488848 1.05493164 21.30737305 C1.05997349 23.72567172 1.06680678 26.14396733 1.07543945 28.56225586 C1.08751157 32.02979283 1.09322963 35.49728966 1.09765625 38.96484375 C1.10281754 40.05337143 1.10797882 41.14189911 1.11329651 42.26341248 C1.11337204 43.26437454 1.11344757 44.26533661 1.11352539 45.29663086 C1.115746 46.18265488 1.11796661 47.06867889 1.12025452 47.98155212 C1 50 1 50 0 51 C-1.8613519 51.36960487 -3.73387365 51.68328908 -5.609375 51.97265625 C-6.75664062 52.14990234 -7.90390625 52.32714844 -9.0859375 52.50976562 C-10.29507813 52.69216797 -11.50421875 52.87457031 -12.75 53.0625 C-13.94367188 53.24876953 -15.13734375 53.43503906 -16.3671875 53.62695312 C-26.14809124 55.12034614 -26.14809124 55.12034614 -31 55 C-29.72920364 50.83922228 -28.17023309 47.25520026 -25.98046875 43.5 C-25.37605957 42.4577124 -24.77165039 41.4154248 -24.14892578 40.34155273 C-23.50165527 39.23884033 -22.85438477 38.13612793 -22.1875 37 C-21.52476074 35.86183838 -20.86202148 34.72367676 -20.17919922 33.55102539 C-18.46485592 30.6085819 -16.74312512 27.67054326 -15.01837158 24.73419189 C-14.02393835 23.04076477 -13.03123476 21.34632232 -12.03857422 19.65185547 C-10.23727062 16.57849486 -8.43248467 13.50722897 -6.625 10.4375 C-6.07223389 9.49841797 -5.51946777 8.55933594 -4.94995117 7.59179688 C-4.44310791 6.73521484 -3.93626465 5.87863281 -3.4140625 4.99609375 C-2.74818115 3.86965454 -2.74818115 3.86965454 -2.06884766 2.72045898 C-1 1 -1 1 0 0 Z " fill="#BFFE72" transform="translate(249,78)"/>
<path d="M0 0 C2.97 0.99 5.94 1.98 9 3 C9.01401855 4.01368652 9.01401855 4.01368652 9.02832031 5.04785156 C9.08207301 8.1159711 9.16570992 11.18257387 9.25 14.25 C9.26417969 15.31347656 9.27835937 16.37695312 9.29296875 17.47265625 C9.32519531 18.49746094 9.35742188 19.52226562 9.390625 20.578125 C9.41157227 21.52075195 9.43251953 22.46337891 9.45410156 23.43457031 C10.15001087 26.70497059 11.49502923 27.85606386 14 30 C14.66 30.66 15.32 31.32 16 32 C14.7934375 32.680625 14.7934375 32.680625 13.5625 33.375 C10.91143428 34.74725665 10.91143428 34.74725665 10 37 C9.84733388 38.73868744 9.75067404 40.48247501 9.68359375 42.2265625 C9.64169922 43.2578125 9.59980469 44.2890625 9.55664062 45.3515625 C9.51732422 46.43179688 9.47800781 47.51203125 9.4375 48.625 C9.39431641 49.71296875 9.35113281 50.8009375 9.30664062 51.921875 C9.2003547 54.6144517 9.09831943 57.30712253 9 60 C6.03 60.99 3.06 61.98 0 63 C-0.53625 62.195625 -1.0725 61.39125 -1.625 60.5625 C-4.43105369 57.53491576 -5.96825194 57.27489191 -10 57 C-10.33 55.68 -10.66 54.36 -11 53 C-10.34 53.33 -9.68 53.66 -9 54 C-7.62657169 54.0689472 -6.24997898 54.08467708 -4.875 54.0625 C-3.59625 54.041875 -2.3175 54.02125 -1 54 C-0.33405991 50.36759953 -0.07260292 48.51720276 -1 45 C-3.25462355 42.16045053 -5.54721419 39.64729479 -8.17504883 37.16308594 C-11.98762866 33.48248239 -11.98762866 33.48248239 -12.0546875 30.8671875 C-10.80653193 28.65748986 -9.42177579 27.16535089 -7.5625 25.4375 C-3.45274654 21.66083571 -3.45274654 21.66083571 -1.625 16.5 C-1.77412556 13.90019199 -1.77412556 13.90019199 -3.6875 12.1875 C-6.34230436 10.82422208 -8.05574183 10.75464515 -11 11 C-11 10.34 -11 9.68 -11 9 C-3.25 8.875 -3.25 8.875 -1 10 C-1.33 8.68 -1.66 7.36 -2 6 C-0.33388095 5.957279 1.33382885 5.95936168 3 6 C3.33 6.33 3.66 6.66 4 7 C4 6.01 4 5.02 4 4 C2.68 3.34 1.36 2.68 0 2 C0 1.34 0 0.68 0 0 Z " fill="#FBAD38" transform="translate(375,342)"/>
<path d="M0 0 C2.86656208 3.5832026 5.00186658 6.53484573 7.171875 10.46484375 C8.03981689 12.0269458 8.03981689 12.0269458 8.92529297 13.62060547 C9.82852295 15.26246826 9.82852295 15.26246826 10.75 16.9375 C11.99674124 19.18916466 13.2441334 21.44046902 14.4921875 23.69140625 C15.09256836 24.77566895 15.69294922 25.85993164 16.31152344 26.97705078 C17.74897647 29.55058222 19.20832602 32.10724296 20.6953125 34.65234375 C21.07204102 35.2976001 21.44876953 35.94285645 21.83691406 36.60766602 C22.80091151 38.24886487 23.77128722 39.88631276 24.7421875 41.5234375 C26 44 26 44 26 47 C20.48243524 47.0493521 14.96499829 47.08569662 9.44726562 47.10986328 C7.56931318 47.11993534 5.69137647 47.13359362 3.81347656 47.15087891 C1.1177991 47.17507453 -1.57767146 47.18647083 -4.2734375 47.1953125 C-5.11619232 47.20563507 -5.95894714 47.21595764 -6.82723999 47.22659302 C-8.88621247 47.22699144 -10.94467935 47.12257588 -13 47 C-13.66 46.34 -14.32 45.68 -15 45 C-13.96939453 44.50693359 -13.96939453 44.50693359 -12.91796875 44.00390625 C-7.97984834 41.39708732 -4.63870873 39.62464346 -2.875 34.125 C-2.54577851 32.75850534 -2.24005679 31.38494302 -2 30 C-1.34 30 -0.68 30 0 30 C0 20.1 0 10.2 0 0 Z " fill="#7AD55A" transform="translate(423,377)"/>
<path d="M0 0 C4.99552284 1.31461127 8.97676464 3.65215474 13.32421875 6.34375 C16.86360866 8.53455485 20.46635348 10.6138588 24.06640625 12.703125 C26 14 26 14 27 16 C21.48243524 16.0493521 15.96499829 16.08569662 10.44726562 16.10986328 C8.56931318 16.11993534 6.69137647 16.13359362 4.81347656 16.15087891 C2.1177991 16.17507453 -0.57767146 16.18647083 -3.2734375 16.1953125 C-4.11619232 16.20563507 -4.95894714 16.21595764 -5.82723999 16.22659302 C-7.88621247 16.22699144 -9.94467935 16.12257588 -12 16 C-12.66 15.34 -13.32 14.68 -14 14 C-12.98679687 13.48953125 -12.98679687 13.48953125 -11.953125 12.96875 C-5.51326396 9.46963475 -2.60852127 6.87701061 0 0 Z " fill="#04BD60" transform="translate(422,408)"/>
<path d="M0 0 C0.33 0 0.66 0 1 0 C1 6.93 1 13.86 1 21 C-1.97515625 20.98839844 -4.9503125 20.97679687 -8.015625 20.96484375 C-27.83379386 20.90552778 -47.62977849 20.92461574 -67.4387207 21.57147217 C-81.29768399 22.02356477 -95.13275794 22.11538284 -109 22 C-109 22.99 -109 23.98 -109 25 C-109.804375 25.28875 -110.60875 25.5775 -111.4375 25.875 C-114.1326468 26.73262568 -114.1326468 26.73262568 -115 29 C-115.66 29 -116.32 29 -117 29 C-115.49687867 25.17387297 -113.37198449 23.29908033 -110 21 C-104.59018685 18.64394225 -99.56096591 18.72917403 -93.77197266 18.77294922 C-92.24910141 18.77251114 -92.24910141 18.77251114 -90.69546509 18.77206421 C-87.35157622 18.7734536 -84.00791228 18.78899661 -80.6640625 18.8046875 C-78.34093345 18.80841901 -76.01780282 18.81126533 -73.69467163 18.81326294 C-67.58892449 18.82088848 -61.48327293 18.8405278 -55.37756348 18.8626709 C-49.14364922 18.88315251 -42.90971948 18.89226962 -36.67578125 18.90234375 C-24.45047214 18.92377464 -12.22525899 18.95894809 0 19 C0 12.73 0 6.46 0 0 Z " fill="#CBAA4C" transform="translate(407,299)"/>
<path d="M0 0 C0.66 0.99 1.32 1.98 2 3 C1.3125 5.125 1.3125 5.125 0 8 C-0.5563386 9.59913753 -1.09716186 11.20373017 -1.625 12.8125 C-1.88539063 13.60269531 -2.14578125 14.39289063 -2.4140625 15.20703125 C-2.70410156 16.09455078 -2.70410156 16.09455078 -3 17 C-4.32 17 -5.64 17 -7 17 C-7.66 18.98 -8.32 20.96 -9 23 C-9.66 23 -10.32 23 -11 23 C-11 23.66 -11 24.32 -11 25 C-10.34 25 -9.68 25 -9 25 C-9 27.31 -9 29.62 -9 32 C-8.01 32 -7.02 32 -6 32 C-6 32.66 -6 33.32 -6 34 C-3.03 34.33 -0.06 34.66 3 35 C3 35.33 3 35.66 3 36 C-0.06147257 36.50642925 -3.12432299 37.00399322 -6.1875 37.5 C-7.05181641 37.64308594 -7.91613281 37.78617188 -8.80664062 37.93359375 C-12.90526577 38.59314262 -16.83226024 39.20709266 -21 39 C-19.68028248 34.6260442 -17.96807576 30.913039 -15.6640625 26.97265625 C-15.01179687 25.85052734 -14.35953125 24.72839844 -13.6875 23.57226562 C-13.00015892 22.40225038 -12.31265778 21.23232914 -11.625 20.0625 C-10.94479697 18.89678504 -10.26510517 17.73077161 -9.5859375 16.56445312 C-8.29394838 14.34797967 -7.00009793 12.13258979 -5.70410156 9.91845703 C-3.7807187 6.62445721 -1.88309845 3.31715035 0 0 Z " fill="#B1EE73" transform="translate(239,94)"/>
<path d="M0 0 C5.82212681 7.27765852 7.93981242 11.65587865 8 21 C7.67 21.66 7.34 22.32 7 23 C7.99 23.33 8.98 23.66 10 24 C9.01 26.31 8.02 28.62 7 31 C4.36 31 1.72 31 -1 31 C-1.33 32.32 -1.66 33.64 -2 35 C-2.33 34.34 -2.66 33.68 -3 33 C-2.67 32.01 -2.34 31.02 -2 30 C-1.34 30 -0.68 30 0 30 C0 20.1 0 10.2 0 0 Z " fill="#7DD956" transform="translate(423,377)"/>
<path d="M0 0 C0.99 0.495 0.99 0.495 2 1 C2.6328125 3.94140625 2.6328125 3.94140625 3.125 7.5625 C3.29257812 8.76003906 3.46015625 9.95757812 3.6328125 11.19140625 C3.75398438 12.11824219 3.87515625 13.04507812 4 14 C4.66 14 5.32 14 6 14 C6.66 12.35 7.32 10.7 8 9 C8.99 9 9.98 9 11 9 C10.95875 10.11375 10.9175 11.2275 10.875 12.375 C10.58878141 16.04366025 10.58878141 16.04366025 13 18 C17.05261287 18.34490322 18.54754176 18.30163882 22 16 C21.125 19.875 21.125 19.875 20 21 C18.31816052 21.23287008 16.6287584 21.41264166 14.9375 21.5625 C13.55884766 21.68818359 13.55884766 21.68818359 12.15234375 21.81640625 C11.44207031 21.87699219 10.73179687 21.93757813 10 22 C10.33 24.97 10.66 27.94 11 31 C10.34 29.68 9.68 28.36 9 27 C6.36 26.01 3.72 25.02 1 24 C0.67 16.08 0.34 8.16 0 0 Z " fill="#FAB041" transform="translate(324,378)"/>
<path d="M0 0 C1.88332031 -0.03867187 1.88332031 -0.03867187 3.8046875 -0.078125 C7.125 0.25 7.125 0.25 9.0703125 1.765625 C9.41835938 2.25546875 9.76640625 2.7453125 10.125 3.25 C7.65 2.755 7.65 2.755 5.125 2.25 C5.475625 3.178125 5.82625 4.10625 6.1875 5.0625 C7.125 8.25 7.125 8.25 6.125 11.25 C5.135 11.745 5.135 11.745 4.125 12.25 C3.795 19.18 3.465 26.11 3.125 33.25 C0.56363779 30.68863779 0.82833143 29.58438669 0.7109375 26.0234375 C0.67226563 24.9921875 0.63359375 23.9609375 0.59375 22.8984375 C0.5628125 21.81820313 0.531875 20.73796875 0.5 19.625 C0.46132813 18.53703125 0.42265625 17.4490625 0.3828125 16.328125 C0.28833753 13.63558835 0.20277569 10.94306243 0.125 8.25 C-2.185 7.59 -4.495 6.93 -6.875 6.25 C-7.25718767 4.59385343 -7.58895102 2.92542976 -7.875 1.25 C-5.94345515 -0.68154485 -2.5639823 0.03145991 0 0 Z " fill="#FDF6DE" transform="translate(382.875,336.75)"/>
<path d="M0 0 C2.2477975 2.05233685 3.0022242 3.00667261 4 6 C4.09014813 8.37644017 4.11756299 10.75539895 4.11352539 13.13354492 C4.11367142 13.85574722 4.11381744 14.57794952 4.1139679 15.32203674 C4.11327145 17.70821134 4.1054916 20.09430779 4.09765625 22.48046875 C4.09579112 24.1352789 4.09436766 25.79008961 4.09336853 27.44490051 C4.08955085 31.79981003 4.07972695 36.15468618 4.06866455 40.50958252 C4.05843433 44.95364938 4.05386745 49.39772163 4.04882812 53.84179688 C4.03810402 62.56121323 4.02103657 71.28060246 4 80 C3.34 80 2.68 80 2 80 C2 55.25 2 30.5 2 5 C1.34 5 0.68 5 0 5 C0 3.35 0 1.7 0 0 Z " fill="#E8AF47" transform="translate(419,327)"/>
<path d="M0 0 C0.99 1.485 0.99 1.485 2 3 C-19.45 3 -40.9 3 -63 3 C-63.33 4.32 -63.66 5.64 -64 7 C-64.66 7 -65.32 7 -66 7 C-66 7.66 -66 8.32 -66 9 C-66.66 9 -67.32 9 -68 9 C-66.87548273 6.0280615 -65.77706209 3.66559313 -64 1 C-61.34326172 0.58108521 -61.34326172 0.58108521 -57.9296875 0.52001953 C-56.01760498 0.47580368 -56.01760498 0.47580368 -54.06689453 0.43069458 C-52.66960531 0.41396809 -51.27230651 0.39802628 -49.875 0.3828125 C-48.4477389 0.35835384 -47.02049249 0.33302294 -45.59326172 0.30685425 C-42.60064003 0.25543203 -39.60811246 0.21480073 -36.61523438 0.18164062 C-32.77439011 0.13819354 -28.93459871 0.06780839 -25.09432983 -0.01067924 C-22.14685293 -0.06791737 -19.19930196 -0.11077561 -16.25152588 -0.14926529 C-14.83523446 -0.16952684 -13.4190006 -0.19432644 -12.00286865 -0.22369003 C-10.02558341 -0.26255601 -8.04791177 -0.27999734 -6.0703125 -0.29638672 C-4.94383301 -0.31176483 -3.81735352 -0.32714294 -2.65673828 -0.34298706 C-1.34165283 -0.17320847 -1.34165283 -0.17320847 0 0 Z " fill="#C25553" transform="translate(249,188)"/>
<path d="M0 0 C3.1875 -0.36328125 3.1875 -0.36328125 7 -0.3125 C8.8871875 -0.30669922 8.8871875 -0.30669922 10.8125 -0.30078125 C14 0 14 0 16 2 C16.5 5.3125 16.5 5.3125 16 9 C14.18216291 11.18140451 12.39605227 12.38633215 10 14 C9.67 14 9.34 14 9 14 C8.97494385 14.55461914 8.9498877 15.10923828 8.92407227 15.68066406 C8.80772073 18.20398843 8.68517246 20.72697536 8.5625 23.25 C8.52318359 24.12269531 8.48386719 24.99539063 8.44335938 25.89453125 C8.40146484 26.73886719 8.35957031 27.58320313 8.31640625 28.453125 C8.26141968 29.61569824 8.26141968 29.61569824 8.20532227 30.80175781 C8 33 8 33 7.35522461 35.09667969 C6.71075013 37.32222455 6.71075013 37.32222455 9 40 C2.9453125 40.1953125 2.9453125 40.1953125 1 40 C0.34 39.34 -0.32 38.68 -1 38 C-0.195625 37.54625 0.60875 37.0925 1.4375 36.625 C4.08856572 35.25274335 4.08856572 35.25274335 5 33 C5.14089782 31.27273078 5.22582688 29.54071368 5.28125 27.80859375 C5.31863281 26.78185547 5.35601562 25.75511719 5.39453125 24.69726562 C5.46497 22.52018637 5.53528205 20.34310302 5.60546875 18.16601562 C5.64285156 17.14056641 5.68023437 16.11511719 5.71875 15.05859375 C5.76418945 13.64018188 5.76418945 13.64018188 5.81054688 12.19311523 C6 10 6 10 7 9 C9.33297433 8.95907063 11.66705225 8.95758277 14 9 C14 7.02 14 5.04 14 3 C8.72 3 3.44 3 -2 3 C-1.34 2.01 -0.68 1.02 0 0 Z " fill="#EEB357" transform="translate(319,335)"/>
<path d="M0 0 C0 3 0 3 -1.3687439 4.58486938 C-10.75478311 11.34071641 -22.27725368 9.7455661 -33.2890625 9.5859375 C-35.5616239 9.57473416 -37.83419988 9.56619935 -40.10678101 9.56021118 C-46.06159113 9.53740285 -52.01551035 9.47854774 -57.9699707 9.4119873 C-64.05668082 9.35039245 -70.14353619 9.32315945 -76.23046875 9.29296875 C-88.15403529 9.2287974 -100.07694329 9.12651447 -112 9 C-112 8.67 -112 8.34 -112 8 C-79 7.67 -46 7.34 -12 7 C-11.67 6.34 -11.34 5.68 -11 5 C-9.35 5 -7.7 5 -6 5 C-6 4.34 -6 3.68 -6 3 C-5.195625 2.690625 -4.39125 2.38125 -3.5625 2.0625 C-1.10919595 1.23664655 -1.10919595 1.23664655 0 0 Z " fill="#E5B065" transform="translate(418,414)"/>
<path d="M0 0 C1 2 1 2 0.25 4.75 C-1 8 -1 8 -2.56640625 10.5546875 C-4.52024387 15.25028636 -4.32608457 19.35406859 -4.1875 24.375 C-4.125625 27.55125 -4.06375 30.7275 -4 34 C12.335 34.495 12.335 34.495 29 35 C29 35.33 29 35.66 29 36 C17.12 36 5.24 36 -7 36 C-7.0825 32.555625 -7.165 29.11125 -7.25 25.5625 C-7.28641602 24.49588135 -7.32283203 23.4292627 -7.36035156 22.33032227 C-7.46131624 13.52929684 -4.72264442 7.32009885 0 0 Z " fill="#29AF68" transform="translate(330,282)"/>
<path d="M0 0 C0 0.99 0 1.98 0 3 C-0.66 3 -1.32 3 -2 3 C-2 3.99 -2 4.98 -2 6 C6.58 5.67 15.16 5.34 24 5 C24.33 4.34 24.66 3.68 25 3 C27.01920337 4.30406884 29.01924973 5.63823419 31 7 C31 7.33 31 7.66 31 8 C25.48243524 8.0493521 19.96499829 8.08569662 14.44726562 8.10986328 C12.56931318 8.11993534 10.69137647 8.13359362 8.81347656 8.15087891 C6.1177991 8.17507453 3.42232854 8.18647083 0.7265625 8.1953125 C-0.11619232 8.20563507 -0.95894714 8.21595764 -1.82723999 8.22659302 C-3.88621247 8.22699144 -5.94467935 8.12257588 -8 8 C-8.66 7.34 -9.32 6.68 -10 6 C-6.7 4.02 -3.4 2.04 0 0 Z " fill="#1B914A" transform="translate(418,416)"/>
<path d="M0 0 C1.28132813 0.00902344 2.56265625 0.01804687 3.8828125 0.02734375 C4.87023437 0.03894531 5.85765625 0.05054688 6.875 0.0625 C7.5 2.4375 7.5 2.4375 7.875 5.0625 C7.215 5.7225 6.555 6.3825 5.875 7.0625 C5.875 5.4125 5.875 3.7625 5.875 2.0625 C1.255 2.0625 -3.365 2.0625 -8.125 2.0625 C-9.83891469 6.34728673 -10.39821369 8.41099328 -10.5390625 12.80078125 C-10.57773437 13.86748047 -10.61640625 14.93417969 -10.65625 16.03320312 C-10.70265625 17.68739258 -10.70265625 17.68739258 -10.75 19.375 C-10.78867187 20.49712891 -10.82734375 21.61925781 -10.8671875 22.77539062 C-10.96122011 25.53759852 -11.04687341 28.299804 -11.125 31.0625 C-13.105 32.0525 -13.105 32.0525 -15.125 33.0625 C-14.795 32.4025 -14.465 31.7425 -14.125 31.0625 C-14.01914168 29.31993717 -13.96965039 27.57378068 -13.94921875 25.828125 C-13.92537109 24.77882813 -13.90152344 23.72953125 -13.87695312 22.6484375 C-13.83428995 20.44029518 -13.80287474 18.23190432 -13.78320312 16.0234375 C-13.61949199 9.79479996 -13.38658573 5.76383661 -9.125 1.0625 C-6.12186252 -0.43906874 -3.33432478 -0.03031204 0 0 Z " fill="#FEEABE" transform="translate(326.125,336.9375)"/>
<path d="M0 0 C0.99 0.495 0.99 0.495 2 1 C2 8.26 2 15.52 2 23 C3.98 22.34 5.96 21.68 8 21 C8 20.34 8 19.68 8 19 C8.75925781 18.95101563 9.51851563 18.90203125 10.30078125 18.8515625 C11.29464844 18.77679688 12.28851563 18.70203125 13.3125 18.625 C14.29863281 18.55539062 15.28476562 18.48578125 16.30078125 18.4140625 C19.21528433 18.16134528 19.21528433 18.16134528 22 16 C21.125 19.875 21.125 19.875 20 21 C18.31816052 21.23287008 16.6287584 21.41264166 14.9375 21.5625 C13.55884766 21.68818359 13.55884766 21.68818359 12.15234375 21.81640625 C11.44207031 21.87699219 10.73179687 21.93757813 10 22 C10.33 24.97 10.66 27.94 11 31 C10.34 29.68 9.68 28.36 9 27 C6.36 26.01 3.72 25.02 1 24 C0.67 16.08 0.34 8.16 0 0 Z " fill="#F2B14D" transform="translate(324,378)"/>
<path d="M0 0 C0.33 0 0.66 0 1 0 C1.33 7.92 1.66 15.84 2 24 C3.98 24.99 5.96 25.98 8 27 C9 28 9 28 9.0625 30.5625 C9.041875 31.366875 9.02125 32.17125 9 33 C6.03 33.495 6.03 33.495 3 34 C3.33 33.34 3.66 32.68 4 32 C4.99 32 5.98 32 7 32 C6.67 30.68 6.34 29.36 6 28 C3.62625139 27.66574265 3.62625139 27.66574265 1 28 C0.2884375 28.99 0.2884375 28.99 -0.4375 30 C-0.953125 30.66 -1.46875 31.32 -2 32 C-5.1875 32.25 -5.1875 32.25 -8 32 C-7.34 31.01 -6.68 30.02 -6 29 C-6.99 28.01 -7.98 27.02 -9 26 C-6.36 26.33 -3.72 26.66 -1 27 C-0.67 18.09 -0.34 9.18 0 0 Z " fill="#FDEFCD" transform="translate(395,344)"/>
<path d="M0 0 C0 0.66 0 1.32 0 2 C-0.80219971 2.08040527 -1.60439941 2.16081055 -2.4309082 2.24365234 C-6.05903909 2.6121693 -9.68572002 2.99342679 -13.3125 3.375 C-15.20645508 3.56449219 -15.20645508 3.56449219 -17.13867188 3.7578125 C-18.34716797 3.88671875 -19.55566406 4.015625 -20.80078125 4.1484375 C-21.91622314 4.26364746 -23.03166504 4.37885742 -24.1809082 4.49755859 C-27.19450419 4.84070801 -27.19450419 4.84070801 -30 7 C-29.6390625 7.55429688 -29.278125 8.10859375 -28.90625 8.6796875 C-28.21015625 9.76636719 -28.21015625 9.76636719 -27.5 10.875 C-27.0359375 11.59429687 -26.571875 12.31359375 -26.09375 13.0546875 C-25 15 -25 15 -25 17 C-24.34 17 -23.68 17 -23 17 C-23 18.65 -23 20.3 -23 22 C-25.96655321 18.44145169 -28.45858103 14.8017732 -30.8125 10.8125 C-31.43769531 9.76707031 -32.06289062 8.72164062 -32.70703125 7.64453125 C-33.34705078 6.33548828 -33.34705078 6.33548828 -34 5 C-33.67 4.34 -33.34 3.68 -33 3 C-30.953125 2.65625 -30.953125 2.65625 -28.25 2.5 C-23.90199851 2.18942846 -19.67381368 1.66071218 -15.375 0.9375 C-10.1573317 0.0959406 -5.27719589 -0.178888 0 0 Z " fill="#22BC53" transform="translate(251,129)"/>
<path d="M0 0 C5.20754717 6.50943396 5.20754717 6.50943396 7 10 C6.67 10.66 6.34 11.32 6 12 C5.34 12 4.68 12 4 12 C3.67 11.01 3.34 10.02 3 9 C2.67 15.93 2.34 22.86 2 30 C1.01 30.33 0.02 30.66 -1 31 C-1.73323796 33.01508358 -1.73323796 33.01508358 -2 35 C-2.33 34.34 -2.66 33.68 -3 33 C-2.67 32.01 -2.34 31.02 -2 30 C-1.34 30 -0.68 30 0 30 C0 20.1 0 10.2 0 0 Z " fill="#99C14D" transform="translate(423,377)"/>
<path d="M0 0 C2.73966732 2.45241517 4.35108675 5.12422477 6.13671875 8.32421875 C6.71357422 9.35224609 7.29042969 10.38027344 7.88476562 11.43945312 C8.47966797 12.51130859 9.07457031 13.58316406 9.6875 14.6875 C10.59725586 16.31268555 10.59725586 16.31268555 11.52539062 17.97070312 C13.02140286 20.64467775 14.51273714 23.32115216 16 26 C15.34 26.33 14.68 26.66 14 27 C13.34 25.35 12.68 23.7 12 22 C11.01 22 10.02 22 9 22 C9.33 20.68 9.66 19.36 10 18 C9.01 17.67 8.02 17.34 7 17 C7 15.68 7 14.36 7 13 C6.34 13 5.68 13 5 13 C5 14.32 5 15.64 5 17 C3.68 16.34 2.36 15.68 1 15 C1.350625 14.443125 1.70125 13.88625 2.0625 13.3125 C3.89150214 8.80096139 1.53351924 4.39608848 0 0 Z " fill="#77BE57" transform="translate(297,159)"/>
<path d="M0 0 C1.65 0.33 3.3 0.66 5 1 C5 1.99 5 2.98 5 4 C6.32 4.66 7.64 5.32 9 6 C7.35 7.98 5.7 9.96 4 12 C0.36440339 8.56638098 -2.36113346 5.2026393 -5 1 C-2.525 1.495 -2.525 1.495 0 2 C0 1.34 0 0.68 0 0 Z " fill="#F8AF3C" transform="translate(351,352)"/>
<path d="M0 0 C0.99 0 1.98 0 3 0 C3.67119549 1.4562545 4.33681807 2.91507867 5 4.375 C5.556875 5.59316406 5.556875 5.59316406 6.125 6.8359375 C7 9 7 9 7 11 C7.66 11 8.32 11 9 11 C9 11.99 9 12.98 9 14 C9.66 14 10.32 14 11 14 C11.433125 15.051875 11.86625 16.10375 12.3125 17.1875 C13.31565232 19.54729641 14.35943495 21.59905825 15.6875 23.8125 C17 26 17 26 17 28 C17.66 28 18.32 28 19 28 C19.99 30.97 20.98 33.94 22 37 C18.80435906 34.06457057 16.7645667 31.15187577 14.6875 27.3515625 C13.78644531 25.71960938 13.78644531 25.71960938 12.8671875 24.0546875 C12.25101563 22.92289063 11.63484375 21.79109375 11 20.625 C9.77308777 18.38678355 8.54398648 16.14976542 7.3125 13.9140625 C6.77238281 12.9235791 6.23226562 11.9330957 5.67578125 10.91259766 C3.98882574 7.89618711 3.98882574 7.89618711 1.79296875 4.75537109 C0 2 0 2 0 0 Z " fill="#1EA060" transform="translate(228,151)"/>
<path d="M0 0 C1.2065625 0.0309375 1.2065625 0.0309375 2.4375 0.0625 C1.46477325 1.41585895 0.4635734 2.74912604 -0.5625 4.0625 C-0.8925 4.0625 -1.2225 4.0625 -1.5625 4.0625 C-1.8925 10.3325 -2.2225 16.6025 -2.5625 23.0625 C-2.8925 23.0625 -3.2225 23.0625 -3.5625 23.0625 C-3.59137512 19.41668313 -3.60925585 15.77089537 -3.625 12.125 C-3.63337891 11.08408203 -3.64175781 10.04316406 -3.65039062 8.97070312 C-3.65522461 7.48666992 -3.65522461 7.48666992 -3.66015625 5.97265625 C-3.66539307 5.05621338 -3.67062988 4.13977051 -3.67602539 3.19555664 C-3.50837054 0.0454482 -3.17507352 0.07744082 0 0 Z M-5.5625 23.0625 C-4.9025 23.3925 -4.2425 23.7225 -3.5625 24.0625 C-3 26 -3 26 -2.5625 28.0625 C-2.2325 28.7225 -1.9025 29.3825 -1.5625 30.0625 C-7.6171875 30.2578125 -7.6171875 30.2578125 -9.5625 30.0625 C-10.2225 29.4025 -10.8825 28.7425 -11.5625 28.0625 C-10.758125 27.60875 -9.95375 27.155 -9.125 26.6875 C-6.47393428 25.31524335 -6.47393428 25.31524335 -5.5625 23.0625 Z " fill="#F8AD3C" transform="translate(329.5625,344.9375)"/>
<path d="M0 0 C4.31868132 1.25961538 4.31868132 1.25961538 6 3.875 C6.4375 6.3125 6.4375 6.3125 6 8.875 C4 11.1875 4 11.1875 2 12.875 C1.34 11.225 0.68 9.575 0 7.875 C0.66 7.875 1.32 7.875 2 7.875 C1.67 6.225 1.34 4.575 1 2.875 C-1.31 2.875 -3.62 2.875 -6 2.875 C-4.05972988 0.18018039 -3.40614751 -0.14192281 0 0 Z " fill="#FDF3DD" transform="translate(368,352.125)"/>
<path d="M0 0 C3 1 3 1 4.140625 2.86328125 C4.50671875 3.67152344 4.8728125 4.47976562 5.25 5.3125 C7.73956846 10.58855794 10.62834042 15.54070824 13.64453125 20.53125 C15 23 15 23 15 25 C15.66 25 16.32 25 17 25 C17.66 27.64 18.32 30.28 19 33 C15.94632648 30.33238921 14.20780267 27.15080032 12.20703125 23.65234375 C11.68069344 22.73359215 11.68069344 22.73359215 11.14372253 21.79627991 C10.40603094 20.50575398 9.67075169 19.21384647 8.93774414 17.9206543 C7.81235521 15.93724482 6.67726373 13.95962613 5.54101562 11.98242188 C4.82493494 10.72689648 4.10942029 9.47104804 3.39453125 8.21484375 C2.74331299 7.07136475 2.09209473 5.92788574 1.42114258 4.74975586 C0 2 0 2 0 0 Z " fill="#1D9E5F" transform="translate(282,244)"/>
<path d="M0 0 C2.10833878 4.21667757 3.14751803 6.8869387 3.31640625 11.6640625 C3.35830078 12.78554688 3.40019531 13.90703125 3.44335938 15.0625 C3.48267578 16.238125 3.52199219 17.41375 3.5625 18.625 C3.60568359 19.80835938 3.64886719 20.99171875 3.69335938 22.2109375 C3.79967426 25.14050328 3.90170642 28.07015588 4 31 C6.31 31.66 8.62 32.32 11 33 C11 35.31 11 37.62 11 40 C10.690625 39.1028125 10.690625 39.1028125 10.375 38.1875 C8.48963772 35.18806001 6.18033026 34.42099863 3 33 C1.30885446 31.30885446 1.831062 29.14387743 1.7890625 26.828125 C1.74652344 25.24257813 1.74652344 25.24257813 1.703125 23.625 C1.65140706 21.39078497 1.60702983 19.15638689 1.5703125 16.921875 C1.539375 15.8596875 1.5084375 14.7975 1.4765625 13.703125 C1.45674316 12.73020508 1.43692383 11.75728516 1.41650391 10.75488281 C0.7870108 6.59122499 -1.05966578 3.94033422 -4 1 C-2.68 0.67 -1.36 0.34 0 0 Z " fill="#F1B050" transform="translate(394,336)"/>
<path d="M0 0 C0.33 0 0.66 0 1 0 C1.61081304 7.20759389 1.61081304 7.20759389 -1.3125 11 C-4 13 -4 13 -7 13 C-5.58795406 7.73691968 -3.31008693 4.2437012 0 0 Z " fill="#B1E771" transform="translate(249,78)"/>
<path d="M0 0 C0 0.99 0 1.98 0 3 C-5.79388928 8.29091933 -11.7611294 9.66812339 -19.41015625 9.52734375 C-20.47105469 9.47707031 -21.53195312 9.42679687 -22.625 9.375 C-23.72457031 9.34792969 -24.82414062 9.32085937 -25.95703125 9.29296875 C-28.64014688 9.22297443 -31.31897367 9.1248627 -34 9 C-34 8.67 -34 8.34 -34 8 C-26.74 7.67 -19.48 7.34 -12 7 C-11.67 6.34 -11.34 5.68 -11 5 C-9.35 5 -7.7 5 -6 5 C-6 4.34 -6 3.68 -6 3 C-5.195625 2.690625 -4.39125 2.38125 -3.5625 2.0625 C-1.10919595 1.23664655 -1.10919595 1.23664655 0 0 Z " fill="#CCB65B" transform="translate(418,414)"/>
<path d="M0 0 C1.27230469 0.01804687 2.54460937 0.03609375 3.85546875 0.0546875 C5.31919922 0.08949219 5.31919922 0.08949219 6.8125 0.125 C7.4375 2.5 7.4375 2.5 7.8125 5.125 C7.1525 5.785 6.4925 6.445 5.8125 7.125 C5.8125 5.475 5.8125 3.825 5.8125 2.125 C1.1925 2.125 -3.4275 2.125 -8.1875 2.125 C-8.8475 3.775 -9.5075 5.425 -10.1875 7.125 C-10.8475 7.125 -11.5075 7.125 -12.1875 7.125 C-9.85278678 0.30045367 -6.90279617 -0.12665681 0 0 Z " fill="#FEF5D4" transform="translate(326.1875,336.875)"/>
<path d="M0 0 C0.33 0.99 0.66 1.98 1 3 C0 4 0 4 -2.5625 4.0625 C-3.7690625 4.0315625 -3.7690625 4.0315625 -5 4 C-5 4.99 -5 5.98 -5 7 C-8.96 6.67 -12.92 6.34 -17 6 C-17 5.01 -17 4.02 -17 3 C-16.02417969 2.95101563 -15.04835938 2.90203125 -14.04296875 2.8515625 C-12.77066406 2.77679688 -11.49835938 2.70203125 -10.1875 2.625 C-8.29064453 2.52058594 -8.29064453 2.52058594 -6.35546875 2.4140625 C-2.87244766 2.23897061 -2.87244766 2.23897061 0 0 Z " fill="#F5AD43" transform="translate(393,407)"/>
<path d="M0 0 C0.66 0 1.32 0 2 0 C0.41555427 4.32421646 -1.717804 8.26442583 -4 12.25 C-4.35578125 12.88679688 -4.7115625 13.52359375 -5.078125 14.1796875 C-7.75762649 18.87881324 -7.75762649 18.87881324 -10 20 C-10 18.02 -10 16.04 -10 14 C-8.68 13.67 -7.36 13.34 -6 13 C-5.855625 12.4225 -5.71125 11.845 -5.5625 11.25 C-4.78125 8.125 -4.78125 8.125 -4 5 C-3.34 5 -2.68 5 -2 5 C-2 4.01 -2 3.02 -2 2 C-1.34 2 -0.68 2 0 2 C0 1.34 0 0.68 0 0 Z " fill="#D83A3C" transform="translate(211,253)"/>
<path d="M0 0 C0.66 0.99 1.32 1.98 2 3 C1.34 3 0.68 3 0 3 C-1.37423121 7.6497946 -1.37423121 7.6497946 -2.4375 12.375 C-2.623125 12.91125 -2.80875 13.4475 -3 14 C-3.99 14.33 -4.98 14.66 -6 15 C-6.495 16.2375 -6.495 16.2375 -7 17.5 C-7.495 18.7375 -7.495 18.7375 -8 20 C-8.99 20.33 -9.98 20.66 -11 21 C-9.3003494 16.26525903 -6.86340973 12.03832889 -4.375 7.6875 C-3.95476562 6.94693359 -3.53453125 6.20636719 -3.1015625 5.44335938 C-2.07051505 3.62730989 -1.03563954 1.81343467 0 0 Z " fill="#D25255" transform="translate(129,285)"/>
<path d="M0 0 C1.8871875 0.0309375 1.8871875 0.0309375 3.8125 0.0625 C-0.92474554 2.51884954 -4.75250474 4.37307116 -10.1875 4.0625 C-10.5175 5.0525 -10.8475 6.0425 -11.1875 7.0625 C-14.35992648 8.37285007 -16.74631664 9.0625 -20.1875 9.0625 C-17.41729973 5.9844997 -15.17143307 4.25767992 -11.1875 3.0625 C-9.8675 3.0625 -8.5475 3.0625 -7.1875 3.0625 C-7.1875 2.4025 -7.1875 1.7425 -7.1875 1.0625 C-4.43671116 0.14557039 -2.82801087 -0.04636083 0 0 Z " fill="#94C696" transform="translate(345.1875,249.9375)"/>
<path d="M0 0 C7 7 7 7 7.3125 10.4375 C7 14 7 14 5.875 15.9375 C3.12198451 17.49754211 1.0996593 17.39570119 -2 17 C-2.66 16.01 -3.32 15.02 -4 14 C-1.03 14.33 1.94 14.66 5 15 C5.33380814 11.62563814 5.33380814 11.62563814 5 8 C3.09663191 6.34329588 3.09663191 6.34329588 1 5 C0.25 2.3125 0.25 2.3125 0 0 Z " fill="#FEF5D4" transform="translate(368,380)"/>
<path d="M0 0 C-0.25 3.375 -0.25 3.375 -1 7 C-3 8.25 -3 8.25 -5 9 C-5.33 9.99 -5.66 10.98 -6 12 C-6.99 12.33 -7.98 12.66 -9 13 C-8.1682213 9.58970735 -4.5794585 0 0 0 Z " fill="#E93537" transform="translate(250,305)"/>
<path d="M0 0 C0.66 0 1.32 0 2 0 C2.268125 0.763125 2.53625 1.52625 2.8125 2.3125 C3.79067356 4.9636499 3.79067356 4.9636499 5.4375 6.4375 C7.62885288 8.62885288 8.64590327 11.23293278 10 14 C10.66 14.66 11.32 15.32 12 16 C12.125 18.625 12.125 18.625 12 21 C8.74951058 17.15651589 6.21217131 13.17601471 3.75 8.8125 C3.38648438 8.18408203 3.02296875 7.55566406 2.6484375 6.90820312 C0 2.25352444 0 2.25352444 0 0 Z " fill="#6ADA64" transform="translate(337,278)"/>
<path d="M0 0 C0.88935377 3.303314 1.46274105 6.62294375 2 10 C1.195625 10.12375 0.39125 10.2475 -0.4375 10.375 C-1.283125 10.58125 -2.12875 10.7875 -3 11 C-3.33 11.66 -3.66 12.32 -4 13 C-4.66 13 -5.32 13 -6 13 C-4.58707905 8.1725201 -2.57025846 4.2837641 0 0 Z " fill="#DF5457" transform="translate(69,389)"/>
<path d="M0 0 C1.258125 -0.04125 2.51625 -0.0825 3.8125 -0.125 C4.52019531 -0.14820313 5.22789062 -0.17140625 5.95703125 -0.1953125 C8 0 8 0 11 2 C11.6609051 5.03063691 11.49977448 7.94874526 11 11 C9 14.0625 9 14.0625 7 16 C6.34 15.67 5.68 15.34 5 15 C5.66 14.278125 6.32 13.55625 7 12.8125 C9.15047601 10.20207309 9.15047601 10.20207309 9.5 7.375 C9.19061156 4.89217002 9.19061156 4.89217002 7.3125 3.1875 C4.65769564 1.82422208 2.94425817 1.75464515 0 2 C0 1.34 0 0.68 0 0 Z " fill="#F2B14F" transform="translate(364,351)"/>
<path d="M0 0 C-1.68673918 4.49797113 -3.81673892 8.72886302 -6 13 C-6.99 11.68 -7.98 10.36 -9 9 C-8.34 8.34 -7.68 7.68 -7 7 C-6.34 7.33 -5.68 7.66 -5 8 C-5 5.69 -5 3.38 -5 1 C-3 0 -3 0 0 0 Z " fill="#14A964" transform="translate(311,272)"/>
<path d="M0 0 C0.16435547 0.87011719 0.16435547 0.87011719 0.33203125 1.7578125 C1.32194943 6.63497038 2.71870724 10.54604748 5 15 C4.67 15.66 4.34 16.32 4 17 C0.79768752 11.75608378 -2.36804809 6.55634291 -5 1 C-1.125 0 -1.125 0 0 0 Z " fill="#6CDA62" transform="translate(316,233)"/>
<path d="M0 0 C1.17539996 0.92652701 2.34010577 1.86663387 3.5 2.8125 C4.1496875 3.33457031 4.799375 3.85664063 5.46875 4.39453125 C7 6 7 6 7 9 C5 10.6875 5 10.6875 3 12 C3 11.34 3 10.68 3 10 C2.34 10 1.68 10 1 10 C1 9.34 1 8.68 1 8 C1.66 8 2.32 8 3 8 C2.505 7.05125 2.01 6.1025 1.5 5.125 C0 2 0 2 0 0 Z " fill="#F3B04E" transform="translate(339,366)"/>
<path d="M0 0 C0.66 0 1.32 0 2 0 C3.75 2.125 3.75 2.125 5 5 C4.1875 8.3125 4.1875 8.3125 3 11 C1.25372522 8.38058783 0.61277612 6.96175123 0 4 C-0.99 4.99 -1.98 5.98 -3 7 C-1.125 1.125 -1.125 1.125 0 0 Z " fill="#D54A4D" transform="translate(249,302)"/>
<path d="M0 0 C4.39158329 1.4638611 4.87947433 3.97831338 7 8 C7.66 8 8.32 8 9 8 C9 8.99 9 9.98 9 11 C9.66 11.33 10.32 11.66 11 12 C11 15 11 15 10 18 C8.32982236 15.18957076 6.66445191 12.37632343 5 9.5625 C4.28457031 8.35883789 4.28457031 8.35883789 3.5546875 7.13085938 C2.87792969 5.98520508 2.87792969 5.98520508 2.1875 4.81640625 C1.76855469 4.10943604 1.34960938 3.40246582 0.91796875 2.67407227 C0 1 0 1 0 0 Z " fill="#19A05E" transform="translate(254,197)"/>
<path d="M0 0 C2.14909962 2.76854598 4.01778828 5.57834526 5.75 8.625 C6.19859375 9.40101563 6.6471875 10.17703125 7.109375 10.9765625 C7.40328125 11.64429688 7.6971875 12.31203125 8 13 C7.67 13.66 7.34 14.32 7 15 C5 13.1875 5 13.1875 3 11 C3 10.01 3 9.02 3 8 C2.01 8 1.02 8 0 8 C0 5.36 0 2.72 0 0 Z " fill="#74B954" transform="translate(441,408)"/>
<path d="M0 0 C1.875 0.6875 1.875 0.6875 4 2 C5.0625 4.3125 5.0625 4.3125 6 7 C6.53625 7.886875 7.0725 8.77375 7.625 9.6875 C9 12 9 12 9 14 C9.66 14 10.32 14 11 14 C11 15.65 11 17.3 11 19 C8.03073619 15.44608026 5.57681464 11.81482005 3.25 7.8125 C2.63640625 6.76707031 2.0228125 5.72164062 1.390625 4.64453125 C0 2 0 2 0 0 Z " fill="#1B9853" transform="translate(217,132)"/>
<path d="M0 0 C1.32 0 2.64 0 4 0 C3.67 8.91 3.34 17.82 3 27 C2.67 27 2.34 27 2 27 C1.97494385 26.32420898 1.9498877 25.64841797 1.92407227 24.95214844 C1.80789258 21.8845832 1.68526563 18.81730842 1.5625 15.75 C1.52318359 14.68652344 1.48386719 13.62304688 1.44335938 12.52734375 C1.40146484 11.50253906 1.35957031 10.47773438 1.31640625 9.421875 C1.27974854 8.47924805 1.24309082 7.53662109 1.20532227 6.56542969 C1.02060772 4.25748623 0.64138388 2.21859476 0 0 Z " fill="#FFFBE4" transform="translate(312,378)"/>
<path d="M0 0 C3 1 3 1 4.6875 3.9375 C6 7 6 7 6 9 C6.99 9.33 7.98 9.66 9 10 C9.73046875 11.84765625 9.73046875 11.84765625 10.1875 14.0625 C10.34605469 14.79597656 10.50460937 15.52945313 10.66796875 16.28515625 C10.77753906 16.85105469 10.88710938 17.41695312 11 18 C8.57794749 15.78213215 7.05481128 13.57287094 5.5 10.6875 C5.07332031 9.89859375 4.64664063 9.1096875 4.20703125 8.296875 C2.76389269 5.55070841 1.35870891 2.78892881 0 0 Z " fill="#66DD66" transform="translate(251,130)"/>
<path d="M0 0 C2.74277578 3.19990508 4.6302836 6.00499382 6 10 C5.67 10.33 5.34 10.66 5 11 C3.35 11 1.7 11 0 11 C0 7.37 0 3.74 0 0 Z " fill="#78BD57" transform="translate(430,389)"/>
<path d="M0 0 C0.66 0.33 1.32 0.66 2 1 C-0.31 4.96 -2.62 8.92 -5 13 C-7 9 -7 9 -6.375 6.875 C-4.78615371 4.70839142 -3.38171824 4.15244431 -1 3 C-0.67 2.01 -0.34 1.02 0 0 Z " fill="#DA3737" transform="translate(177,313)"/>
<path d="M0 0 C0.99 0 1.98 0 3 0 C3 0.99 3 1.98 3 3 C3.66 3 4.32 3 5 3 C7.3208055 6.2491277 8.43697042 9.05879291 9 13 C8.01 13.495 8.01 13.495 7 14 C4.69 9.38 2.38 4.76 0 0 Z " fill="#17A45E" transform="translate(270,224)"/>
<path d="M0 0 C1.04449911 3.13349732 0.93423645 3.98968256 0 7 C-0.66 7 -1.32 7 -2 7 C-2.268125 7.70125 -2.53625 8.4025 -2.8125 9.125 C-4.0681449 12.1649824 -5.50235123 15.0727774 -7 18 C-7.66 18 -8.32 18 -9 18 C-7.45614871 13.85967154 -5.48971062 10.06446947 -3.375 6.1875 C-3.05015625 5.59001953 -2.7253125 4.99253906 -2.390625 4.37695312 C-1.59620849 2.91662865 -0.79844624 1.45812509 0 0 Z " fill="#C85156" transform="translate(110,318)"/>
<path d="M0 0 C2.72675159 2.40689803 4.11966596 4.92471023 5.6875 8.1875 C6.12449219 9.08855469 6.56148438 9.98960937 7.01171875 10.91796875 C7.33785156 11.60503906 7.66398437 12.29210937 8 13 C7.01 13.495 7.01 13.495 6 14 C6 13.01 6 12.02 6 11 C5.34 11 4.68 11 4 11 C0 4.5 0 4.5 0 0 Z " fill="#73B256" transform="translate(364,275)"/>
<path d="M0 0 C4.43090471 1.20842856 6.98112756 2.51668565 10 6 C9.278125 5.649375 8.55625 5.29875 7.8125 4.9375 C4.6877295 3.89590983 3.11838004 4.10903428 0 5 C-0.33 5.99 -0.66 6.98 -1 8 C-1.66 8 -2.32 8 -3 8 C-2.690625 7.236875 -2.38125 6.47375 -2.0625 5.6875 C-1.32106407 3.81210323 -0.63771783 1.91315348 0 0 Z " fill="#26B54D" transform="translate(422,408)"/>
<path d="M0 0 C0.66 0.66 1.32 1.32 2 2 C1.67800066 5.97132519 0.16420003 8.70665213 -2 12 C-3.11126362 8.66620913 -2.95133201 6.37290439 -2 3 C-1.34 2.01 -0.68 1.02 0 0 Z " fill="#D65455" transform="translate(280,354)"/>
<path d="M0 0 C3 1 3 1 5 4 C5.25760279 6.69452521 5.08900053 9.28548375 5 12 C4.01 12.33 3.02 12.66 2 13 C2.03480469 12.09507812 2.03480469 12.09507812 2.0703125 11.171875 C2.08835937 10.37265625 2.10640625 9.5734375 2.125 8.75 C2.14820313 7.96109375 2.17140625 7.1721875 2.1953125 6.359375 C1.9828378 3.79268059 1.28654105 2.2083933 0 0 Z " fill="#F3BA63" transform="translate(372,383)"/>
<path d="M0 0 C0.28875 0.598125 0.5775 1.19625 0.875 1.8125 C2.04742026 4.19327792 2.04742026 4.19327792 4 7 C-2.0546875 7.1953125 -2.0546875 7.1953125 -4 7 C-4.66 6.34 -5.32 5.68 -6 5 C-5.195625 4.54625 -4.39125 4.0925 -3.5625 3.625 C-0.91143428 2.25274335 -0.91143428 2.25274335 0 0 Z " fill="#F3B355" transform="translate(324,368)"/>
<path d="M0 0 C0 0.66 0 1.32 0 2 C-1.32 2 -2.64 2 -4 2 C-4 2.99 -4 3.98 -4 5 C-4.804375 5.28875 -5.60875 5.5775 -6.4375 5.875 C-9.1326468 6.73262568 -9.1326468 6.73262568 -10 9 C-10.66 9 -11.32 9 -12 9 C-10.50521886 5.19510255 -8.30557786 3.33809165 -5 1 C-2 0 -2 0 0 0 Z " fill="#BB8636" transform="translate(302,319)"/>
<path d="M0 0 C0.66 0 1.32 0 2 0 C0.53967505 5.31027254 -1.98320986 9.46330032 -5 14 C-5.33 12.68 -5.66 11.36 -6 10 C-5.34 10 -4.68 10 -4 10 C-3.896875 9.46375 -3.79375 8.9275 -3.6875 8.375 C-2.81907303 5.37497956 -1.44379704 2.7620465 0 0 Z " fill="#D53B3D" transform="translate(187,294)"/>
<path d="M0 0 C2.63249349 2.45699392 4.78137264 4.56568654 6 8 C5.67 8.99 5.34 9.98 5 11 C4.01 10.67 3.02 10.34 2 10 C1.34 6.7 0.68 3.4 0 0 Z " fill="#7AC15C" transform="translate(266,106)"/>
<path d="M0 0 C-1.79143207 0.9795958 -3.58315304 1.9586633 -5.375 2.9375 C-6.37273437 3.48277344 -7.37046875 4.02804687 -8.3984375 4.58984375 C-9.92070346 5.4149759 -11.45128783 6.22564391 -13 7 C-12.67 5.35 -12.34 3.7 -12 2 C-10.37787941 1.47026689 -8.75218416 0.95146893 -7.125 0.4375 C-6.22007812 0.14746094 -5.31515625 -0.14257812 -4.3828125 -0.44140625 C-2 -1 -2 -1 0 0 Z " fill="#93C4A0" transform="translate(344,274)"/>
<path d="M0 0 C0.625 1.8125 0.625 1.8125 1 4 C0.01 5.485 0.01 5.485 -1 7 C-1.66 7 -2.32 7 -3 7 C-3.28875 7.804375 -3.5775 8.60875 -3.875 9.4375 C-5 12 -5 12 -7 13 C-5.35821735 8.22390502 -2.73453298 4.20617096 0 0 Z " fill="#CC393A" transform="translate(240,318)"/>
<path d="M0 0 C1.06126775 4.24507101 1.08878929 5.31975221 -1 9 C-2.32 9.33 -3.64 9.66 -5 10 C-3.35 6.7 -1.7 3.4 0 0 Z " fill="#CC4F52" transform="translate(158,235)"/>
<path d="M0 0 C0.66 0.33 1.32 0.66 2 1 C1.32902328 5.19360449 -0.8558394 8.40334352 -3 12 C-4.24546405 9.50907189 -3.7767578 8.58919267 -3 6 C-2.34 6 -1.68 6 -1 6 C-1.020625 5.195625 -1.04125 4.39125 -1.0625 3.5625 C-1 1 -1 1 0 0 Z " fill="#DB393C" transform="translate(230,218)"/>
<path d="M0 0 C2.97 0 5.94 0 9 0 C9 0.33 9 0.66 9 1 C6.69 1 4.38 1 2 1 C1.67 2.32 1.34 3.64 1 5 C0.34 5 -0.32 5 -1 5 C-1 5.66 -1 6.32 -1 7 C-1.66 7 -2.32 7 -3 7 C-1.125 2.25 -1.125 2.25 0 0 Z " fill="#D15759" transform="translate(184,190)"/>
<path d="M0 0 C0 0.99 0 1.98 0 3 C-4.89277899 7.09628009 -4.89277899 7.09628009 -8.875 6.75 C-9.57625 6.5025 -10.2775 6.255 -11 6 C-11 5.67 -11 5.34 -11 5 C-9.35 5 -7.7 5 -6 5 C-6 4.34 -6 3.68 -6 3 C-5.195625 2.690625 -4.39125 2.38125 -3.5625 2.0625 C-1.10919595 1.23664655 -1.10919595 1.23664655 0 0 Z " fill="#C5BA47" transform="translate(418,414)"/>
<path d="M0 0 C0.33 0.99 0.66 1.98 1 3 C0 4 0 4 -3.59765625 4.09765625 C-5.08596867 4.0909822 -6.57426432 4.07902183 -8.0625 4.0625 C-8.82111328 4.05798828 -9.57972656 4.05347656 -10.36132812 4.04882812 C-12.24091871 4.0370068 -14.12046899 4.01907078 -16 4 C-16 3.67 -16 3.34 -16 3 C-15.09636719 2.95101563 -14.19273437 2.90203125 -13.26171875 2.8515625 C-12.08222656 2.77679688 -10.90273438 2.70203125 -9.6875 2.625 C-7.92986328 2.52058594 -7.92986328 2.52058594 -6.13671875 2.4140625 C-2.84300113 2.21386253 -2.84300113 2.21386253 0 0 Z " fill="#F9C877" transform="translate(393,407)"/>
<path d="M0 0 C0.99 0.495 0.99 0.495 2 1 C3.37342831 1.0689472 4.75002102 1.08467708 6.125 1.0625 C7.40375 1.041875 8.6825 1.02125 10 1 C10 1.99 10 2.98 10 4 C7.03 4 4.06 4 1 4 C0.67 2.68 0.34 1.36 0 0 Z " fill="#F1B455" transform="translate(364,395)"/>
<path d="M0 0 C0.66 0.99 1.32 1.98 2 3 C1.01 3.33 0.02 3.66 -1 4 C-0.67 4.99 -0.34 5.98 0 7 C-0.99 8.485 -0.99 8.485 -2 10 C-2.99 10 -3.98 10 -5 10 C-3.66511872 6.40608886 -2.03977277 3.24509304 0 0 Z " fill="#D55456" transform="translate(93,348)"/>
<path d="M0 0 C1.32 0.33 2.64 0.66 4 1 C1.14723863 3.93200474 -1.65079784 6.64315404 -5 9 C-5 8.01 -5 7.02 -5 6 C-4.34 6 -3.68 6 -3 6 C-3 5.01 -3 4.02 -3 3 C-2.34 3 -1.68 3 -1 3 C-0.67 2.01 -0.34 1.02 0 0 Z " fill="#1AB470" transform="translate(316,263)"/>
<path d="M0 0 C0.33 0.66 0.66 1.32 1 2 C0.35330586 3.34313399 -0.31903578 4.67391178 -1 6 C-1.69730806 8.3243602 -2.36912152 10.65673706 -3 13 C-3.99 13 -4.98 13 -6 13 C-5.1905146 11.01959844 -4.37732831 9.04070923 -3.5625 7.0625 C-3.11003906 5.96035156 -2.65757812 4.85820312 -2.19140625 3.72265625 C-1 1 -1 1 0 0 Z " fill="#E05458" transform="translate(152,246)"/>
<path d="M0 0 C1.98 0 3.96 0 6 0 C3.64971772 1.17514114 1.29739289 2.3441341 -1.0625 3.5 C-4.07779265 4.96835739 -4.07779265 4.96835739 -7 7 C-7.33 6.01 -7.66 5.02 -8 4 C-4.91190305 2.23537317 -3.76687864 2 0 2 C0 1.34 0 0.68 0 0 Z " fill="#82D36A" transform="translate(332,252)"/>
<path d="M0 0 C-0.9590625 0.1546875 -0.9590625 0.1546875 -1.9375 0.3125 C-2.618125 0.539375 -3.29875 0.76625 -4 1 C-4.33 1.99 -4.66 2.98 -5 4 C-7.31 3.67 -9.62 3.34 -12 3 C-7.86112344 0.24074896 -4.92824278 -0.13689563 0 0 Z " fill="#A0B9B5" transform="translate(354,250)"/>
<path d="M0 0 C1.32 0.33 2.64 0.66 4 1 C1.525 5.455 1.525 5.455 -1 10 C-1.33 10 -1.66 10 -2 10 C-2 8.35 -2 6.7 -2 5 C-1.34 5 -0.68 5 0 5 C0 3.35 0 1.7 0 0 Z " fill="#CC4F51" transform="translate(257,395)"/>
<path d="M0 0 C0.99 0.33 1.98 0.66 3 1 C1.35 2.98 -0.3 4.96 -2 7 C-2.99 6.01 -3.98 5.02 -5 4 C-2.6875 1.9375 -2.6875 1.9375 0 0 Z " fill="#F3B459" transform="translate(357,357)"/>
<path d="M0 0 C0.66 0 1.32 0 2 0 C1.625 1.9375 1.625 1.9375 1 4 C0.01 4.495 0.01 4.495 -1 5 C-1.33 5.99 -1.66 6.98 -2 8 C-3.32 7.67 -4.64 7.34 -6 7 C-5.04882866 5.8274869 -4.08882991 4.66212985 -3.125 3.5 C-2.59132813 2.8503125 -2.05765625 2.200625 -1.5078125 1.53125 C-0.76144531 0.77328125 -0.76144531 0.77328125 0 0 Z " fill="#8FC2AF" transform="translate(318,264)"/>
<path d="M0 0 C3.08089673 2.77280706 4.68775452 5.06326356 6 9 C4.68 8.67 3.36 8.34 2 8 C2 7.01 2 6.02 2 5 C1.34 5 0.68 5 0 5 C0 3.35 0 1.7 0 0 Z " fill="#75B854" transform="translate(258,92)"/>
<path d="M0 0 C0.99 0.99 1.98 1.98 3 3 C2.030625 3.268125 1.06125 3.53625 0.0625 3.8125 C-0.948125 4.204375 -1.95875 4.59625 -3 5 C-3.33 5.99 -3.66 6.98 -4 8 C-4.66 7.67 -5.32 7.34 -6 7 C-4.02 4.69 -2.04 2.38 0 0 Z " fill="#EBB357" transform="translate(354,384)"/>
<path d="M0 0 C2.74277578 3.19990508 4.6302836 6.00499382 6 10 C5.34 10 4.68 10 4 10 C4 9.34 4 8.68 4 8 C3.34 8 2.68 8 2 8 C0.23537317 4.91190305 0 3.76687864 0 0 Z " fill="#79B35A" transform="translate(379,301)"/>
<path d="M0 0 C1.98 0.495 1.98 0.495 4 1 C4 2.65 4 4.3 4 6 C2.35 5.01 0.7 4.02 -1 3 C-0.67 2.01 -0.34 1.02 0 0 Z " fill="#FDAD28" transform="translate(370,376)"/>
<path d="M0 0 C2.61724095 2.36797991 4.32861729 4.89600354 6 8 C6 8.66 6 9.32 6 10 C5.34 10 4.68 10 4 10 C4 9.34 4 8.68 4 8 C3.34 8 2.68 8 2 8 C1.34 5.36 0.68 2.72 0 0 Z " fill="#D05355" transform="translate(259,318)"/>
<path d="M0 0 C0.33 0 0.66 0 1 0 C1 1.65 1 3.3 1 5 C0.34 5 -0.32 5 -1 5 C-1.28875 5.804375 -1.5775 6.60875 -1.875 7.4375 C-3 10 -3 10 -5 11 C-3.77782954 6.95743617 -2.37245704 3.50711041 0 0 Z " fill="#C85155" transform="translate(180,197)"/>
<path d="M0 0 C1.4835001 0.42257276 2.96176424 0.86356322 4.4375 1.3125 C5.67306641 1.67794922 5.67306641 1.67794922 6.93359375 2.05078125 C7.61550781 2.36402344 8.29742187 2.67726563 9 3 C9.33 3.99 9.66 4.98 10 6 C5.56909529 4.79157144 3.01887244 3.48331435 0 0 Z " fill="#60DA64" transform="translate(428,410)"/>
<path d="M0 0 C2.43929746 1.92576115 4.80090595 3.80090595 7 6 C5.35 6.66 3.7 7.32 2 8 C2 6.68 2 5.36 2 4 C1.34 4 0.68 4 0 4 C0 2.68 0 1.36 0 0 Z " fill="#EBB459" transform="translate(384,368)"/>
<path d="M0 0 C0.99 0.99 1.98 1.98 3 3 C1.71034824 4.37562854 0.37310707 5.70766393 -1 7 C-1.66 7 -2.32 7 -3 7 C-1.125 1.125 -1.125 1.125 0 0 Z " fill="#CC4F51" transform="translate(56,412)"/>
<path d="M0 0 C0.66 0.33 1.32 0.66 2 1 C0.68 3.31 -0.64 5.62 -2 8 C-3.03864166 4.88407501 -3.09036928 3.9737344 -2 1 C-1.34 0.67 -0.68 0.34 0 0 Z " fill="#D43939" transform="translate(247,191)"/>
<path d="M0 0 C4 4.75 4 4.75 4 7 C2.35 7.66 0.7 8.32 -1 9 C-0.67 6.03 -0.34 3.06 0 0 Z " fill="#74B953" transform="translate(291,148)"/>
<path d="M0 0 C0.66 0.99 1.32 1.98 2 3 C0.7260411 5.03833424 -0.61061923 7.03852126 -2 9 C-2.66 9 -3.32 9 -4 9 C-2.80100302 5.9168649 -1.52299523 2.93720508 0 0 Z " fill="#A4CF6B" transform="translate(239,94)"/>
<path d="M0 0 C0.99 0.33 1.98 0.66 3 1 C4.1875 4.0625 4.1875 4.0625 5 7 C3.0625 6.3125 3.0625 6.3125 1 5 C0.25 2.375 0.25 2.375 0 0 Z " fill="#79C466" transform="translate(444,416)"/>
<path d="M0 0 C1.32 0.99 2.64 1.98 4 3 C3.625 4.9375 3.625 4.9375 3 7 C2.01 7.495 2.01 7.495 1 8 C0.17361624 5.10765685 0 3.11257569 0 0 Z " fill="#F6AE42" transform="translate(360,391)"/>
<path d="M0 0 C0.99 0.33 1.98 0.66 3 1 C1.35 2.98 -0.3 4.96 -2 7 C-2.6875 5.1875 -2.6875 5.1875 -3 3 C-1.5625 1.25 -1.5625 1.25 0 0 Z " fill="#FDF5DB" transform="translate(351,384)"/>
<path d="M0 0 C1.98 0.495 1.98 0.495 4 1 C3.01 2.98 2.02 4.96 1 7 C-0.0625 5.1875 -0.0625 5.1875 -1 3 C-0.67 2.01 -0.34 1.02 0 0 Z " fill="#DB5358" transform="translate(266,379)"/>
<path d="M0 0 C2.79872437 2.52788007 4.45773019 4.20411134 5 8 C3.0625 7.375 3.0625 7.375 1 6 C0.25 2.875 0.25 2.875 0 0 Z " fill="#1ABE58" transform="translate(340,286)"/>
<path d="M0 0 C0.99 0.66 1.98 1.32 3 2 C1.68 3.65 0.36 5.3 -1 7 C-1.625 4.625 -1.625 4.625 -2 2 C-1.34 1.34 -0.68 0.68 0 0 Z " fill="#94C0B9" transform="translate(326,283)"/>
<path d="M0 0 C1.32 1.65 2.64 3.3 4 5 C3.67 5.66 3.34 6.32 3 7 C1.68 6.34 0.36 5.68 -1 5 C-0.67 3.35 -0.34 1.7 0 0 Z " fill="#10BD56" transform="translate(308,230)"/>
<path d="M0 0 C2.25245881 2.68841859 3.88213958 4.64641875 5 8 C4.01 8.495 4.01 8.495 3 9 C1.68 6.36 0.36 3.72 -1 1 C-0.67 0.67 -0.34 0.34 0 0 Z " fill="#179956" transform="translate(266,215)"/>
</svg>
