<?xml version="1.0" encoding="UTF-8"?>
<svg version="1.1" xmlns="http://www.w3.org/2000/svg" width="500" height="500">
<path d="M0 0 C3.46384114 1.15461371 3.59551179 1.55137451 5.20703125 4.62890625 C5.62114258 5.40379395 6.03525391 6.17868164 6.46191406 6.97705078 C6.90760742 7.83024902 7.35330078 8.68344727 7.8125 9.5625 C8.8006003 11.40644307 9.79161242 13.24882803 10.78515625 15.08984375 C11.30867676 16.06034668 11.83219727 17.03084961 12.37158203 18.03076172 C15.06988135 22.95080914 17.90761431 27.78719406 20.75 32.625 C21.94415914 34.66137113 23.13816719 36.69783086 24.33203125 38.734375 C24.9348291 39.76240234 25.53762695 40.79042969 26.15869141 41.84960938 C29.27345078 47.17881317 32.35581864 52.52662075 35.4375 57.875 C36.05979492 58.95475098 36.68208984 60.03450195 37.32324219 61.14697266 C38.58528726 63.33714534 39.84716852 65.52741243 41.10888672 67.71777344 C44.23680148 73.14659942 47.36858448 78.57319281 50.5 84 C51.75001879 86.16665583 53.00001878 88.3333225 54.25 90.5 C55.178125 92.10875 55.178125 92.10875 56.125 93.75 C58 97 59.875 100.25 61.75 103.5 C62.67897095 105.1102002 62.67897095 105.1102002 63.62670898 106.75292969 C64.87104998 108.90980903 66.11535364 111.06670992 67.35961914 113.22363281 C71.2331621 119.93824771 75.10821291 126.65199026 78.98413086 133.36523438 C80.87618581 136.64375579 82.76641412 139.92332407 84.65625 143.203125 C86.66964826 146.69709652 88.68896049 150.18740302 90.71875 153.671875 C91.45834707 154.9479087 92.19793184 156.22394954 92.9375 157.5 C93.54464844 158.5415625 94.15179688 159.583125 94.77734375 160.65625 C96 163 96 163 96 165 C96.94359375 164.59007812 97.8871875 164.18015625 98.859375 163.7578125 C115.27371595 156.79161094 130.70581704 154.85880657 148.0078125 160.78125 C161.74878357 166.37809461 172.99391343 176.66828942 179.46875 190.03125 C185.30489077 204.01084301 185.28545893 218.12441823 185 233 C185.73992187 233.09925781 186.47984375 233.19851563 187.2421875 233.30078125 C192.91041634 234.73791009 196.97876567 239.31990481 199.9375 244.1875 C201.75868099 249.0082732 202.15701581 253.23994497 202.17700195 258.37963867 C202.18357315 259.11679108 202.19014435 259.85394348 202.19691467 260.61343384 C202.21659224 263.04827996 202.22829917 265.48306449 202.23828125 267.91796875 C202.24235678 268.75257441 202.2464323 269.58718006 202.25063133 270.4470768 C202.27147057 274.86648941 202.28578037 279.28587119 202.29516602 283.70532227 C202.30621333 288.25357188 202.34059976 292.80132997 202.38033772 297.34940624 C202.406575 300.86089441 202.41486423 304.37226682 202.41844749 307.88384438 C202.42329674 309.55946476 202.43486299 311.23508056 202.45348549 312.91060448 C202.61929189 328.82019708 202.61929189 328.82019708 198.79289246 335.32588196 C197.69591226 337.20729479 197.69591226 337.20729479 198.6875 340.3125 C199.120625 341.199375 199.55375 342.08625 200 343 C200.35635581 344.3273656 200.69429966 345.66006112 201 347 C184.07519704 347.09358226 167.15047522 347.16404705 150.22547245 347.20724869 C142.36629126 347.22784418 134.50727114 347.25590678 126.64819336 347.30175781 C119.79549896 347.34171828 112.94292126 347.36745471 106.09011358 347.37635398 C102.46400749 347.38155325 98.83823516 347.39370961 95.2122364 347.42292023 C91.15704888 347.45532114 87.10243581 347.45595354 83.04711914 347.45410156 C81.25823524 347.47567322 81.25823524 347.47567322 79.43321228 347.49768066 C71.39187713 347.45801127 64.97639527 346.27936438 58.66015625 341.0703125 C58.13292969 340.42835938 57.60570312 339.78640625 57.0625 339.125 C56.51722656 338.48820312 55.97195313 337.85140625 55.41015625 337.1953125 C52.16307515 332.14029981 51.70469709 327.06512758 51.7253418 321.19384766 C51.72023087 320.43528976 51.71511993 319.67673187 51.70985413 318.89518738 C51.69601734 316.40139757 51.69691054 313.90788601 51.69921875 311.4140625 C51.69532832 309.6706024 51.69099293 307.92714325 51.68623352 306.1836853 C51.67878383 302.53388392 51.67905331 298.88417928 51.68432617 295.234375 C51.69011641 290.57180912 51.67319457 285.90964104 51.6499815 281.24714088 C51.63520355 277.64732573 51.63437802 274.04760547 51.63749123 270.44776535 C51.63697997 268.72947782 51.63177908 267.01118471 51.62167931 265.29292679 C51.60925424 262.88334033 51.61614246 260.47451691 51.62768555 258.06494141 C51.62004181 257.36442154 51.61239807 256.66390167 51.60452271 255.94215393 C51.67033619 249.68344782 53.39111408 244.6608498 56.625 239.3125 C59.9768935 236.04881423 63.84204245 234.0878633 68 232 C66.65544302 228.45565573 65.08771656 225.19200807 63.234375 221.88671875 C62.40498413 220.40473999 62.40498413 220.40473999 61.55883789 218.89282227 C60.96192139 217.83506592 60.36500488 216.77730957 59.75 215.6875 C58.81498657 214.02448853 58.81498657 214.02448853 57.86108398 212.32788086 C52.52126695 202.86059123 47.05876975 193.46700035 41.5625 184.08984375 C37.86786651 177.78429515 34.21155188 171.45701087 30.5625 165.125 C29.94648926 164.05644775 29.33047852 162.98789551 28.69580078 161.88696289 C26.12120456 157.4197938 23.54788685 152.95188955 20.97558594 148.48339844 C19.61884742 146.12653709 18.26166779 143.76993076 16.90405273 141.41357422 C15.63453881 139.20993131 14.36576732 137.00586045 13.09790039 134.80126953 C9.46380304 128.49395823 5.76911153 122.22760214 2 116 C-1.46384114 117.15461371 -1.59551179 117.55137451 -3.20703125 120.62890625 C-3.62106201 121.40363281 -4.03509277 122.17835938 -4.46166992 122.9765625 C-5.13033081 124.25660156 -5.13033081 124.25660156 -5.8125 125.5625 C-6.80189136 127.409053 -7.79420497 129.25404248 -8.7890625 131.09765625 C-9.31274414 132.06848145 -9.83642578 133.03930664 -10.37597656 134.03955078 C-13.05091463 138.91572322 -15.86780949 143.70652614 -18.6875 148.5 C-23.82809488 157.25944314 -28.90812522 166.05132748 -33.9375 174.875 C-40.96540456 187.20060938 -48.04240688 199.49722505 -55.14111328 211.78222656 C-57.63698431 216.10263373 -60.13025372 220.42453923 -62.62329102 224.74658203 C-63.872252 226.91175102 -65.12143742 229.07679056 -66.37084961 231.24169922 C-69.52425351 236.70595371 -72.67485151 242.17179389 -75.8203125 247.640625 C-76.45775391 248.74792969 -77.09519531 249.85523438 -77.75195312 250.99609375 C-78.9313578 253.04498654 -80.10987081 255.09439311 -81.28710938 257.14453125 C-87.43419561 267.81843128 -93.73224925 278.39303719 -100 289 C-79.21 289.33 -58.42 289.66 -37 290 C-36.34 288.35 -35.68 286.7 -35 285 C-34.13277138 283.34407661 -33.23501373 281.70389748 -32.3125 280.078125 C-31.78390381 279.14403809 -31.25530762 278.20995117 -30.71069336 277.24755859 C-30.14616455 276.25836426 -29.58163574 275.26916992 -29 274.25 C-28.41549072 273.22084473 -27.83098145 272.19168945 -27.22875977 271.13134766 C-23.46309014 264.51763641 -19.642283 257.93897015 -15.76220703 251.3918457 C-10.39711243 242.32551495 -5.20770927 233.1573158 0 224 C3.02837983 226.81643014 5.1074732 229.5720448 7.14453125 233.1640625 C7.73242432 234.19184814 8.32031738 235.21963379 8.92602539 236.27856445 C9.54856201 237.38288818 10.17109863 238.48721191 10.8125 239.625 C12.13974975 241.96534679 13.46783236 244.30520389 14.796875 246.64453125 C15.13735367 247.24551132 15.47783234 247.84649139 15.82862854 248.46568298 C18.28685104 252.79065623 20.82253545 257.06377517 23.390625 261.32421875 C24.44196245 263.08458655 25.49155913 264.84597783 26.54037476 266.60784912 C27.54916524 268.29026094 28.57587458 269.96188627 29.6027832 271.63330078 C30.20952881 272.65794434 30.81627441 273.68258789 31.44140625 274.73828125 C32.25653687 276.08466675 32.25653687 276.08466675 33.08813477 277.45825195 C34 280 34 280 33.35791016 282.47265625 C32.9097998 283.30667969 32.46168945 284.14070313 32 285 C31.51893799 285.89936279 31.03787598 286.79872559 30.54223633 287.7253418 C29.69568481 289.19741089 29.69568481 289.19741089 28.83203125 290.69921875 C28.19305908 291.81393555 27.55408691 292.92865234 26.89575195 294.07714844 C26.20144646 295.28066348 25.50702642 296.48411244 24.8125 297.6875 C24.09765255 298.93117268 23.38305643 300.17498986 22.66870117 301.41894531 C21.18995105 303.99250892 19.7091034 306.5648488 18.2265625 309.13623047 C16.41858012 312.2723072 14.6148076 315.41077456 12.8129425 318.55036926 C11.14778541 321.45119986 9.48010347 324.35057502 7.8125 327.25 C7.20188721 328.31307373 6.59127441 329.37614746 5.9621582 330.47143555 C5.38296631 331.47601807 4.80377441 332.48060059 4.20703125 333.515625 C3.7066333 334.38477539 3.20623535 335.25392578 2.69067383 336.14941406 C2.13275146 337.09010742 1.5748291 338.03080078 1 339 C0.79883575 339.65882801 0.59767151 340.31765602 0.39041138 340.99644852 C-0.70857537 343.77052352 -1.64840441 345.12435933 -4 347 C-10.12810417 348.24761494 -16.23792648 348.00989904 -22.46801758 347.90820312 C-24.38991196 347.90594635 -26.31181324 347.90721357 -28.23370361 347.91174316 C-33.45078691 347.91404017 -38.66640112 347.86698219 -43.88314271 347.8111515 C-49.33499865 347.76116706 -54.78688766 347.75644374 -60.23893738 347.74694824 C-70.56285045 347.72207548 -80.88608643 347.65641569 -91.20970124 347.57615232 C-102.96282308 347.486757 -114.71597713 347.44275315 -126.46935427 347.40258884 C-150.64661168 347.31895057 -174.82326792 347.1782218 -199 347 C-197.67899257 342.90675245 -196.22609607 339.35593525 -194.05078125 335.640625 C-193.16132813 334.11115234 -193.16132813 334.11115234 -192.25390625 332.55078125 C-191.61324219 331.46152344 -190.97257812 330.37226563 -190.3125 329.25 C-189.63743361 328.09279028 -188.96296538 326.93523143 -188.2890625 325.77734375 C-186.88984195 323.37429418 -185.48807065 320.9727608 -184.08447266 318.57226562 C-180.86550635 313.06213188 -177.68480155 307.52992383 -174.5 302 C-173.25017876 299.83323021 -172.0001782 297.66656385 -170.75 295.5 C-169.821875 293.89125 -169.821875 293.89125 -168.875 292.25 C-103.25 178.5 -103.25 178.5 -101.37426758 175.2487793 C-100.1266526 173.08621417 -98.87909384 170.92361661 -97.6315918 168.76098633 C-94.47056551 163.28129629 -91.30850691 157.80220642 -88.14453125 152.32421875 C-87.18160156 150.65649414 -87.18160156 150.65649414 -86.19921875 148.95507812 C-85.00819246 146.89235869 -83.81683131 144.82983253 -82.625 142.76757812 C-76.71544723 132.53114592 -70.86448435 122.26284761 -65 112 C-43.88 112 -22.76 112 -1 112 C-5.41062069 103.17875862 -9.80335091 94.63795721 -14.8125 86.1875 C-15.41126953 85.16358154 -16.01003906 84.13966309 -16.62695312 83.0847168 C-19.4279942 78.30359079 -22.26250073 73.55068062 -25.19921875 68.8515625 C-25.67576904 68.0778833 -26.15231934 67.3042041 -26.64331055 66.50708008 C-27.5236444 65.08305255 -28.41887854 63.6680892 -29.33129883 62.2644043 C-30.5 60.36328125 -30.5 60.36328125 -32 57 C-30.89016052 53.38230754 -29.08023106 50.17865827 -27.234375 46.88671875 C-26.68040039 45.89687988 -26.12642578 44.90704102 -25.55566406 43.88720703 C-24.95979492 42.83130371 -24.36392578 41.77540039 -23.75 40.6875 C-23.13608398 39.59550293 -22.52216797 38.50350586 -21.88964844 37.37841797 C-5.24543907 7.86815861 -5.24543907 7.86815861 0 0 Z M110 185 C109.67 185.66 109.34 186.32 109 187 C110.22602115 189.68095886 110.22602115 189.68095886 112.05078125 192.72265625 C112.54391563 193.582826 112.54391563 193.582826 113.04701233 194.46037292 C114.86416419 197.61944691 116.72138084 200.75439725 118.58251953 203.88769531 C119.3357068 205.16036618 120.08815158 206.43347675 120.83984375 207.70703125 C121.21163757 208.33556 121.5834314 208.96408875 121.9664917 209.61166382 C124.05855966 213.2032565 125.83922983 216.76506368 127.37890625 220.63671875 C129.99802493 227.22639422 129.99802493 227.22639422 135 232 C143.51871533 233.96639876 152.40141343 233.0411394 161 232 C161.08857863 228.7085089 161.1409104 225.41733195 161.1875 222.125 C161.21263672 221.2071875 161.23777344 220.289375 161.26367188 219.34375 C161.37944311 208.38407297 158.48418826 199.03702982 151.0625 190.8671875 C144.09296053 184.12166894 136.70717061 180.90184924 127 180.5 C120.94089032 180.70593052 115.39707585 182.22551823 110 185 Z M90 240 C89.95919217 241.99958364 89.95745644 244.00045254 90 246 C88.02 246 86.04 246 84 246 C84 276.36 84 306.72 84 338 C110.07 338 136.14 338 163 338 C163 336.02 163 334.04 163 332 C163.969375 332.020625 164.93875 332.04125 165.9375 332.0625 C168.87465895 332.35618499 168.87465895 332.35618499 170 331 C170.09522418 328.13908182 170.12553326 325.30236379 170.11352539 322.44116211 C170.11367142 321.54368759 170.11381744 320.64621307 170.1139679 319.72154236 C170.11326842 316.74011866 170.10547441 313.7587566 170.09765625 310.77734375 C170.09579219 308.71611058 170.09436823 306.65487696 170.09336853 304.59364319 C170.08954237 299.1569599 170.07971126 293.72030314 170.06866455 288.28363037 C170.05845253 282.74052286 170.05387136 277.19741108 170.04882812 271.65429688 C170.03808908 260.76951957 170.02101149 249.88476198 170 239 C159.71695462 238.97687624 149.43391538 238.95908475 139.15084934 238.94818783 C134.3765172 238.94295907 129.60220279 238.93586156 124.82788086 238.92456055 C120.22433738 238.9137314 115.62081101 238.90772311 111.01725578 238.90512276 C109.25690377 238.90326856 107.49655274 238.89964804 105.73620796 238.89426994 C103.27927723 238.88705914 100.82241805 238.88600907 98.36547852 238.88647461 C97.63036545 238.88287933 96.89525238 238.87928406 96.13786316 238.87557983 C92.78416893 238.58599332 92.78416893 238.58599332 90 240 Z " fill="#FA5555" transform="translate(249,77)"/>
<path d="M0 0 C3.46384114 1.15461371 3.59551179 1.55137451 5.20703125 4.62890625 C5.62114258 5.40379395 6.03525391 6.17868164 6.46191406 6.97705078 C7.1304541 8.25684814 7.1304541 8.25684814 7.8125 9.5625 C8.8006003 11.40644307 9.79161242 13.24882803 10.78515625 15.08984375 C11.30867676 16.06034668 11.83219727 17.03084961 12.37158203 18.03076172 C15.06988135 22.95080914 17.90761431 27.78719406 20.75 32.625 C21.94415914 34.66137113 23.13816719 36.69783086 24.33203125 38.734375 C24.9348291 39.76240234 25.53762695 40.79042969 26.15869141 41.84960938 C29.27345078 47.17881317 32.35581864 52.52662075 35.4375 57.875 C36.05979492 58.95475098 36.68208984 60.03450195 37.32324219 61.14697266 C38.58528726 63.33714534 39.84716852 65.52741243 41.10888672 67.71777344 C44.23680148 73.14659942 47.36858448 78.57319281 50.5 84 C51.75001879 86.16665583 53.00001878 88.3333225 54.25 90.5 C54.86875 91.5725 55.4875 92.645 56.125 93.75 C58 97 59.875 100.25 61.75 103.5 C62.36931396 104.5734668 62.98862793 105.64693359 63.62670898 106.75292969 C64.87104998 108.90980903 66.11535364 111.06670992 67.35961914 113.22363281 C71.2331621 119.93824771 75.10821291 126.65199026 78.98413086 133.36523438 C80.87618581 136.64375579 82.76641412 139.92332407 84.65625 143.203125 C86.66964826 146.69709652 88.68896049 150.18740302 90.71875 153.671875 C91.45834707 154.9479087 92.19793184 156.22394954 92.9375 157.5 C93.54464844 158.5415625 94.15179688 159.583125 94.77734375 160.65625 C96 163 96 163 96 165 C96.94359375 164.59007812 97.8871875 164.18015625 98.859375 163.7578125 C115.27371595 156.79161094 130.70581704 154.85880657 148.0078125 160.78125 C161.74878357 166.37809461 172.99391343 176.66828942 179.46875 190.03125 C185.30489077 204.01084301 185.28545893 218.12441823 185 233 C185.73992187 233.09925781 186.47984375 233.19851563 187.2421875 233.30078125 C192.91041634 234.73791009 196.97876567 239.31990481 199.9375 244.1875 C201.75868099 249.0082732 202.15701581 253.23994497 202.17700195 258.37963867 C202.18357315 259.11679108 202.19014435 259.85394348 202.19691467 260.61343384 C202.21659224 263.04827996 202.22829917 265.48306449 202.23828125 267.91796875 C202.24235678 268.75257441 202.2464323 269.58718006 202.25063133 270.4470768 C202.27147057 274.86648941 202.28578037 279.28587119 202.29516602 283.70532227 C202.30621333 288.25357188 202.34059976 292.80132997 202.38033772 297.34940624 C202.406575 300.86089441 202.41486423 304.37226682 202.41844749 307.88384438 C202.42329674 309.55946476 202.43486299 311.23508056 202.45348549 312.91060448 C202.61929189 328.82019708 202.61929189 328.82019708 198.79289246 335.32588196 C197.69591226 337.20729479 197.69591226 337.20729479 198.6875 340.3125 C199.3371875 341.6428125 199.3371875 341.6428125 200 343 C200.35635581 344.3273656 200.69429966 345.66006112 201 347 C184.07519704 347.09358226 167.15047522 347.16404705 150.22547245 347.20724869 C142.36629126 347.22784418 134.50727114 347.25590678 126.64819336 347.30175781 C119.79549896 347.34171828 112.94292126 347.36745471 106.09011358 347.37635398 C102.46400749 347.38155325 98.83823516 347.39370961 95.2122364 347.42292023 C91.15704888 347.45532114 87.10243581 347.45595354 83.04711914 347.45410156 C81.85452988 347.46848267 80.66194061 347.48286377 79.43321228 347.49768066 C71.39187713 347.45801127 64.97639527 346.27936438 58.66015625 341.0703125 C58.13292969 340.42835938 57.60570312 339.78640625 57.0625 339.125 C56.51722656 338.48820312 55.97195313 337.85140625 55.41015625 337.1953125 C52.16307515 332.14029981 51.70469709 327.06512758 51.7253418 321.19384766 C51.72023087 320.43528976 51.71511993 319.67673187 51.70985413 318.89518738 C51.69601734 316.40139757 51.69691054 313.90788601 51.69921875 311.4140625 C51.69532832 309.6706024 51.69099293 307.92714325 51.68623352 306.1836853 C51.67878383 302.53388392 51.67905331 298.88417928 51.68432617 295.234375 C51.69011641 290.57180912 51.67319457 285.90964104 51.6499815 281.24714088 C51.63520355 277.64732573 51.63437802 274.04760547 51.63749123 270.44776535 C51.63697997 268.72947782 51.63177908 267.01118471 51.62167931 265.29292679 C51.60925424 262.88334033 51.61614246 260.47451691 51.62768555 258.06494141 C51.62004181 257.36442154 51.61239807 256.66390167 51.60452271 255.94215393 C51.67033619 249.68344782 53.39111408 244.6608498 56.625 239.3125 C59.9768935 236.04881423 63.84204245 234.0878633 68 232 C66.65544302 228.45565573 65.08771656 225.19200807 63.234375 221.88671875 C62.68144775 220.89873291 62.12852051 219.91074707 61.55883789 218.89282227 C60.96192139 217.83506592 60.36500488 216.77730957 59.75 215.6875 C59.12665771 214.57882568 58.50331543 213.47015137 57.86108398 212.32788086 C52.52126695 202.86059123 47.05876975 193.46700035 41.5625 184.08984375 C37.86786651 177.78429515 34.21155188 171.45701087 30.5625 165.125 C29.94648926 164.05644775 29.33047852 162.98789551 28.69580078 161.88696289 C26.12120456 157.4197938 23.54788685 152.95188955 20.97558594 148.48339844 C19.61884742 146.12653709 18.26166779 143.76993076 16.90405273 141.41357422 C15.63453881 139.20993131 14.36576732 137.00586045 13.09790039 134.80126953 C11.40528266 131.86357526 9.70470158 128.93069595 8 126 C7.44070801 125.03191406 6.88141602 124.06382812 6.30517578 123.06640625 C5.77263184 122.15761719 5.24008789 121.24882812 4.69140625 120.3125 C4.22033447 119.50425781 3.7492627 118.69601563 3.26391602 117.86328125 C2.12642757 115.85940082 2.12642757 115.85940082 0 115 C-0.84619141 113.10595703 -0.84619141 113.10595703 -1.7265625 110.6328125 C-4.02363682 104.6646535 -7.09613516 99.35057649 -10.375 93.875 C-10.97699219 92.85108154 -11.57898438 91.82716309 -12.19921875 90.7722168 C-15.45255505 85.24432357 -18.75745493 79.75075087 -22.1015625 74.27734375 C-22.75463379 73.19404785 -23.40770508 72.11075195 -24.08056641 70.99462891 C-25.34075358 68.90543029 -26.61605831 66.82526143 -27.90771484 64.75537109 C-28.47441895 63.81129395 -29.04112305 62.8672168 -29.625 61.89453125 C-30.13289062 61.06800049 -30.64078125 60.24146973 -31.1640625 59.38989258 C-32 57 -32 57 -31.32128906 54.51367188 C-30.66725098 53.2694043 -30.66725098 53.2694043 -30 52 C-29.57428711 51.18104248 -29.14857422 50.36208496 -28.70996094 49.51831055 C-28.22301758 48.64988525 -27.73607422 47.78145996 -27.234375 46.88671875 C-26.68040039 45.89687988 -26.12642578 44.90704102 -25.55566406 43.88720703 C-24.95979492 42.83130371 -24.36392578 41.77540039 -23.75 40.6875 C-23.13608398 39.59550293 -22.52216797 38.50350586 -21.88964844 37.37841797 C-5.24543907 7.86815861 -5.24543907 7.86815861 0 0 Z M110 185 C109.67 185.66 109.34 186.32 109 187 C110.22602115 189.68095886 110.22602115 189.68095886 112.05078125 192.72265625 C112.54391563 193.582826 112.54391563 193.582826 113.04701233 194.46037292 C114.86416419 197.61944691 116.72138084 200.75439725 118.58251953 203.88769531 C119.3357068 205.16036618 120.08815158 206.43347675 120.83984375 207.70703125 C121.21163757 208.33556 121.5834314 208.96408875 121.9664917 209.61166382 C124.05855966 213.2032565 125.83922983 216.76506368 127.37890625 220.63671875 C129.99802493 227.22639422 129.99802493 227.22639422 135 232 C143.51871533 233.96639876 152.40141343 233.0411394 161 232 C161.08857863 228.7085089 161.1409104 225.41733195 161.1875 222.125 C161.21263672 221.2071875 161.23777344 220.289375 161.26367188 219.34375 C161.37944311 208.38407297 158.48418826 199.03702982 151.0625 190.8671875 C144.09296053 184.12166894 136.70717061 180.90184924 127 180.5 C120.94089032 180.70593052 115.39707585 182.22551823 110 185 Z M90 240 C89.95919217 241.99958364 89.95745644 244.00045254 90 246 C88.02 246 86.04 246 84 246 C84 276.36 84 306.72 84 338 C110.07 338 136.14 338 163 338 C163 336.02 163 334.04 163 332 C163.969375 332.020625 164.93875 332.04125 165.9375 332.0625 C168.87465895 332.35618499 168.87465895 332.35618499 170 331 C170.09522418 328.13908182 170.12553326 325.30236379 170.11352539 322.44116211 C170.11367142 321.54368759 170.11381744 320.64621307 170.1139679 319.72154236 C170.11326842 316.74011866 170.10547441 313.7587566 170.09765625 310.77734375 C170.09579219 308.71611058 170.09436823 306.65487696 170.09336853 304.59364319 C170.08954237 299.1569599 170.07971126 293.72030314 170.06866455 288.28363037 C170.05845253 282.74052286 170.05387136 277.19741108 170.04882812 271.65429688 C170.03808908 260.76951957 170.02101149 249.88476198 170 239 C159.71695462 238.97687624 149.43391538 238.95908475 139.15084934 238.94818783 C134.3765172 238.94295907 129.60220279 238.93586156 124.82788086 238.92456055 C120.22433738 238.9137314 115.62081101 238.90772311 111.01725578 238.90512276 C109.25690377 238.90326856 107.49655274 238.89964804 105.73620796 238.89426994 C103.27927723 238.88705914 100.82241805 238.88600907 98.36547852 238.88647461 C97.63036545 238.88287933 96.89525238 238.87928406 96.13786316 238.87557983 C92.78416893 238.58599332 92.78416893 238.58599332 90 240 Z " fill="#A5B4BB" transform="translate(249,77)"/>
<path d="M0 0 C3.02837983 2.81643014 5.1074732 5.5720448 7.14453125 9.1640625 C7.73242432 10.19184814 8.32031738 11.21963379 8.92602539 12.27856445 C9.54856201 13.38288818 10.17109863 14.48721191 10.8125 15.625 C12.13974975 17.96534679 13.46783236 20.30520389 14.796875 22.64453125 C15.13735367 23.24551132 15.47783234 23.84649139 15.82862854 24.46568298 C18.28685104 28.79065623 20.82253545 33.06377517 23.390625 37.32421875 C24.44196245 39.08458655 25.49155913 40.84597783 26.54037476 42.60784912 C27.54916524 44.29026094 28.57587458 45.96188627 29.6027832 47.63330078 C30.51290161 49.17026611 30.51290161 49.17026611 31.44140625 50.73828125 C32.25653687 52.08466675 32.25653687 52.08466675 33.08813477 53.45825195 C34 56 34 56 33.35791016 58.47265625 C32.9097998 59.30667969 32.46168945 60.14070313 32 61 C31.51893799 61.89936279 31.03787598 62.79872559 30.54223633 63.7253418 C29.97786865 64.70672119 29.41350098 65.68810059 28.83203125 66.69921875 C28.19305908 67.81393555 27.55408691 68.92865234 26.89575195 70.07714844 C26.20144646 71.28066348 25.50702642 72.48411244 24.8125 73.6875 C24.09765255 74.93117268 23.38305643 76.17498986 22.66870117 77.41894531 C21.18995105 79.99250892 19.7091034 82.5648488 18.2265625 85.13623047 C16.41858012 88.2723072 14.6148076 91.41077456 12.8129425 94.55036926 C11.14778541 97.45119986 9.48010347 100.35057502 7.8125 103.25 C7.20188721 104.31307373 6.59127441 105.37614746 5.9621582 106.47143555 C5.38296631 107.47601807 4.80377441 108.48060059 4.20703125 109.515625 C3.7066333 110.38477539 3.20623535 111.25392578 2.69067383 112.14941406 C2.13275146 113.09010742 1.5748291 114.03080078 1 115 C0.79883575 115.65882801 0.59767151 116.31765602 0.39041138 116.99644852 C-0.70857537 119.77052352 -1.64840441 121.12435933 -4 123 C-10.12810417 124.24761494 -16.23792648 124.00989904 -22.46801758 123.90820312 C-24.38991196 123.90594635 -26.31181324 123.90721357 -28.23370361 123.91174316 C-33.45078691 123.91404017 -38.66640112 123.86698219 -43.88314271 123.8111515 C-49.33499865 123.76116706 -54.78688766 123.75644374 -60.23893738 123.74694824 C-70.56285045 123.72207548 -80.88608643 123.65641569 -91.20970124 123.57615232 C-102.96282308 123.486757 -114.71597713 123.44275315 -126.46935427 123.40258884 C-150.64661168 123.31895057 -174.82326792 123.1782218 -199 123 C-198.34 121.02 -197.68 119.04 -197 117 C-196.67 117.99 -196.34 118.98 -196 120 C-195.08476562 119.4946875 -194.16953125 118.989375 -193.2265625 118.46875 C-192.02616155 117.81228073 -190.82563413 117.1560427 -189.625 116.5 C-189.02171875 116.16613281 -188.4184375 115.83226562 -187.796875 115.48828125 C-183.2265625 113 -183.2265625 113 -181 113 C-181 112.34 -181 111.68 -181 111 C-179.37750059 110.16180842 -177.75191503 109.3295884 -176.125 108.5 C-174.76761719 107.80390625 -174.76761719 107.80390625 -173.3828125 107.09375 C-171 106 -171 106 -169 106 C-169 105.34 -169 104.68 -169 104 C-163.43359375 101.16796875 -163.43359375 101.16796875 -161 100 C-160.06490097 99.48793503 -159.12980194 98.97587006 -158.16636658 98.44828796 C-152.6485855 96.11653271 -146.79235703 96.60770261 -140.90454102 96.65942383 C-138.94254005 96.65876671 -138.94254005 96.65876671 -136.94090271 96.65809631 C-133.37105793 96.65723884 -129.80151821 96.67482399 -126.23174405 96.69581819 C-122.49483889 96.71462663 -118.75792603 96.7163387 -115.02098083 96.71989441 C-107.95211975 96.72920268 -100.88339857 96.75379985 -93.81459898 96.78394288 C-85.76382363 96.81752493 -77.71304145 96.83398244 -69.66221344 96.84902918 C-53.10806052 96.88035059 -36.55404814 96.93308722 -20 97 C-20.97220946 94.85346806 -20.97220946 94.85346806 -22.875 92.8125 C-24.78391037 90.28600099 -25.91883542 88.02942769 -27.07421875 85.10546875 C-28.71106908 81.38284288 -30.78908037 77.89030835 -32.79296875 74.35546875 C-34 72 -34 72 -34 70 C-34.66 70 -35.32 70 -36 70 C-36.78460743 66.76173251 -37.26081954 64.690517 -36.06640625 61.52832031 C-35.57011719 60.71975586 -35.07382813 59.91119141 -34.5625 59.078125 C-34.00449707 58.14790527 -33.44649414 57.21768555 -32.87158203 56.25927734 C-32.25395996 55.26621582 -31.63633789 54.2731543 -31 53.25 C-29.70468204 51.10219366 -28.41044927 48.95373256 -27.1171875 46.8046875 C-26.44010742 45.69061523 -25.76302734 44.57654297 -25.06542969 43.42871094 C-21.65818935 37.79899052 -18.40034937 32.08205443 -15.125 26.375 C-13.87645212 24.20824687 -12.62775937 22.04157721 -11.37890625 19.875 C-7.5711805 13.25840053 -3.77583519 6.63485417 0 0 Z " fill="#F65455" transform="translate(249,301)"/>
<path d="M0 0 C0.33 0 0.66 0 1 0 C1 6.27 1 12.54 1 19 C2.65 19.33 4.3 19.66 6 20 C11.68707398 23.78096677 15.437791 28.17687554 17.55534363 34.71455383 C18.18092811 37.92993484 18.16431362 41.1166699 18.17700195 44.37963867 C18.18357315 45.11679108 18.19014435 45.85394348 18.19691467 46.61343384 C18.21659224 49.04827996 18.22829917 51.48306449 18.23828125 53.91796875 C18.24235678 54.75257441 18.2464323 55.58718006 18.25063133 56.4470768 C18.27147057 60.86648941 18.28578037 65.28587119 18.29516602 69.70532227 C18.30621333 74.25357188 18.34059976 78.80132997 18.38033772 83.34940624 C18.406575 86.86089441 18.41486423 90.37226682 18.41844749 93.88384438 C18.42329674 95.55946476 18.43486299 97.23508056 18.45348549 98.91060448 C18.61929189 114.82019708 18.61929189 114.82019708 14.79289246 121.32588196 C13.69591226 123.20729479 13.69591226 123.20729479 14.6875 126.3125 C15.120625 127.199375 15.55375 128.08625 16 129 C16.35635581 130.3273656 16.69429966 131.66006112 17 133 C0.07519704 133.09358226 -16.84952478 133.16404705 -33.77452755 133.20724869 C-41.63370874 133.22784418 -49.49272886 133.25590678 -57.35180664 133.30175781 C-64.20450104 133.34171828 -71.05707874 133.36745471 -77.90988642 133.37635398 C-81.53599251 133.38155325 -85.16176484 133.39370961 -88.7877636 133.42292023 C-92.84295112 133.45532114 -96.89756419 133.45595354 -100.95288086 133.45410156 C-102.14547012 133.46848267 -103.33805939 133.48286377 -104.56678772 133.49768066 C-112.60812287 133.45801127 -119.02360473 132.27936438 -125.33984375 127.0703125 C-126.13068359 126.10738281 -126.13068359 126.10738281 -126.9375 125.125 C-127.75541016 124.16980469 -127.75541016 124.16980469 -128.58984375 123.1953125 C-131.83692485 118.14029981 -132.29530291 113.06512758 -132.2746582 107.19384766 C-132.27976913 106.43528976 -132.28488007 105.67673187 -132.29014587 104.89518738 C-132.30398266 102.40139757 -132.30308946 99.90788601 -132.30078125 97.4140625 C-132.30467168 95.6706024 -132.30900707 93.92714325 -132.31376648 92.1836853 C-132.32121617 88.53388392 -132.32094669 84.88417928 -132.31567383 81.234375 C-132.30988359 76.57180912 -132.32680543 71.90964104 -132.3500185 67.24714088 C-132.36479645 63.64732573 -132.36562198 60.04760547 -132.36250877 56.44776535 C-132.36302003 54.72947782 -132.36822092 53.01118471 -132.37832069 51.29292679 C-132.39074576 48.88334033 -132.38385754 46.47451691 -132.37231445 44.06494141 C-132.37995819 43.36442154 -132.38760193 42.66390167 -132.39547729 41.94215393 C-132.3299924 35.71469556 -130.57963847 30.76436732 -127.5 25.375 C-122.8402477 20.94823532 -118.30427963 17.21649906 -111.65829277 16.8822155 C-108.91979445 16.96419832 -106.19910636 17.13183864 -103.46655273 17.32983398 C-101.39797977 17.44960261 -99.32919232 17.56571464 -97.26022339 17.67843628 C-96.21400188 17.73662914 -95.16778038 17.79482201 -94.08985519 17.85477829 C-89.40443243 18.07499091 -84.72534458 18.11230705 -80.03540039 18.11352539 C-79.13088859 18.11409659 -78.22637678 18.1146678 -77.29445553 18.11525631 C-74.47883527 18.11326758 -71.66326546 18.10558333 -68.84765625 18.09765625 C-66.84028662 18.09578326 -64.83291652 18.09436355 -62.82554626 18.09336853 C-57.62920797 18.08961251 -52.43289917 18.07984443 -47.23657227 18.06866455 C-41.89925536 18.05829864 -36.56193352 18.05383894 -31.22460938 18.04882812 C-20.81639143 18.03821337 -10.40820282 18.02067581 0 18 C0 12.06 0 6.12 0 0 Z M-94 26 C-94.04080783 27.99958364 -94.04254356 30.00045254 -94 32 C-95.98 32 -97.96 32 -100 32 C-100 62.36 -100 92.72 -100 124 C-73.93 124 -47.86 124 -21 124 C-21 122.02 -21 120.04 -21 118 C-20.030625 118.020625 -19.06125 118.04125 -18.0625 118.0625 C-15.12534105 118.35618499 -15.12534105 118.35618499 -14 117 C-13.90477582 114.13908182 -13.87446674 111.30236379 -13.88647461 108.44116211 C-13.88632858 107.54368759 -13.88618256 106.64621307 -13.8860321 105.72154236 C-13.88673158 102.74011866 -13.89452559 99.7587566 -13.90234375 96.77734375 C-13.90420781 94.71611058 -13.90563177 92.65487696 -13.90663147 90.59364319 C-13.91045763 85.1569599 -13.92028874 79.72030314 -13.93133545 74.28363037 C-13.94154747 68.74052286 -13.94612864 63.19741108 -13.95117188 57.65429688 C-13.96191092 46.76951957 -13.97898851 35.88476198 -14 25 C-24.28304538 24.97687624 -34.56608462 24.95908475 -44.84915066 24.94818783 C-49.6234828 24.94295907 -54.39779721 24.93586156 -59.17211914 24.92456055 C-63.77566262 24.9137314 -68.37918899 24.90772311 -72.98274422 24.90512276 C-74.74309623 24.90326856 -76.50344726 24.89964804 -78.26379204 24.89426994 C-80.72072277 24.88705914 -83.17758195 24.88600907 -85.63452148 24.88647461 C-86.36963455 24.88287933 -87.10474762 24.87928406 -87.86213684 24.87557983 C-91.21583107 24.58599332 -91.21583107 24.58599332 -94 26 Z " fill="#F6A833" transform="translate(433,291)"/>
<path d="M0 0 C-1.65412799 4.53125486 -3.89705771 8.61861118 -6.25 12.8125 C-6.90427979 13.98449951 -6.90427979 13.98449951 -7.57177734 15.18017578 C-11.75995349 22.64377645 -16.0790522 30.029818 -20.40551758 37.41381836 C-24.96681499 45.20555169 -29.46614541 53.0314295 -33.9375 60.875 C-40.96560673 73.20049481 -48.04240605 85.49722363 -55.14111328 97.78222656 C-57.63689344 102.10247643 -60.13006297 106.42422987 -62.62304688 110.74609375 C-64.49709563 113.99496496 -66.37159428 117.24357632 -68.24609375 120.4921875 C-71.39213739 125.94511128 -74.53604868 131.3992561 -77.67553711 136.85595703 C-78.92715269 139.02430128 -80.18442751 141.18938933 -81.44750977 143.35107422 C-84.58938949 148.73867503 -87.62409436 154.14866701 -90.4921875 159.6875 C-96.48465993 171.02431234 -101.1535211 179.45149571 -113.6015625 183.99609375 C-118.5652378 185.46237484 -118.5652378 185.46237484 -121 186 C-121 186.66 -121 187.32 -121 188 C-122.50390625 189.18359375 -122.50390625 189.18359375 -124.5625 190.4375 C-125.22378906 190.84871094 -125.88507813 191.25992188 -126.56640625 191.68359375 C-129 193 -129 193 -132.2890625 194.3671875 C-136.38114716 196.07932232 -140.05630627 198.34408361 -143.8125 200.6875 C-150.73255814 205 -150.73255814 205 -153 205 C-151.50829734 200.0276578 -149.39542583 195.58154261 -147 191 C-146.34 191 -145.68 191 -145 191 C-144.5978125 189.6078125 -144.5978125 189.6078125 -144.1875 188.1875 C-143.00828113 185.0222283 -142.26808528 184.26808528 -140 182 C-139.27988333 180.29790606 -138.56262381 178.5943844 -137.875 176.87890625 C-136.97054586 174.93675249 -135.91576412 173.39372883 -134.625 171.6875 C-132.08296338 168.27800281 -130.30023884 164.70163628 -128.44921875 160.8828125 C-124.85953351 153.74214483 -120.97095789 146.47898127 -116.1875 140.0625 C-113.87159759 136.82023662 -112.51009643 133.67675653 -111 130 C-109.72698596 127.62587528 -108.37256087 125.31915457 -107 123 C-106.34 123 -105.68 123 -105 123 C-104.88269531 122.26652344 -104.76539063 121.53304687 -104.64453125 120.77734375 C-103.99804724 117.99158537 -103.10799232 116.02967087 -101.6875 113.5625 C-101.01654297 112.39460938 -101.01654297 112.39460938 -100.33203125 111.203125 C-98.64263626 108.40893504 -96.8109969 105.71649535 -95 103 C-93.97069953 101.01492052 -92.96136071 99.01885749 -92 97 C-91.34 97 -90.68 97 -90 97 C-89.731875 96.13375 -89.46375 95.2675 -89.1875 94.375 C-88.02888013 91.08208036 -86.61790161 88.08872125 -85 85 C-84.34 85 -83.68 85 -83 85 C-82.67 83.783125 -82.34 82.56625 -82 81.3125 C-80.15921701 75.7193517 -77.10363824 71.02439341 -73.9375 66.11328125 C-71.94143551 63.02474033 -71.94143551 63.02474033 -70.375 59.66796875 C-69 57 -69 57 -67 56 C-66.31998046 54.36795309 -65.64333057 52.73441488 -64.984375 51.09375 C-63.86459975 48.71200582 -62.49679541 46.66368446 -61 44.5 C-59.15578254 41.82611014 -57.8265885 39.58532033 -56.5625 36.5625 C-53.34569736 29.22818999 -49.93387537 23.4384187 -42.4375 20.0625 C-40.6298713 19.36229218 -38.81776723 18.67344991 -37 18 C-35.824375 17.401875 -34.64875 16.80375 -33.4375 16.1875 C-31 15 -31 15 -29 15 C-29 14.34 -29 13.68 -29 13 C-28.01 12.5875 -27.02 12.175 -26 11.75 C-20.8459522 9.53818308 -15.88512644 6.96508989 -10.89453125 4.41015625 C-9.81558594 3.86230469 -8.73664063 3.31445312 -7.625 2.75 C-6.60664063 2.22921875 -5.58828125 1.7084375 -4.5390625 1.171875 C-2 0 -2 0 0 0 Z " fill="#FC3231" transform="translate(249,191)"/>
<path d="M0 0 C2.54683649 -0.35950243 4.02506316 -0.39934934 6.421875 0.55078125 C9.00884197 3.48717267 10.59146831 6.86177308 12.30810547 10.35839844 C14.61887156 14.90699105 17.20935602 19.30633365 19.734375 23.73828125 C20.87254512 25.75642623 22.01056664 27.77465502 23.1484375 29.79296875 C25.91677143 34.68138643 28.74213298 39.53237118 31.609375 44.36328125 C34.89254908 49.89663233 38.06995244 55.47638021 41.171875 61.11328125 C45.68066984 69.30160525 50.37411232 77.37511016 55.09960938 85.43994141 C59.49942805 92.95331254 63.84911092 100.49325303 68.1328125 108.07348633 C70.50180223 112.25261274 72.91728081 116.38536153 75.4609375 120.4609375 C76.17781738 121.62411499 76.17781738 121.62411499 76.90917969 122.81079102 C77.8084464 124.2623695 78.72236084 125.70501551 79.65332031 127.13647461 C82.57575459 131.88155993 82.57575459 131.88155993 81.83984375 135.08203125 C81.37191406 135.89671875 80.90398437 136.71140625 80.421875 137.55078125 C79.55651108 139.87998507 78.7030633 142.21363872 77.859375 144.55078125 C77.20775391 146.34515625 77.20775391 146.34515625 76.54296875 148.17578125 C75.01612966 152.7722585 74.30328906 157.01909505 74.10546875 161.8515625 C74.06357422 162.82802734 74.02167969 163.80449219 73.97851562 164.81054688 C73.93919922 165.81794922 73.89988281 166.82535156 73.859375 167.86328125 C73.79459961 169.40338867 73.79459961 169.40338867 73.72851562 170.97460938 C73.62280675 173.49987694 73.52071032 176.02523687 73.421875 178.55078125 C70.5763546 175.14244479 68.23975898 171.71611141 66.05859375 167.8515625 C65.42687256 166.7382959 64.79515137 165.6250293 64.14428711 164.47802734 C63.81314911 163.88979187 63.48201111 163.3015564 63.14083862 162.69549561 C61.72692064 160.1839181 60.3033485 157.67785609 58.88050842 155.17132568 C58.14459957 153.87461589 57.40920124 152.57761624 56.67430115 151.28033447 C53.10229645 144.97641857 49.48554365 138.69868314 45.859375 132.42578125 C45.24537842 131.36270752 44.63138184 130.29963379 43.9987793 129.2043457 C42.75964157 127.05896565 41.5203031 124.91370154 40.28076172 122.76855469 C37.78407283 118.44673178 35.28990487 114.12345762 32.79638672 109.79980469 C31.55542666 107.64889345 30.31357721 105.49849508 29.07080078 103.34863281 C26.14097609 98.27828637 23.21973972 93.2035287 20.32754517 88.1116333 C18.96233835 85.70928179 17.59243829 83.30962234 16.22216797 80.91015625 C15.25810642 79.21744907 14.30083967 77.52087771 13.34375 75.82421875 C12.46396484 74.28507812 12.46396484 74.28507812 11.56640625 72.71484375 C11.05440674 71.8120166 10.54240723 70.90918945 10.01489258 69.97900391 C8.5013791 67.48357589 8.5013791 67.48357589 6.34106445 65.51269531 C4.24586702 63.37085501 3.53227513 61.80776151 2.5703125 58.99609375 C0.34307363 53.07627031 -2.70957875 47.84026889 -5.953125 42.42578125 C-6.85720093 40.8931665 -6.85720093 40.8931665 -7.77954102 39.32958984 C-10.37882663 34.92407796 -12.99526642 30.52887639 -15.61376953 26.13476562 C-17.58732335 22.81877762 -19.55161993 19.49743061 -21.515625 16.17578125 C-22.13679199 15.14179199 -22.75795898 14.10780273 -23.39794922 13.04248047 C-23.96143066 12.08873535 -24.52491211 11.13499023 -25.10546875 10.15234375 C-25.60812256 9.31010254 -26.11077637 8.46786133 -26.62866211 7.60009766 C-26.94198486 6.92382324 -27.25530762 6.24754883 -27.578125 5.55078125 C-27.248125 4.89078125 -26.918125 4.23078125 -26.578125 3.55078125 C-24.53125 3.20703125 -24.53125 3.20703125 -21.828125 3.05078125 C-17.48012351 2.74020971 -13.25193868 2.21149343 -8.953125 1.48828125 C-7.32117188 1.25044922 -7.32117188 1.25044922 -5.65625 1.0078125 C-3.76190605 0.7265457 -1.87284892 0.40010863 0 0 Z " fill="#02BD61" transform="translate(244.578125,128.44921875)"/>
<path d="M0 0 C3.46384114 1.15461371 3.59551179 1.55137451 5.20703125 4.62890625 C5.62114258 5.40379395 6.03525391 6.17868164 6.46191406 6.97705078 C7.1304541 8.25684814 7.1304541 8.25684814 7.8125 9.5625 C8.8006003 11.40644307 9.79161242 13.24882803 10.78515625 15.08984375 C11.30867676 16.06034668 11.83219727 17.03084961 12.37158203 18.03076172 C15.06988135 22.95080914 17.90761431 27.78719406 20.75 32.625 C21.94415914 34.66137113 23.13816719 36.69783086 24.33203125 38.734375 C24.9348291 39.76240234 25.53762695 40.79042969 26.15869141 41.84960938 C29.27345078 47.17881317 32.35581864 52.52662075 35.4375 57.875 C36.05979492 58.95475098 36.68208984 60.03450195 37.32324219 61.14697266 C38.58528726 63.33714534 39.84716852 65.52741243 41.10888672 67.71777344 C44.23680148 73.14659942 47.36858448 78.57319281 50.5 84 C51.75001879 86.16665583 53.00001878 88.3333225 54.25 90.5 C54.86875 91.5725 55.4875 92.645 56.125 93.75 C58 97 59.875 100.25 61.75 103.5 C62.36931396 104.5734668 62.98862793 105.64693359 63.62670898 106.75292969 C64.87104998 108.90980903 66.11535364 111.06670992 67.35961914 113.22363281 C71.2331621 119.93824771 75.10821291 126.65199026 78.98413086 133.36523438 C80.87618581 136.64375579 82.76641412 139.92332407 84.65625 143.203125 C86.66964826 146.69709652 88.68896049 150.18740302 90.71875 153.671875 C91.45834707 154.9479087 92.19793184 156.22394954 92.9375 157.5 C93.54464844 158.5415625 94.15179688 159.583125 94.77734375 160.65625 C96 163 96 163 96 165 C96.99 165.33 97.98 165.66 99 166 C97.906875 166.433125 96.81375 166.86625 95.6875 167.3125 C92.86209702 168.50873916 91.07431202 169.70733935 89 172 C88.34 172 87.68 172 87 172 C86.71125 172.598125 86.4225 173.19625 86.125 173.8125 C85 176 85 176 83 179 C82.01 179 81.02 179 80 179 C79.34 180.65 78.68 182.3 78 184 C73.87060815 179.31606152 71.066467 173.99635858 68.0625 168.5625 C63.64077238 160.64650464 59.14227961 152.78871357 54.5 145 C48.30414829 134.58755306 42.33683628 124.05369109 36.40136719 113.49121094 C30.44881739 102.90936109 24.32966289 92.42906574 18.16210938 81.97167969 C14.04919898 74.99355692 9.96419737 68.00717639 6.06640625 60.90625 C5.14940871 59.26707491 4.17377674 57.66094852 3.1875 56.0625 C2 54 2 54 2 52 C1.17798096 52.12117188 0.35596191 52.24234375 -0.4909668 52.3671875 C-3.55631321 52.81730543 -6.6221061 53.26421263 -9.68823242 53.70898438 C-11.66165521 53.996238 -13.63454328 54.28715735 -15.60742188 54.578125 C-16.85458984 54.75859375 -18.10175781 54.9390625 -19.38671875 55.125 C-21.10701294 55.37636719 -21.10701294 55.37636719 -22.86206055 55.6328125 C-25.61600897 55.9550671 -28.23206495 56.07254211 -31 56 C-29.68883548 51.6784146 -28.01442447 47.97226372 -25.76171875 44.0625 C-25.11203125 42.92973633 -24.46234375 41.79697266 -23.79296875 40.62988281 C-23.09134608 39.41980574 -22.38951903 38.20984716 -21.6875 37 C-20.97101724 35.75637895 -20.25487471 34.51256182 -19.5390625 33.26855469 C-13.11644459 22.12607702 -6.58765943 11.04562855 0 0 Z " fill="#7CD656" transform="translate(249,77)"/>
<path d="M0 0 C1.96200096 -0.00065712 1.96200096 -0.00065712 3.96363831 -0.00132751 C7.53348308 -0.00218499 11.10302281 0.01540016 14.67279696 0.03639436 C18.40970212 0.0552028 22.14661499 0.05691487 25.88356018 0.06047058 C32.95242126 0.06977885 40.02114244 0.09437602 47.08994204 0.12451905 C55.14071739 0.1581011 63.19149957 0.17455861 71.24232757 0.18960536 C87.79648049 0.22092676 104.35049287 0.27366339 120.90454102 0.34057617 C120.90454102 1.00057617 120.90454102 1.66057617 120.90454102 2.34057617 C121.56454102 2.34057617 122.22454102 2.34057617 122.90454102 2.34057617 C123.23454102 4.32057617 123.56454102 6.30057617 123.90454102 8.34057617 C124.56454102 8.34057617 125.22454102 8.34057617 125.90454102 8.34057617 C127.24292834 10.79627792 128.57540334 13.25487534 129.90454102 15.71557617 C130.28610352 16.41424805 130.66766602 17.11291992 131.06079102 17.83276367 C133.90454102 23.11401367 133.90454102 23.11401367 133.90454102 25.34057617 C134.89454102 25.67057617 135.88454102 26.00057617 136.90454102 26.34057617 C72.55454102 26.34057617 8.20454102 26.34057617 -58.09545898 26.34057617 C-57.43545898 24.36057617 -56.77545898 22.38057617 -56.09545898 20.34057617 C-55.76545898 21.33057617 -55.43545898 22.32057617 -55.09545898 23.34057617 C-54.18022461 22.83526367 -53.26499023 22.32995117 -52.32202148 21.80932617 C-51.12162054 21.1528569 -49.92109311 20.49661887 -48.72045898 19.84057617 C-48.11717773 19.50670898 -47.51389648 19.1728418 -46.89233398 18.82885742 C-42.32202148 16.34057617 -42.32202148 16.34057617 -40.09545898 16.34057617 C-40.09545898 15.68057617 -40.09545898 15.02057617 -40.09545898 14.34057617 C-38.47295958 13.5023846 -36.84737402 12.67016457 -35.22045898 11.84057617 C-34.31553711 11.37651367 -33.41061523 10.91245117 -32.47827148 10.43432617 C-30.09545898 9.34057617 -30.09545898 9.34057617 -28.09545898 9.34057617 C-28.09545898 8.68057617 -28.09545898 8.02057617 -28.09545898 7.34057617 C-22.52905273 4.50854492 -22.52905273 4.50854492 -20.09545898 3.34057617 C-19.16035995 2.8285112 -18.22526093 2.31644623 -17.26182556 1.78886414 C-11.74404448 -0.54289112 -5.88781601 -0.05172122 0 0 Z " fill="#FE3131" transform="translate(108.095458984375,397.659423828125)"/>
<path d="M0 0 C18.42776962 -0.04010881 18.42776962 -0.04010881 26.25585938 -0.04882812 C31.60669948 -0.05481629 36.95752255 -0.06191588 42.30834961 -0.07543945 C46.62011973 -0.08626929 50.93187159 -0.09227704 55.24365425 -0.09487724 C56.89236298 -0.09673132 58.54107066 -0.1003516 60.18977165 -0.10573006 C62.49103872 -0.11294178 64.7922294 -0.11399089 67.09350586 -0.11352539 C69.06207802 -0.11685631 69.06207802 -0.11685631 71.07041931 -0.12025452 C74 0 74 0 75 1 C75.09370624 2.77991924 75.11744271 4.56356739 75.11352539 6.34594727 C75.11340454 7.50308228 75.11328369 8.66021729 75.11315918 9.85241699 C75.10804321 11.07803345 75.10292725 12.3036499 75.09765625 13.56640625 C75.09664917 14.68591675 75.09564209 15.80542725 75.09460449 16.9588623 C75.0893535 21.16008522 75.07539239 25.36129359 75.0625 29.5625 C75.041875 38.946875 75.02125 48.33125 75 58 C50.25 58 25.5 58 0 58 C0 38.86 0 19.72 0 0 Z M16 10 C15.5400739 14.28562461 15.38635133 18.57474669 15.26538086 22.88061523 C15.2138705 24.32371268 15.13902806 25.76618434 15.03979492 27.20678711 C14.44279683 36.01549618 14.44279683 36.01549618 18.17749023 43.76098633 C26.11134338 49.7945715 34.07453678 50.01915352 43.6875 49.5625 C45.06958257 49.53084925 46.45175334 49.50283401 47.83398438 49.47851562 C53.80437868 49.87842989 53.80437868 49.87842989 59 48 C59.4599261 43.71437539 59.61364867 39.42525331 59.73461914 35.11938477 C59.7861295 33.67628732 59.86097194 32.23381566 59.96020508 30.79321289 C60.55720317 21.98450382 60.55720317 21.98450382 56.82250977 14.23901367 C48.88865662 8.2054285 40.92546322 7.98084648 31.3125 8.4375 C29.93041743 8.46915075 28.54824666 8.49716599 27.16601562 8.52148438 C21.19562132 8.12157011 21.19562132 8.12157011 16 10 Z " fill="#E89F32" transform="translate(335,355)"/>
<path d="M0 0 C0.99 0.66 1.98 1.32 3 2 C2.82597656 2.95261719 2.65195313 3.90523438 2.47265625 4.88671875 C1.80823241 9.56815305 2.14204002 14.1098685 2.4375 18.8125 C2.90557461 27.58456484 3.14386292 36.34042638 3.1875 45.125 C3.20031006 46.24495361 3.21312012 47.36490723 3.22631836 48.51879883 C3.22768799 49.56704834 3.22905762 50.61529785 3.23046875 51.6953125 C3.23457764 52.62359863 3.23868652 53.55188477 3.24291992 54.50830078 C2.98808497 57.12221591 2.32618351 58.75498188 1 61 C0.34 61 -0.32 61 -1 61 C-1.66 62.98 -2.32 64.96 -3 67 C-3.66 67 -4.32 67 -5 67 C-5.20367187 67.76570313 -5.40734375 68.53140625 -5.6171875 69.3203125 C-7.56425054 74.50148024 -10.33887803 79.10433176 -13.125 83.875 C-13.96998047 85.33679688 -13.96998047 85.33679688 -14.83203125 86.828125 C-16.21650363 89.22161962 -17.60593541 91.6120838 -19 94 C-19.99 94 -20.98 94 -22 94 C-23.34469119 91.67264987 -24.67689362 89.33963934 -26 87 C-26.5053125 86.10796875 -27.010625 85.2159375 -27.53125 84.296875 C-30.13512984 79.62520822 -32.59494344 75.19870926 -34 70 C-34.66 70 -35.32 70 -36 70 C-36.78460743 66.76173251 -37.26081954 64.690517 -36.06640625 61.52832031 C-35.57011719 60.71975586 -35.07382813 59.91119141 -34.5625 59.078125 C-34.00449707 58.14790527 -33.44649414 57.21768555 -32.87158203 56.25927734 C-32.25395996 55.26621582 -31.63633789 54.2731543 -31 53.25 C-29.70468204 51.10219366 -28.41044927 48.95373256 -27.1171875 46.8046875 C-26.44010742 45.69061523 -25.76302734 44.57654297 -25.06542969 43.42871094 C-21.65818935 37.79899052 -18.40034937 32.08205443 -15.125 26.375 C-13.87645212 24.20824687 -12.62775937 22.04157721 -11.37890625 19.875 C-7.5711805 13.25840053 -3.77583519 6.63485417 0 0 Z " fill="#FA3232" transform="translate(249,301)"/>
<path d="M0 0 C2.65439816 1.32719908 2.94036664 2.63935211 4.19140625 5.3125 C7.14131383 11.39175255 10.50764317 17.18142696 13.9375 23 C14.53240234 24.01578125 15.12730469 25.0315625 15.74023438 26.078125 C19.07876088 31.77003904 22.46248992 37.4282144 25.93579102 43.0390625 C27 45 27 45 27 47 C22.62515941 47.17102725 18.25010879 47.33598883 13.875 47.5 C12.65683594 47.54769531 11.43867188 47.59539062 10.18359375 47.64453125 C1.78185664 47.9557067 -6.59303609 48.05819087 -15 48 C-16.1709516 45.6580968 -16.04580153 44.52566059 -15.87890625 41.9375 C-15.83056641 41.14085937 -15.78222656 40.34421875 -15.73242188 39.5234375 C-15.67634766 38.69070313 -15.62027344 37.85796875 -15.5625 37 C-15.4593182 35.35418652 -15.35643923 33.70835403 -15.25390625 32.0625 C-15.20564697 31.33160156 -15.1573877 30.60070312 -15.10766602 29.84765625 C-14.98658537 27.76979158 -15.01259358 25.76701868 -15.125 23.6875 C-14.98764525 20.73437294 -14.22157129 18.67218719 -13 16 C-12.34 16 -11.68 16 -11 16 C-10.773125 14.948125 -10.54625 13.89625 -10.3125 12.8125 C-8.93426287 7.98378267 -6.03082039 5.15262779 -1.6875 2.6875 C-1.130625 2.460625 -0.57375 2.23375 0 2 C0 1.34 0 0.68 0 0 Z " fill="#7FD557" transform="translate(357,262)"/>
<path d="M0 0 C0.66 0 1.32 0 2 0 C2.02526787 7.10244999 2.04283201 14.20488848 2.05493164 21.30737305 C2.05997349 23.72567172 2.06680678 26.14396733 2.07543945 28.56225586 C2.08751157 32.02979283 2.09322963 35.49728966 2.09765625 38.96484375 C2.10281754 40.05337143 2.10797882 41.14189911 2.11329651 42.26341248 C2.11337204 43.26437454 2.11344757 44.26533661 2.11352539 45.29663086 C2.115746 46.18265488 2.11796661 47.06867889 2.12025452 47.98155212 C2 50 2 50 1 51 C-0.8613519 51.36960487 -2.73387365 51.68328908 -4.609375 51.97265625 C-5.75664062 52.14990234 -6.90390625 52.32714844 -8.0859375 52.50976562 C-9.29507813 52.69216797 -10.50421875 52.87457031 -11.75 53.0625 C-12.94367188 53.24876953 -14.13734375 53.43503906 -15.3671875 53.62695312 C-25.14809124 55.12034614 -25.14809124 55.12034614 -30 55 C-28.68542056 50.65882129 -26.99691642 46.94951966 -24.7265625 43.02734375 C-24.07171875 41.88942383 -23.416875 40.75150391 -22.7421875 39.57910156 C-22.03654269 38.36518533 -21.33081185 37.15131912 -20.625 35.9375 C-19.90570154 34.69139716 -19.18695619 33.44497489 -18.46875 32.19824219 C-17.01704308 29.6794342 -15.56276263 27.16214107 -14.10644531 24.64599609 C-11.04912357 19.35982083 -8.02521396 14.0545931 -5 8.75 C-4.021 7.03636311 -3.0418515 5.32281103 -2.0625 3.609375 C-1.46115234 2.5570166 -1.46115234 2.5570166 -0.84765625 1.48339844 C-0.56792969 0.99387695 -0.28820312 0.50435547 0 0 Z " fill="#BEFC72" transform="translate(248,78)"/>
<path d="M0 0 C24.42 0 48.84 0 74 0 C74 28.71 74 57.42 74 87 C72.68 87 71.36 87 70 87 C70.02300171 86.20867676 70.04600342 85.41735352 70.06970215 84.60205078 C70.27396196 77.07169034 70.39846322 69.5458829 70.43784332 62.01300049 C70.46077858 58.14143817 70.51238458 54.27508472 70.63427734 50.40527344 C71.69436321 30.73114315 71.69436321 30.73114315 64.56958008 13.0291748 C57.53229823 5.57266003 49.86664406 3.70366649 39.84375 3.21875 C35.05387242 3.16727272 30.28606564 3.32387688 25.5 3.5 C23.01961563 3.53210329 20.53912541 3.5568998 18.05859375 3.57421875 C12.03525259 3.63197147 6.01947496 3.7796859 0 4 C0 2.68 0 1.36 0 0 Z " fill="#CD8B2A" transform="translate(342,319)"/>
<path d="M0 0 C8.58 0 17.16 0 26 0 C26 8.91 26 17.82 26 27 C17.42 27 8.84 27 0 27 C0 18.09 0 9.18 0 0 Z " fill="#FEAC31" transform="translate(365,374)"/>
<path d="M0 0 C0.33 0 0.66 0 1 0 C1.33 6.6 1.66 13.2 2 20 C-4.27 20.33 -10.54 20.66 -17 21 C-16.34 21.33 -15.68 21.66 -15 22 C-15 22.99 -15 23.98 -15 25 C-40.74 25 -66.48 25 -93 25 C-92.67 24.01 -92.34 23.02 -92 22 C-94.29308963 20.85345518 -95.79909656 20.80270883 -98.3515625 20.68359375 C-99.20234375 20.64169922 -100.053125 20.59980469 -100.9296875 20.55664062 C-101.81914062 20.51732422 -102.70859375 20.47800781 -103.625 20.4375 C-104.97078125 20.37272461 -104.97078125 20.37272461 -106.34375 20.30664062 C-108.56234283 20.20043139 -110.7810488 20.09838806 -113 20 C-113.33 19.34 -113.66 18.68 -114 18 C-76.38 18 -38.76 18 0 18 C0 12.06 0 6.12 0 0 Z " fill="#EBA93F" transform="translate(433,291)"/>
<path d="M0 0 C0.66 0.99 1.32 1.98 2 3 C4.53960987 3.29460494 6.83589551 3.39137207 9.37771606 3.36076355 C10.14713276 3.36332682 10.91654945 3.3658901 11.7092818 3.36853105 C14.30135188 3.37349366 16.89284639 3.35693568 19.48486328 3.34057617 C21.33735134 3.33973043 23.18984041 3.340204 25.04232788 3.34190369 C30.08345839 3.34276714 35.1243763 3.32508483 40.16545725 3.30418181 C45.42921284 3.28547324 50.69297289 3.28366918 55.95675659 3.28010559 C65.92987357 3.27076797 75.90289231 3.24613101 85.87596595 3.21605712 C97.22765678 3.18256645 108.5793522 3.16604054 119.9310801 3.15097082 C143.28744127 3.11958292 166.64371514 3.06678914 190 3 C190 3.66 190 4.32 190 5 C190.99 5.33 191.98 5.66 193 6 C128.65 6 64.3 6 -2 6 C-1.34 4.02 -0.68 2.04 0 0 Z " fill="#B02A2A" transform="translate(52,418)"/>
<path d="M0 0 C24.09 0 48.18 0 73 0 C73 28.71 73 57.42 73 87 C72.01 87 71.02 87 70 87 C70 63.24 70 39.48 70 15 C70.66 15 71.32 15 72 15 C72 10.38 72 5.76 72 1 C63.0552567 1.10803585 54.11058927 1.22011463 45.16598797 1.33933926 C41.0127852 1.39453599 36.85957535 1.44795082 32.70629883 1.49731445 C28.6992001 1.54500591 24.69218686 1.59735049 20.6851902 1.65294075 C19.1553847 1.67334263 17.62555577 1.69205929 16.09570885 1.70907402 C13.95523988 1.73316605 11.81493207 1.76321392 9.67456055 1.79467773 C8.45544479 1.81022202 7.23632904 1.8257663 5.98027039 1.84178162 C2.94558057 1.87064557 2.94558057 1.87064557 0 3 C0 2.01 0 1.02 0 0 Z " fill="#EDAE4F" transform="translate(343,319)"/>
<path d="M0 0 C0.88429688 -0.02578125 1.76859375 -0.0515625 2.6796875 -0.078125 C5.125 0.25 5.125 0.25 6.921875 1.328125 C8.762083 4.26767804 8.52143287 6.82074082 8.5 10.25 C8.50773437 11.4875 8.51546875 12.725 8.5234375 14 C8.125 17.25 8.125 17.25 6.95703125 19.17578125 C4.37480177 20.68988169 2.40621268 20.54227809 -0.5625 20.4375 C-2.05330078 20.39689453 -2.05330078 20.39689453 -3.57421875 20.35546875 C-4.33347656 20.32066406 -5.09273438 20.28585937 -5.875 20.25 C-5.90388514 17.10418577 -5.92175923 13.95840531 -5.9375 10.8125 C-5.94587891 9.91466797 -5.95425781 9.01683594 -5.96289062 8.09179688 C-5.96611328 7.23779297 -5.96933594 6.38378906 -5.97265625 5.50390625 C-5.98051147 4.31776733 -5.98051147 4.31776733 -5.98852539 3.10766602 C-5.75722547 -0.67719648 -3.22615981 0.05610713 0 0 Z M-1.875 4.25 C-1.875 5.57 -1.875 6.89 -1.875 8.25 C-0.225 8.25 1.425 8.25 3.125 8.25 C3.455 6.93 3.785 5.61 4.125 4.25 C2.145 4.25 0.165 4.25 -1.875 4.25 Z M-1.875 12.25 C-1.875 13.57 -1.875 14.89 -1.875 16.25 C0.105 16.25 2.085 16.25 4.125 16.25 C3.795 14.93 3.465 13.61 3.125 12.25 C1.475 12.25 -0.175 12.25 -1.875 12.25 Z " fill="#C58B38" transform="translate(362.875,328.75)"/>
<path d="M0 0 C8.58 0 17.16 0 26 0 C26 8.91 26 17.82 26 27 C17.42 27 8.84 27 0 27 C0 18.09 0 9.18 0 0 Z M2 3 C2 10.26 2 17.52 2 25 C9.26 25 16.52 25 24 25 C24 17.41 24 9.82 24 2 C16.37155725 2 9.4892845 2.22189252 2 3 Z " fill="#CA923F" transform="translate(365,374)"/>
<path d="M0 0 C0.33 0 0.66 0 1 0 C1.33 30.69 1.66 61.38 2 93 C1.34 93 0.68 93 0 93 C0 93.66 0 94.32 0 95 C-1.65 95 -3.3 95 -5 95 C-5 96.65 -5 98.3 -5 100 C-31.73 100 -58.46 100 -86 100 C-86 99.67 -86 99.34 -86 99 C-59.93 99 -33.86 99 -7 99 C-7 97.02 -7 95.04 -7 93 C-5.02 92.67 -3.04 92.34 -1 92 C-0.67 61.64 -0.34 31.28 0 0 Z " fill="#A4793B" transform="translate(419,316)"/>
<path d="M0 0 C0.33 0.99 0.66 1.98 1 3 C1.66 2.34 2.32 1.68 3 1 C5.89797974 0.75949097 5.89797974 0.75949097 9.65283203 0.77294922 C10.33587402 0.77265717 11.01891602 0.77236511 11.72265625 0.77206421 C13.98450341 0.77345961 16.24602276 0.78903033 18.5078125 0.8046875 C20.07436951 0.80841689 21.64092884 0.81126421 23.20748901 0.81326294 C27.33394797 0.82090524 31.46026651 0.84055876 35.58666992 0.8626709 C39.79604187 0.88311654 44.00543648 0.8922619 48.21484375 0.90234375 C56.476627 0.92380417 64.73829604 0.95794721 73 1 C73 1.33 73 1.66 73 2 C69.04 2 65.08 2 61 2 C61.495 3.98 61.495 3.98 62 6 C60.68 6.33 59.36 6.66 58 7 C57.505 6.01 57.505 6.01 57 5 C38.19 4.67 19.38 4.34 0 4 C0 2.68 0 1.36 0 0 Z " fill="#CD923A" transform="translate(342,319)"/>
<path d="M0 0 C0.66 0 1.32 0 2 0 C5 5.75 5 5.75 5 8 C-38.23 8 -81.46 8 -126 8 C-126 7.67 -126 7.34 -126 7 C-125.41653872 6.99945523 -124.83307743 6.99891047 -124.2319355 6.99834919 C-109.99970031 6.98334677 -95.7677677 6.94076076 -81.53570747 6.86790943 C-74.65300111 6.83333527 -67.77049345 6.80791392 -60.88769531 6.80444336 C-54.24150818 6.80106591 -47.59575991 6.77164769 -40.94970322 6.72656822 C-38.41810899 6.71361011 -35.88645497 6.70927951 -33.3548317 6.71384621 C-29.79997552 6.71876377 -26.24657184 6.69260475 -22.69189453 6.65942383 C-21.13282127 6.67236229 -21.13282127 6.67236229 -19.54225159 6.68556213 C-12.56684692 6.57690194 -5.1669902 5.1669902 0 0 Z " fill="#53430E" transform="translate(445,416)"/>
<path d="M0 0 C3.4375 0.5 3.4375 0.5 5.12890625 1.59375 C7.12539485 4.50206772 6.83425705 7.01887199 6.8125 10.5 C6.82023437 11.7375 6.82796875 12.975 6.8359375 14.25 C6.4375 17.5 6.4375 17.5 5.1328125 19.41796875 C2.29474959 21.22935913 -0.30288104 20.79103741 -3.5625 20.5 C-6.5625 18.5 -6.5625 18.5 -7.5625 15.5 C-8.05996658 10.68843796 -8.18853732 6.75207464 -6 2.375 C-3.5625 0.5 -3.5625 0.5 0 0 Z M-1.5625 4.5 C-3.79801759 7.85327639 -3.73533528 8.40743657 -3.1875 12.1875 C-3.07664062 12.99574219 -2.96578125 13.80398438 -2.8515625 14.63671875 C-2.75617188 15.25160156 -2.66078125 15.86648438 -2.5625 16.5 C-0.9125 16.17 0.7375 15.84 2.4375 15.5 C2.4375 12.2 2.4375 8.9 2.4375 5.5 C1.1175 5.17 -0.2025 4.84 -1.5625 4.5 Z " fill="#BC8539" transform="translate(347.5625,328.5)"/>
<path d="M0 0 C1.125 3.75 1.125 3.75 0 6 C0.66 6 1.32 6 2 6 C2 8.31 2 10.62 2 13 C2.99 13 3.98 13 5 13 C5 13.66 5 14.32 5 15 C7.97 15.33 10.94 15.66 14 16 C14 16.33 14 16.66 14 17 C10.93852743 17.50642925 7.87567701 18.00399322 4.8125 18.5 C3.94818359 18.64308594 3.08386719 18.78617188 2.19335938 18.93359375 C-1.90526577 19.59314262 -5.83226024 20.20709266 -10 20 C-8.56347895 15.08558588 -6.45840385 10.99761642 -3.875 6.625 C-3.50246094 5.98433594 -3.12992188 5.34367187 -2.74609375 4.68359375 C-1.83565998 3.11951523 -0.91851809 1.55934466 0 0 Z " fill="#AFEF73" transform="translate(228,113)"/>
<path d="M0 0 C0.66 0 1.32 0 2 0 C3.67007687 2.97726736 5.33548572 5.9571197 7 8.9375 C7.47695313 9.78763672 7.95390625 10.63777344 8.4453125 11.51367188 C8.89648438 12.32255859 9.34765625 13.13144531 9.8125 13.96484375 C10.23144531 14.7137085 10.65039062 15.46257324 11.08203125 16.23413086 C12 18 12 18 12 19 C7.71 19 3.42 19 -1 19 C-0.67 12.73 -0.34 6.46 0 0 Z " fill="#09BE5E" transform="translate(342,290)"/>
<path d="M0 0 C1.32 0 2.64 0 4 0 C4.08112454 2.58396679 4.14054748 5.16537568 4.1875 7.75 C4.22520508 8.84441406 4.22520508 8.84441406 4.26367188 9.9609375 C4.30765034 13.18602524 4.20971908 15.58640541 2.73828125 18.48828125 C0.11102543 20.77310822 -1.77982932 20.50478882 -5.125 20.3203125 C-7 20 -7 20 -9 18.8125 C-10.30894168 16.44004321 -10.21620175 14.6664882 -10 12 C-8.68 12 -7.36 12 -6 12 C-5.67 12.99 -5.34 13.98 -5 15 C-3.68 15.33 -2.36 15.66 -1 16 C-0.67 10.72 -0.34 5.44 0 0 Z " fill="#AB7732" transform="translate(384,329)"/>
<path d="M0 0 C0.66 0.33 1.32 0.66 2 1 C2 1.66 2 2.32 2 3 C0.6078125 3.433125 0.6078125 3.433125 -0.8125 3.875 C-4.09791667 4.8875 -4.09791667 4.8875 -7 7 C-7.33 7.99 -7.66 8.98 -8 10 C-8.99 10 -9.98 10 -11 10 C-11.309375 10.61875 -11.61875 11.2375 -11.9375 11.875 C-12.625 13.25 -13.3125 14.625 -14 16 C-14.66 16 -15.32 16 -16 16 C-15.896875 16.7425 -15.79375 17.485 -15.6875 18.25 C-15.8421875 19.61125 -15.8421875 19.61125 -16 21 C-16.7425 21.53625 -17.485 22.0725 -18.25 22.625 C-22.40510734 26.21350179 -23.41269462 30.85677585 -25 36 C-25.66 36 -26.32 36 -27 36 C-25.5196602 28.45026703 -22.34355085 21.89738793 -19 15 C-18.01 15 -17.02 15 -16 15 C-15.773125 14.443125 -15.54625 13.88625 -15.3125 13.3125 C-12.6765471 8.66820204 -8.35906167 5.01781193 -4 2 C-2.68 2 -1.36 2 0 2 C0 1.34 0 0.68 0 0 Z " fill="#A3BDBB" transform="translate(348,241)"/>
<path d="M0 0 C3.74973906 -0.11622939 7.49901464 -0.1872595 11.25 -0.25 C12.31347656 -0.28351563 13.37695312 -0.31703125 14.47265625 -0.3515625 C15.49746094 -0.36445313 16.52226562 -0.37734375 17.578125 -0.390625 C18.99206543 -0.4220459 18.99206543 -0.4220459 20.43457031 -0.45410156 C23.71907875 0.12728269 24.89169466 1.49259159 27 4 C23.06256167 4.05797565 19.12523281 4.09358789 15.1875 4.125 C14.06794922 4.14175781 12.94839844 4.15851563 11.79492188 4.17578125 C10.72177734 4.18222656 9.64863281 4.18867188 8.54296875 4.1953125 C7.0583313 4.21102295 7.0583313 4.21102295 5.54370117 4.22705078 C3 4 3 4 0 2 C0 1.34 0 0.68 0 0 Z " fill="#AE7F35" transform="translate(359,367)"/>
<path d="M0 0 C0.33 0 0.66 0 1 0 C1 5.94 1 11.88 1 18 C4.96 17.505 4.96 17.505 9 17 C7.02 16.67 5.04 16.34 3 16 C1.71428571 7.57142857 1.71428571 7.57142857 3 3 C3.33 4.32 3.66 5.64 4 7 C5.98 6.67 7.96 6.34 10 6 C10 6.66 10 7.32 10 8 C8.35 8.33 6.7 8.66 5 9 C6.32 9.66 7.64 10.32 9 11 C7.35 11 5.7 11 4 11 C4 12.32 4 13.64 4 15 C8.2787981 14.58413646 8.2787981 14.58413646 11.875 12.4375 C12.24625 11.963125 12.6175 11.48875 13 11 C13.125 13.875 13.125 13.875 13 17 C11 19 11 19 8.3984375 19.1953125 C5.59895833 19.13020833 2.79947917 19.06510417 0 19 C0 12.73 0 6.46 0 0 Z " fill="#B5853B" transform="translate(357,330)"/>
<path d="M0 0 C0.99 0.66 1.98 1.32 3 2 C2.835 2.94875 2.67 3.8975 2.5 4.875 C1.81458208 9.5763877 1.91416559 14.26003286 2 19 C1.67 19 1.34 19 1 19 C0.67 16.36 0.34 13.72 0 11 C-0.61875 11.495 -1.2375 11.99 -1.875 12.5 C-4 14 -4 14 -6 14 C-6.33 15.65 -6.66 17.3 -7 19 C-7.99 18.67 -8.98 18.34 -10 18 C-6.7 12.06 -3.4 6.12 0 0 Z " fill="#DB3A3F" transform="translate(249,301)"/>
<path d="M0 0 C0 0.66 0 1.32 0 2 C-0.80219971 2.08040527 -1.60439941 2.16081055 -2.4309082 2.24365234 C-6.05903909 2.6121693 -9.68572002 2.99342679 -13.3125 3.375 C-15.20645508 3.56449219 -15.20645508 3.56449219 -17.13867188 3.7578125 C-18.34716797 3.88671875 -19.55566406 4.015625 -20.80078125 4.1484375 C-21.91622314 4.26364746 -23.03166504 4.37885742 -24.1809082 4.49755859 C-27.19450419 4.84070801 -27.19450419 4.84070801 -30 7 C-29.2265625 8.1446875 -29.2265625 8.1446875 -28.4375 9.3125 C-27.963125 10.199375 -27.48875 11.08625 -27 12 C-27.33 12.99 -27.66 13.98 -28 15 C-29.03048037 13.3811004 -30.04914678 11.75467511 -31.0625 10.125 C-31.63097656 9.22007812 -32.19945312 8.31515625 -32.78515625 7.3828125 C-33.18605469 6.59648437 -33.58695313 5.81015625 -34 5 C-33.67 4.34 -33.34 3.68 -33 3 C-30.953125 2.65625 -30.953125 2.65625 -28.25 2.5 C-23.90199851 2.18942846 -19.67381368 1.66071218 -15.375 0.9375 C-10.1573317 0.0959406 -5.27719589 -0.178888 0 0 Z " fill="#22BC53" transform="translate(251,129)"/>
<path d="M0 0 C0.99 0.33 1.98 0.66 3 1 C3 1.66 3 2.32 3 3 C3.66 3 4.32 3 5 3 C5 4.32 5 5.64 5 7 C5.66 7 6.32 7 7 7 C7 8.32 7 9.64 7 11 C7.66 11 8.32 11 9 11 C9.66 12.32 10.32 13.64 11 15 C12.65 15 14.3 15 16 15 C16.625 16.875 16.625 16.875 17 19 C16.34 19.66 15.68 20.32 15 21 C15.3185177 23.10820797 15.3185177 23.10820797 16 25 C15.34 25.33 14.68 25.66 14 26 C12.00348214 22.45944259 10.00972523 18.9173469 8.01855469 15.3737793 C7.340283 14.16761975 6.661248 12.96188912 5.98144531 11.7565918 C5.00647324 10.0276508 4.0344396 8.2970538 3.0625 6.56640625 C2.47597656 5.52427979 1.88945312 4.48215332 1.28515625 3.40844727 C0 1 0 1 0 0 Z " fill="#09BD66" transform="translate(294,266)"/>
<path d="M0 0 C2.31 0 4.62 0 7 0 C7 0.66 7 1.32 7 2 C7.99 2.33 8.98 2.66 10 3 C7.69 3.33 5.38 3.66 3 4 C2.40667939 8.37573952 1.86172764 12.57528444 2 17 C3.98 17 5.96 17 8 17 C8.33 17.66 8.66 18.32 9 19 C6.03 19 3.06 19 0 19 C0 12.73 0 6.46 0 0 Z " fill="#F3AD45" transform="translate(358,329)"/>
<path d="M0 0 C4.15358254 3.43469325 7.78875342 6.63270466 11 11 C7.37 11 3.74 11 0 11 C0 7.37 0 3.74 0 0 Z " fill="#C49042" transform="translate(396,328)"/>
<path d="M0 0 C0.66 0.33 1.32 0.66 2 1 C-2.29 8.59 -6.58 16.18 -11 24 C-12.04449911 20.86650268 -11.93423645 20.01031744 -11 17 C-10.34 17 -9.68 17 -9 17 C-8.855625 16.4225 -8.71125 15.845 -8.5625 15.25 C-8.04166667 13.16666667 -7.52083333 11.08333333 -7 9 C-6.34 9 -5.68 9 -5 9 C-5 8.01 -5 7.02 -5 6 C-4.34 6 -3.68 6 -3 6 C-3.33 4.68 -3.66 3.36 -4 2 C-3.34 1.67 -2.68 1.34 -2 1 C-1.34 1.33 -0.68 1.66 0 2 C0 1.34 0 0.68 0 0 Z " fill="#B52F2F" transform="translate(214,249)"/>
<path d="M0 0 C1.4606285 2.64738916 2 3.89448334 2 7 C-2.95 7 -7.9 7 -13 7 C-3.66666667 0 -3.66666667 0 0 0 Z " fill="#38AF53" transform="translate(447,416)"/>
<path d="M0 0 C0.66 0 1.32 0 2 0 C3.5078125 2.1171875 3.5078125 2.1171875 5.125 4.875 C5.66382813 5.77992188 6.20265625 6.68484375 6.7578125 7.6171875 C8 10 8 10 8 12 C7.01 12 6.02 12 5 12 C5 13.32 5 14.64 5 16 C3.68 16 2.36 16 1 16 C1.09539062 15.30132812 1.19078125 14.60265625 1.2890625 13.8828125 C1.39992188 12.97273437 1.51078125 12.06265625 1.625 11.125 C1.79902344 9.76761719 1.79902344 9.76761719 1.9765625 8.3828125 C1.98429687 7.59648437 1.99203125 6.81015625 2 6 C1.34 5.34 0.68 4.68 0 4 C0 2.68 0 1.36 0 0 Z " fill="#78C657" transform="translate(297,160)"/>
<path d="M0 0 C0.66 0 1.32 0 2 0 C2.61081304 7.20759389 2.61081304 7.20759389 -0.3125 11 C-3 13 -3 13 -6 13 C-4.58707905 8.1725201 -2.57025846 4.2837641 0 0 Z " fill="#AEE36F" transform="translate(248,78)"/>
<path d="M0 0 C1.36833479 4.15218833 0.52074154 6.84566534 -0.8984375 10.87109375 C-2.62103234 14.20022207 -4.70697278 15.3168972 -8 17 C-8 12.90540797 -6.03072724 10.23249165 -4 6.8125 C-3.6184375 6.15830078 -3.236875 5.50410156 -2.84375 4.83007812 C-1.90161068 3.21666455 -0.95155734 1.60787702 0 0 Z " fill="#CE4C4F" transform="translate(167,219)"/>
<path d="M0 0 C0.33 0 0.66 0 1 0 C1.66 2.31 2.32 4.62 3 7 C2.34 7 1.68 7 1 7 C1 12.94 1 18.88 1 25 C0.34 25 -0.32 25 -1 25 C-1.02900455 21.3958502 -1.04680018 17.79173038 -1.0625 14.1875 C-1.07087891 13.16333984 -1.07925781 12.13917969 -1.08789062 11.08398438 C-1.09111328 10.10107422 -1.09433594 9.11816406 -1.09765625 8.10546875 C-1.10289307 7.19949951 -1.10812988 6.29353027 -1.11352539 5.36010742 C-1 3 -1 3 0 0 Z " fill="#7BBEA1" transform="translate(341,283)"/>
<path d="M0 0 C0.66 0.99 1.32 1.98 2 3 C-2.29 10.59 -6.58 18.18 -11 26 C-12.2077558 22.37673261 -11.54311128 21.35853631 -10 18 C-9.34 18 -8.68 18 -8 18 C-8 16.68 -8 15.36 -8 14 C-7.34 14 -6.68 14 -6 14 C-6 13.01 -6 12.02 -6 11 C-5.34 11 -4.68 11 -4 11 C-3.34 8.36 -2.68 5.72 -2 3 C-1.34 3 -0.68 3 0 3 C0 2.01 0 1.02 0 0 Z " fill="#A92D30" transform="translate(229,221)"/>
<path d="M0 0 C2.9375 0.8125 2.9375 0.8125 6 2 C7 5 7 5 7 8 C7.93422375 9.76557168 8.94330519 11.49238542 10 13.1875 C10.8353125 14.53908203 10.8353125 14.53908203 11.6875 15.91796875 C12.120625 16.60503906 12.55375 17.29210937 13 18 C12.34 18.66 11.68 19.32 11 20 C9.16318536 16.85618694 7.3311356 13.70962371 5.5 10.5625 C4.97535156 9.66466797 4.45070313 8.76683594 3.91015625 7.84179688 C3.16572266 6.56079102 3.16572266 6.56079102 2.40625 5.25390625 C1.94541016 4.46314697 1.48457031 3.6723877 1.00976562 2.85766602 C0 1 0 1 0 0 Z " fill="#169A59" transform="translate(258,204)"/>
<path d="M0 0 C0.99 0 1.98 0 3 0 C3.02709444 2.08326131 3.04643873 4.16662441 3.0625 6.25 C3.07410156 7.41015625 3.08570313 8.5703125 3.09765625 9.765625 C3.01782092 12.40977128 2.78643778 14.49826091 2 17 C1.34 17 0.68 17 0 17 C0 11.39 0 5.78 0 0 Z " fill="#DA9E42" transform="translate(384,329)"/>
<path d="M0 0 C0.96541545 3.18554592 1.05239684 5.88752707 0.87890625 9.203125 C0.83056641 10.1828125 0.78222656 11.1625 0.73242188 12.171875 C0.67634766 13.18765625 0.62027344 14.2034375 0.5625 15.25 C0.51029297 16.28125 0.45808594 17.3125 0.40429688 18.375 C0.27484366 20.91699039 0.13988672 23.45856593 0 26 C-2.68983519 22.74704891 -4.62466078 20.01140606 -6 16 C-5.01 16.33 -4.02 16.66 -3 17 C-3 17.66 -3 18.32 -3 19 C-2.34 19 -1.68 19 -1 19 C-1.01160156 17.71222656 -1.02320313 16.42445313 -1.03515625 15.09765625 C-1.0445327 13.41927228 -1.05363305 11.74088674 -1.0625 10.0625 C-1.07087891 9.21236328 -1.07925781 8.36222656 -1.08789062 7.48632812 C-1.09111328 6.67744141 -1.09433594 5.86855469 -1.09765625 5.03515625 C-1.10289307 4.2862915 -1.10812988 3.53742676 -1.11352539 2.76586914 C-1 1 -1 1 0 0 Z " fill="#19A663" transform="translate(318,281)"/>
<path d="M0 0 C0.33 0 0.66 0 1 0 C1 5.61 1 11.22 1 17 C3.64 17 6.28 17 9 17 C9.33 16.01 9.66 15.02 10 14 C10.66 15.65 11.32 17.3 12 19 C7.71 19 3.42 19 -1 19 C-0.67 12.73 -0.34 6.46 0 0 Z " fill="#2AAE53" transform="translate(342,290)"/>
<path d="M0 0 C1.5 1.375 1.5 1.375 3 3 C3 3.66 3 4.32 3 5 C3.78375 4.814375 4.5675 4.62875 5.375 4.4375 C8 4 8 4 10 5 C10.66 3.35 11.32 1.7 12 0 C12.99 0.33 13.98 0.66 15 1 C13.1875 3.5 13.1875 3.5 11 6 C10.01 6 9.02 6 8 6 C7.34 7.65 6.68 9.3 6 11 C2.90407165 7.4912812 1.25805377 4.50802601 0 0 Z " fill="#79D763" transform="translate(321,250)"/>
<path d="M0 0 C0.66 0 1.32 0 2 0 C3.39521556 2.23953056 4.76562784 4.4888661 6.125 6.75 C6.72248047 7.70132813 6.72248047 7.70132813 7.33203125 8.671875 C8.4453125 10.546875 8.4453125 10.546875 10 14 C9.2421875 16.453125 9.2421875 16.453125 8 18 C7.67 18 7.34 18 7 18 C6.71125 16.865625 6.4225 15.73125 6.125 14.5625 C5.75375 13.386875 5.3825 12.21125 5 11 C4.34 10.67 3.68 10.34 3 10 C3 8.35 3 6.7 3 5 C1.68 4.67 0.36 4.34 -1 4 C-0.67 2.68 -0.34 1.36 0 0 Z " fill="#6EB151" transform="translate(285,139)"/>
<path d="M0 0 C1.32 1.65 2.64 3.3 4 5 C3.57074219 6.04220703 3.57074219 6.04220703 3.1328125 7.10546875 C1.94269408 10.1464265 0.89736547 13.21132475 -0.125 16.3125 C-0.47820312 17.38113281 -0.83140625 18.44976562 -1.1953125 19.55078125 C-1.59363281 20.76314453 -1.59363281 20.76314453 -2 22 C-2.33 22 -2.66 22 -3 22 C-2.51645225 17.27769328 -1.95436999 12.65255372 -1 8 C-0.63451232 5.33644592 -0.31677909 2.66999519 0 0 Z " fill="#1CB86B" transform="translate(323,256)"/>
<path d="M0 0 C1.00836914 -0.01740234 1.00836914 -0.01740234 2.03710938 -0.03515625 C6.38542529 -0.00924771 7.21408111 0.15158111 10.4375 3.375 C3.1775 3.375 -4.0825 3.375 -11.5625 3.375 C-7.00542555 -0.04280584 -5.52697888 -0.0324163 0 0 Z " fill="#DCA758" transform="translate(375.5625,367.625)"/>
<path d="M0 0 C1.6254308 0.14095064 3.25034051 0.28792087 4.875 0.4375 C5.77992188 0.51871094 6.68484375 0.59992188 7.6171875 0.68359375 C10 1 10 1 12 2 C11.34 3.65 10.68 5.3 10 7 C8.70359622 6.40606618 7.41301161 5.79942011 6.125 5.1875 C5.40570313 4.85105469 4.68640625 4.51460938 3.9453125 4.16796875 C2 3 2 3 0 0 Z " fill="#EBA332" transform="translate(381,363)"/>
<path d="M0 0 C0.78375 0.04125 1.5675 0.0825 2.375 0.125 C1.900625 0.95 1.42625 1.775 0.9375 2.625 C-0.86069599 6.65295901 -1.2484255 9.75673579 -1.625 14.125 C-2.285 14.125 -2.945 14.125 -3.625 14.125 C-3.84642255 12.16810341 -4.0517568 10.20938048 -4.25 8.25 C-4.36601562 7.15945313 -4.48203125 6.06890625 -4.6015625 4.9453125 C-4.60929687 4.01460938 -4.61703125 3.08390625 -4.625 2.125 C-2.625 0.125 -2.625 0.125 0 0 Z " fill="#DA9D40" transform="translate(345.625,329.875)"/>
<path d="M0 0 C0.99 0.33 1.98 0.66 3 1 C3.99 0.67 4.98 0.34 6 0 C6.25 5.625 6.25 5.625 4 9 C3.34 9 2.68 9 2 9 C0.3125 7.3125 0.3125 7.3125 -1 5 C-0.6875 2.25 -0.6875 2.25 0 0 Z " fill="#E33333" transform="translate(170,314)"/>
<path d="M0 0 C0.66 0.33 1.32 0.66 2 1 C2 1.66 2 2.32 2 3 C0.6078125 3.433125 0.6078125 3.433125 -0.8125 3.875 C-4.09791667 4.8875 -4.09791667 4.8875 -7 7 C-7.33 7.99 -7.66 8.98 -8 10 C-8.99 10 -9.98 10 -11 10 C-11.268125 10.639375 -11.53625 11.27875 -11.8125 11.9375 C-13 14 -13 14 -16 15 C-13.72890556 9.42549545 -8.86039228 5.36488696 -4 2 C-2.68 2 -1.36 2 0 2 C0 1.34 0 0.68 0 0 Z " fill="#98BC9E" transform="translate(348,241)"/>
<path d="M0 0 C-1.54385129 4.14032846 -3.51028938 7.93553053 -5.625 11.8125 C-6.11226562 12.7087207 -6.11226562 12.7087207 -6.609375 13.62304688 C-7.40379151 15.08337135 -8.20155376 16.54187491 -9 18 C-10.22419163 14.06204091 -9.48320272 11.83887763 -8 8 C-7.01 8 -6.02 8 -5 8 C-5.061875 7.05125 -5.12375 6.1025 -5.1875 5.125 C-5.125625 4.09375 -5.06375 3.0625 -5 2 C-2 0 -2 0 0 0 Z " fill="#C03131" transform="translate(249,191)"/>
<path d="M0 0 C2.16291451 1.3706842 3.60814017 2.76855474 5.265625 4.71484375 C5.78640625 5.31167969 6.3071875 5.90851563 6.84375 6.5234375 C8.015625 8.27734375 8.015625 8.27734375 8.015625 11.27734375 C7.355625 11.27734375 6.695625 11.27734375 6.015625 11.27734375 C6.015625 10.28734375 6.015625 9.29734375 6.015625 8.27734375 C5.025625 8.27734375 4.035625 8.27734375 3.015625 8.27734375 C2.355625 6.29734375 1.695625 4.31734375 1.015625 2.27734375 C-0.304375 2.60734375 -1.624375 2.93734375 -2.984375 3.27734375 C-3.644375 2.28734375 -4.304375 1.29734375 -4.984375 0.27734375 C-1.984375 -0.72265625 -1.984375 -0.72265625 0 0 Z " fill="#BB8534" transform="translate(440.984375,312.72265625)"/>
<path d="M0 0 C2 3 2 3 1.625 5.1875 C1.41875 5.785625 1.2125 6.38375 1 7 C-0.32 7.33 -1.64 7.66 -3 8 C-3.33 9.65 -3.66 11.3 -4 13 C-4.99 12.67 -5.98 12.34 -7 12 C-4.69 8.04 -2.38 4.08 0 0 Z " fill="#D03333" transform="translate(246,307)"/>
<path d="M0 0 C0.16435547 0.87011719 0.16435547 0.87011719 0.33203125 1.7578125 C1.32194943 6.63497038 2.71870724 10.54604748 5 15 C4.67 15.66 4.34 16.32 4 17 C0.79768752 11.75608378 -2.36804809 6.55634291 -5 1 C-1.125 0 -1.125 0 0 0 Z " fill="#6DDA62" transform="translate(316,233)"/>
<path d="M0 0 C0.83583327 2.37607949 1.1842383 3.54449627 0.22265625 5.921875 C-0.8515625 7.61458333 -1.92578125 9.30729167 -3 11 C-3.66 11 -4.32 11 -5 11 C-5.33 12.65 -5.66 14.3 -6 16 C-6.99 16.33 -7.98 16.66 -9 17 C-7.51481201 12.95698825 -5.57122002 9.38853744 -3.375 5.6875 C-2.74335937 4.61886719 -2.11171875 3.55023438 -1.4609375 2.44921875 C-0.97882812 1.64097656 -0.49671875 0.83273437 0 0 Z " fill="#AD4344" transform="translate(62,401)"/>
<path d="M0 0 C0.33 1.32 0.66 2.64 1 4 C2.98 3.67 4.96 3.34 7 3 C7 3.66 7 4.32 7 5 C5.35 5.33 3.7 5.66 2 6 C3.32 6.66 4.64 7.32 6 8 C4.35 8 2.7 8 1 8 C1 9.32 1 10.64 1 12 C2.65 12 4.3 12 6 12 C6 12.33 6 12.66 6 13 C4.02 13 2.04 13 0 13 C-1.28571429 4.57142857 -1.28571429 4.57142857 0 0 Z " fill="#AC782D" transform="translate(360,333)"/>
<path d="M0 0 C0.99 0.33 1.98 0.66 3 1 C3 1.66 3 2.32 3 3 C3.66 3 4.32 3 5 3 C5 4.32 5 5.64 5 7 C5.66 7 6.32 7 7 7 C7 8.32 7 9.64 7 11 C7.66 11 8.32 11 9 11 C9.33 12.98 9.66 14.96 10 17 C6.95591696 13.43312878 4.78917799 9.90489084 2.75 5.6875 C1.96882813 4.08455078 1.96882813 4.08455078 1.171875 2.44921875 C0.78515625 1.64097656 0.3984375 0.83273437 0 0 Z " fill="#1A985A" transform="translate(294,266)"/>
<path d="M0 0 C3 1 3 1 4.6875 3.9375 C6 7 6 7 6 9 C6.99 9.33 7.98 9.66 9 10 C9.73046875 11.84765625 9.73046875 11.84765625 10.1875 14.0625 C10.34605469 14.79597656 10.50460937 15.52945313 10.66796875 16.28515625 C10.77753906 16.85105469 10.88710938 17.41695312 11 18 C8.57794749 15.78213215 7.05481128 13.57287094 5.5 10.6875 C5.07332031 9.89859375 4.64664063 9.1096875 4.20703125 8.296875 C2.76389269 5.55070841 1.35870891 2.78892881 0 0 Z " fill="#66DD66" transform="translate(251,130)"/>
<path d="M0 0 C0.66 0 1.32 0 2 0 C2 3.3 2 6.6 2 10 C2.66 10 3.32 10 4 10 C4.33 9.34 4.66 8.68 5 8 C4.67 9.98 4.34 11.96 4 14 C3.01 13.67 2.02 13.34 1 13 C-0.00496852 9.98509443 -0.10335303 7.95818308 -0.0625 4.8125 C-0.05347656 3.91144531 -0.04445313 3.01039063 -0.03515625 2.08203125 C-0.02355469 1.39496094 -0.01195312 0.70789063 0 0 Z " fill="#9C6A2D" transform="translate(340,334)"/>
<path d="M0 0 C1.828125 0.19921875 1.828125 0.19921875 4 1 C5.484375 3.14453125 5.484375 3.14453125 6.75 5.8125 C7.39195312 7.12154297 7.39195312 7.12154297 8.046875 8.45703125 C9 11 9 11 9 15 C6.55586611 11.91730861 4.66890476 8.71528889 2.8125 5.25 C2.28269531 4.26515625 1.75289063 3.2803125 1.20703125 2.265625 C0.80871094 1.51796875 0.41039062 0.7703125 0 0 Z " fill="#1A9255" transform="translate(285,251)"/>
<path d="M0 0 C0.33 0 0.66 0 1 0 C1 1.65 1 3.3 1 5 C0.34 5 -0.32 5 -1 5 C-1 5.66 -1 6.32 -1 7 C-2.65 7 -4.3 7 -6 7 C-6 8.65 -6 10.3 -6 12 C-6.66 12 -7.32 12 -8 12 C-8 9.69 -8 7.38 -8 5 C-5.36 4.67 -2.72 4.34 0 4 C0 2.68 0 1.36 0 0 Z " fill="#D49841" transform="translate(420,404)"/>
<path d="M0 0 C3.09592835 3.5087188 4.74194623 6.49197399 6 11 C5.01 11.99 4.02 12.98 3 14 C2.896875 13.05125 2.79375 12.1025 2.6875 11.125 C2.31460705 7.70892499 2.31460705 7.70892499 -1 6 C-0.34 6 0.32 6 1 6 C0.67 4.02 0.34 2.04 0 0 Z " fill="#AC4244" transform="translate(277,348)"/>
<path d="M0 0 C1.134375 0.020625 2.26875 0.04125 3.4375 0.0625 C3.4375 1.3825 3.4375 2.7025 3.4375 4.0625 C1.1275 4.0625 -1.1825 4.0625 -3.5625 4.0625 C-3.8925 3.0725 -4.2225 2.0825 -4.5625 1.0625 C-3.5625 0.0625 -3.5625 0.0625 0 0 Z " fill="#D19642" transform="translate(347.5625,344.9375)"/>
<path d="M0 0 C1 2 1 2 0.44140625 3.9453125 C0.15136719 4.66460937 -0.13867188 5.38390625 -0.4375 6.125 C-0.72496094 6.84945313 -1.01242188 7.57390625 -1.30859375 8.3203125 C-1.53675781 8.87460937 -1.76492187 9.42890625 -2 10 C-2.66 10 -3.32 10 -4 10 C-4.66 11.65 -5.32 13.3 -6 15 C-6.66 15 -7.32 15 -8 15 C-6.62712658 11.30123909 -4.93644547 8.0485524 -2.875 4.6875 C-2.33617187 3.80449219 -1.79734375 2.92148437 -1.2421875 2.01171875 C-0.83226562 1.34785156 -0.42234375 0.68398438 0 0 Z " fill="#B22F30" transform="translate(231,333)"/>
<path d="M0 0 C0.33 0 0.66 0 1 0 C0.25 7.625 0.25 7.625 -2 11 C-4.125 11.6875 -4.125 11.6875 -6 12 C-4.43358249 7.69235185 -2.31663844 3.93828536 0 0 Z " fill="#C04649" transform="translate(119,302)"/>
<path d="M0 0 C0.99 0 1.98 0 3 0 C2.42365861 4.75481646 0.44931479 7.97048212 -2 12 C-2.66 10.68 -3.32 9.36 -4 8 C-3.34 8 -2.68 8 -2 8 C-2 6.68 -2 5.36 -2 4 C-1.34 4 -0.68 4 0 4 C0 2.68 0 1.36 0 0 Z " fill="#C33130" transform="translate(197,275)"/>
<path d="M0 0 C3.875 1.875 3.875 1.875 5 3 C5.36162029 4.32594105 5.69728039 5.65938457 6 7 C5.67 6.34 5.34 5.68 5 5 C3.68 5.99 2.36 6.98 1 8 C0.01 6.02 -0.98 4.04 -2 2 C-1.34 2 -0.68 2 0 2 C0 1.34 0 0.68 0 0 Z " fill="#0CAA5B" transform="translate(232,153)"/>
<path d="M0 0 C2.74277578 3.19990508 4.6302836 6.00499382 6 10 C5.01 10.33 4.02 10.66 3 11 C1.5 10 1.5 10 0 8 C-0.27345479 5.28153765 -0.13491285 2.74322801 0 0 Z " fill="#70AD50" transform="translate(313,186)"/>
<path d="M0 0 C0.66 0.66 1.32 1.32 2 2 C0.02 5.63 -1.96 9.26 -4 13 C-5.04449911 9.86650268 -4.93423645 9.01031744 -4 6 C-3.34 6 -2.68 6 -2 6 C-2.33 4.68 -2.66 3.36 -3 2 C-2.01 2.33 -1.02 2.66 0 3 C0 2.01 0 1.02 0 0 Z " fill="#BE3135" transform="translate(159,343)"/>
<path d="M0 0 C1.96446905 1.6344795 2.92317791 2.46429394 3.29296875 5.04296875 C3.1953125 7.02864583 3.09765625 9.01432292 3 11 C2.34 11 1.68 11 1 11 C-0.20272819 8.59454362 -0.10071472 7.05003047 -0.0625 4.375 C-0.05347656 3.55773437 -0.04445313 2.74046875 -0.03515625 1.8984375 C-0.02355469 1.27195312 -0.01195312 0.64546875 0 0 Z " fill="#F1AE4A" transform="translate(351,333)"/>
<path d="M0 0 C3.29078593 2.79716804 5.06305458 6.19528578 7 10 C6.67 10.66 6.34 11.32 6 12 C2.50995438 9.78963777 1.16102915 7.96684959 0 4 C0 2.68 0 1.36 0 0 Z " fill="#699B4C" transform="translate(377,297)"/>
<path d="M0 0 C1.0326802 2.78823655 1.04509293 3.8677274 0.0625 6.75 C-0.288125 7.4925 -0.63875 8.235 -1 9 C-1.99 9 -2.98 9 -4 9 C-4 9.99 -4 10.98 -4 12 C-4.66 12 -5.32 12 -6 12 C-4.43358249 7.69235185 -2.31663844 3.93828536 0 0 Z " fill="#B04143" transform="translate(144,259)"/>
<path d="M0 0 C1.4606285 2.64738916 2 3.89448334 2 7 C-1.33537489 5.88820837 -2.63707344 4.52588702 -5 2 C-2 0 -2 0 0 0 Z " fill="#69AE5B" transform="translate(447,416)"/>
<path d="M0 0 C1.9375 0.1875 1.9375 0.1875 4 1 C5.25 3.0625 5.25 3.0625 6 5 C4.02 5 2.04 5 0 5 C-0.5625 3.0625 -0.5625 3.0625 -1 1 C-0.67 0.67 -0.34 0.34 0 0 Z " fill="#F4AE43" transform="translate(398,334)"/>
<path d="M0 0 C2.31 0 4.62 0 7 0 C7 0.66 7 1.32 7 2 C7.99 2.33 8.98 2.66 10 3 C2.25 4.125 2.25 4.125 0 3 C0 2.01 0 1.02 0 0 Z " fill="#E6AC4F" transform="translate(358,329)"/>
<path d="M0 0 C2.31 0 4.62 0 7 0 C7.33 1.32 7.66 2.64 8 4 C6.68 4.33 5.36 4.66 4 5 C2.68 3.35 1.36 1.7 0 0 Z " fill="#FDAC35" transform="translate(396,321)"/>
<path d="M0 0 C-1.25805377 4.50802601 -2.90407165 7.4912812 -6 11 C-6 9.35 -6 7.7 -6 6 C-5.34 6 -4.68 6 -4 6 C-4 4.35 -4 2.7 -4 1 C-2 0 -2 0 0 0 Z " fill="#B42E2F" transform="translate(193,288)"/>
<path d="M0 0 C0.99 1.32 1.98 2.64 3 4 C2.01 5.32 1.02 6.64 0 8 C-0.99 7.67 -1.98 7.34 -3 7 C-1.125 2.25 -1.125 2.25 0 0 Z " fill="#A9DB66" transform="translate(236,99)"/>
<path d="M0 0 C0.33 1.32 0.66 2.64 1 4 C0.34 4 -0.32 4 -1 4 C-1.103125 4.763125 -1.20625 5.52625 -1.3125 6.3125 C-2.04364039 9.17059424 -2.76951913 10.15742885 -5 12 C-5 8.55639368 -4.20408468 7.25204608 -2.5 4.3125 C-2.0359375 3.50425781 -1.571875 2.69601562 -1.09375 1.86328125 C-0.7328125 1.24839844 -0.371875 0.63351562 0 0 Z " fill="#A63E40" transform="translate(100,335)"/>
<path d="M0 0 C0.33 0 0.66 0 1 0 C1 2.31 1 4.62 1 7 C-1.31 7 -3.62 7 -6 7 C-6 6.34 -6 5.68 -6 5 C-4.35 5 -2.7 5 -1 5 C-0.67 3.35 -0.34 1.7 0 0 Z " fill="#CF9844" transform="translate(338,316)"/>
<path d="M0 0 C2.74277578 3.19990508 4.6302836 6.00499382 6 10 C5.01 10 4.02 10 3 10 C0.96564469 6.27034861 0 4.33094958 0 0 Z " fill="#69AB50" transform="translate(272,115)"/>
<path d="M0 0 C0.33 0 0.66 0 1 0 C1.33 3.3 1.66 6.6 2 10 C2.66 10 3.32 10 4 10 C3.34 11.32 2.68 12.64 2 14 C-0.07384637 11.71823587 -0.98397191 10.55676517 -1.07421875 7.421875 C-0.94660156 6.54015625 -0.81898438 5.6584375 -0.6875 4.75 C-0.56761719 3.85796875 -0.44773437 2.9659375 -0.32421875 2.046875 C-0.21722656 1.37140625 -0.11023438 0.6959375 0 0 Z " fill="#8D5C1C" transform="translate(350,334)"/>
<path d="M0 0 C1.18771723 3.42943519 0.80226223 5.37784675 -0.4375 8.75 C-0.86869141 9.94882812 -0.86869141 9.94882812 -1.30859375 11.171875 C-1.53675781 11.77515625 -1.76492188 12.3784375 -2 13 C-2.66 13 -3.32 13 -4 13 C-2.93204565 8.49933525 -1.85961414 4.2505466 0 0 Z " fill="#89C4B4" transform="translate(325,264)"/>
<path d="M0 0 C0.66 0 1.32 0 2 0 C4.17364926 2.81769349 5.08677021 4.2190681 4.6875 7.8125 C4.460625 8.534375 4.23375 9.25625 4 10 C3.71125 9.38125 3.4225 8.7625 3.125 8.125 C2.06279958 5.86674235 2.06279958 5.86674235 0 4 C0 2.68 0 1.36 0 0 Z " fill="#6EB051" transform="translate(297,160)"/>
<path d="M0 0 C2.78213423 1.02011588 3.81038313 1.63074609 5.1875 4.3125 C5.95949101 6.86600874 6.54944539 9.37176476 7 12 C0 3.55172414 0 3.55172414 0 0 Z " fill="#1D8D49" transform="translate(217,132)"/>
<path d="M0 0 C0.66 0.33 1.32 0.66 2 1 C-0.475 5.455 -0.475 5.455 -3 10 C-3.92538169 6.29847322 -4.08174162 5.36541838 -3 2 C-2.01 2 -1.02 2 0 2 C0 1.34 0 0.68 0 0 Z " fill="#BE3132" transform="translate(237,209)"/>
<path d="M0 0 C0.99 0.33 1.98 0.66 3 1 C2.875 2.8125 2.875 2.8125 2 5 C-1.0625 6.75 -1.0625 6.75 -4 8 C-3.67 7.01 -3.34 6.02 -3 5 C-2.34 5 -1.68 5 -1 5 C-0.67 3.35 -0.34 1.7 0 0 Z " fill="#F45B5D" transform="translate(57,412)"/>
<path d="M0 0 C3.465 1.98 3.465 1.98 7 4 C6.01 4.66 5.02 5.32 4 6 C4 5.34 4 4.68 4 4 C2.35 4 0.7 4 -1 4 C-0.67 2.68 -0.34 1.36 0 0 Z " fill="#BC8830" transform="translate(351,396)"/>
<path d="M0 0 C0.99 0.99 1.98 1.98 3 3 C2.67 3.99 2.34 4.98 2 6 C0.35 5.67 -1.3 5.34 -3 5 C-2.67 4.01 -2.34 3.02 -2 2 C-1.34 2 -0.68 2 0 2 C0 1.34 0 0.68 0 0 Z " fill="#F75A5E" transform="translate(68,394)"/>
<path d="M0 0 C2.31 0.33 4.62 0.66 7 1 C7 2.32 7 3.64 7 5 C3.34683329 3.75023244 2.21934164 3.32901247 0 0 Z " fill="#C8933A" transform="translate(381,363)"/>
<path d="M0 0 C0.66 0.99 1.32 1.98 2 3 C1.01 3 0.02 3 -1 3 C-1 3.66 -1 4.32 -1 5 C-3.31 5.33 -5.62 5.66 -8 6 C-5.63379989 3.38472619 -3.057952 1.73559438 0 0 Z " fill="#A87D35" transform="translate(318,308)"/>
<path d="M0 0 C1.9451 2.91765 2.45276317 4.62537285 3 8 C2.01 8.495 2.01 8.495 1 9 C-0.32 6.36 -1.64 3.72 -3 1 C-2.01 0.67 -1.02 0.34 0 0 Z " fill="#129A56" transform="translate(276,229)"/>
<path d="M0 0 C3.08089673 2.77280706 4.68775452 5.06326356 6 9 C4.68 8.34 3.36 7.68 2 7 C2 6.34 2 5.68 2 5 C1.34 5 0.68 5 0 5 C0 3.35 0 1.7 0 0 Z " fill="#6EAC4F" transform="translate(258,92)"/>
<path d="M0 0 C-0.33 2.31 -0.66 4.62 -1 7 C-3 4 -3 4 -3 2 C-4.32 1.34 -5.64 0.68 -7 0 C-2.25 -1.125 -2.25 -1.125 0 0 Z " fill="#E79F33" transform="translate(398,370)"/>
<path d="M0 0 C0.66 0.33 1.32 0.66 2 1 C-1.625 7.875 -1.625 7.875 -5 9 C-3.7508258 5.54074837 -2.32472205 2.85306797 0 0 Z " fill="#AB792F" transform="translate(308,314)"/>
<path d="M0 0 C0.99 0.495 0.99 0.495 2 1 C2.73075648 3.3140622 3.40138258 5.64828869 4 8 C2.68 7.67 1.36 7.34 0 7 C0 4.69 0 2.38 0 0 Z " fill="#8D979E" transform="translate(425,263)"/>
<path d="M0 0 C1.9375 0.3125 1.9375 0.3125 4 1 C4.33 1.99 4.66 2.98 5 4 C3.35 4.33 1.7 4.66 0 5 C0 3.35 0 1.7 0 0 Z " fill="#98A3AC" transform="translate(358,257)"/>
<path d="M0 0 C0.6875 1.6875 0.6875 1.6875 1 4 C-0.3125 6.75 -0.3125 6.75 -2 9 C-2.66 9 -3.32 9 -4 9 C-2.94124926 5.59687262 -1.99097846 2.98646769 0 0 Z " fill="#B54746" transform="translate(167,219)"/>
<path d="M0 0 C0.66 0.33 1.32 0.66 2 1 C0.35 3.64 -1.3 6.28 -3 9 C-4 7 -4 7 -3.1875 3.9375 C-2 1 -2 1 0 0 Z " fill="#BB3530" transform="translate(151,358)"/>
<path d="M0 0 C0.66 1.32 1.32 2.64 2 4 C0.71034824 5.37562854 -0.62689293 6.70766393 -2 8 C-2.66 8 -3.32 8 -4 8 C-3.67 6.68 -3.34 5.36 -3 4 C-2.34 4 -1.68 4 -1 4 C-0.67 2.68 -0.34 1.36 0 0 Z " fill="#F75B5D" transform="translate(73,385)"/>
<path d="M0 0 C0.99 0.33 1.98 0.66 3 1 C4.6875 4.5625 4.6875 4.5625 6 8 C5.01 8.495 5.01 8.495 4 9 C0 2.25 0 2.25 0 0 Z " fill="#1A8F51" transform="translate(304,283)"/>
<path d="M0 0 C2.32472205 2.85306797 3.7508258 5.54074837 5 9 C3.0625 8.4375 3.0625 8.4375 1 7 C0.25 3.375 0.25 3.375 0 0 Z " fill="#66A14A" transform="translate(364,274)"/>
<path d="M0 0 C2 2 2 2 2 5 C0.68 5.33 -0.64 5.66 -2 6 C-1.125 1.125 -1.125 1.125 0 0 Z " fill="#A9B7C7" transform="translate(344,269)"/>
<path d="M0 0 C0.66 0 1.32 0 2 0 C2 1.32 2 2.64 2 4 C1.34 4 0.68 4 0 4 C-0.33 5.32 -0.66 6.64 -1 8 C-1.66 7.67 -2.32 7.34 -3 7 C-2.01 4.69 -1.02 2.38 0 0 Z " fill="#92C993" transform="translate(329,256)"/>
<path d="M0 0 C0.66 0.33 1.32 0.66 2 1 C0.25 6.75 0.25 6.75 -2 9 C-2 7.02 -2 5.04 -2 3 C-1.34 3 -0.68 3 0 3 C0 2.01 0 1.02 0 0 Z " fill="#CC3236" transform="translate(209,255)"/>
<path d="M0 0 C2.79872437 2.52788007 4.45773019 4.20411134 5 8 C4.34 8 3.68 8 3 8 C0.25624329 5.04518508 0 4.22528092 0 0 Z " fill="#1ABB54" transform="translate(317,246)"/>
<path d="M0 0 C1.32 1.65 2.64 3.3 4 5 C3.67 5.66 3.34 6.32 3 7 C1.68 6.34 0.36 5.68 -1 5 C-0.67 3.35 -0.34 1.7 0 0 Z " fill="#10BD56" transform="translate(308,230)"/>
<path d="M0 0 C0.66 0.99 1.32 1.98 2 3 C0.02 5.97 0.02 5.97 -2 9 C-3.24546405 6.50907189 -2.7767578 5.58919267 -2 3 C-1.34 3 -0.68 3 0 3 C0 2.01 0 1.02 0 0 Z " fill="#BF3232" transform="translate(229,221)"/>
<path d="M0 0 C2.2477975 2.05233685 3.0022242 3.00667261 4 6 C2.35 5.67 0.7 5.34 -1 5 C-0.67 3.35 -0.34 1.7 0 0 Z " fill="#71B551" transform="translate(330,216)"/>
<path d="M0 0 C0.75 1.75 0.75 1.75 1 4 C-0.9375 6.25 -0.9375 6.25 -3 8 C-3 4.42424104 -1.91159393 2.94704065 0 0 Z " fill="#9AC565" transform="translate(241,91)"/>
<path d="M0 0 C2.0625 2.3125 2.0625 2.3125 4 5 C3.67 5.99 3.34 6.98 3 8 C2.34 8 1.68 8 1 8 C0.67 5.36 0.34 2.72 0 0 Z " fill="#6FB053" transform="translate(253,82)"/>
</svg>
